G04 Generated by Ultiboard 14.1 *
%FSLAX25Y25*%
%MOIN*%

%ADD10C,0.00001*%
%ADD11C,0.01000*%
%ADD12C,0.02000*%
%ADD13C,0.03000*%
%ADD14C,0.03937*%
%ADD15C,0.05337*%
%ADD16C,0.05400*%
%ADD17R,0.05400X0.05400*%
%ADD18C,0.07166*%
%ADD19C,0.06334*%
%ADD20R,0.02083X0.02083*%
%ADD21C,0.03917*%
%ADD22R,0.06900X0.06900*%
%ADD23C,0.06900*%
%ADD24C,0.07349*%
%ADD25C,0.03369*%
%ADD26C,0.02581*%
%ADD27C,0.05140*%
%ADD28C,0.04156*%


G04 ColorRGB 0000FF for the following layer *
%LNCopper Bottom*%
%LPD*%
G54D10*
G36*
X398493Y1507D02*
X398493Y1507D01*
X398493Y326493D01*
X1507Y326493D01*
X1507Y1507D01*
X398493Y1507D01*
D02*
G37*
%LPC*%
G36*
X62000Y28990D02*
G75*
D01*
G02X59990Y31000I0J2010*
G01*
X59990Y31000D01*
X59990Y34173D01*
G75*
D01*
G02X64010Y34173I2010J2827*
G01*
X64010Y34173D01*
X64010Y33010D01*
X272168Y33010D01*
X275971Y36813D01*
G75*
D01*
G02X277990Y41688I4029J1187*
G01*
X277990Y41688D01*
X277990Y82173D01*
G75*
D01*
G02X282010Y82173I2010J2827*
G01*
X282010Y82173D01*
X282010Y41688D01*
G75*
D01*
G02X278813Y33971I-2010J-3688*
G01*
X278813Y33971D01*
X274423Y29581D01*
G74*
D01*
G02X273000Y28990I1423J1419*
G01*
X273000Y28990D01*
X62000Y28990D01*
D02*
G37*
G36*
X90423Y179557D02*
G75*
D01*
G02X90163Y177576I-3423J-557*
G01*
X90163Y177576D01*
X88739Y179000D01*
X89335Y179596D01*
G74*
D01*
G02X87206Y180945I665J3404*
G01*
X87206Y180945D01*
X87000Y180739D01*
X86749Y180990D01*
X67827Y180990D01*
G75*
D01*
G02X62583Y185488I-2827J2010*
G01*
X62583Y185488D01*
X42392Y185488D01*
G75*
D01*
G02X42392Y190512I-2392J2512*
G01*
X42392Y190512D01*
X62867Y190512D01*
G75*
D01*
G02X63039Y193807I3133J1488*
G01*
X63039Y193807D01*
X42687Y193807D01*
G75*
D01*
G02X42004Y198831I-2687J2193*
G01*
X42004Y198831D01*
X68996Y198831D01*
G75*
D01*
G02X72597Y199079I2004J-2831*
G01*
G74*
D01*
G02X72881Y198918I1097J2260*
G01*
G74*
D01*
G02X73008Y198828I1381J2099*
G01*
G75*
D01*
G02X73841Y194010I-2008J-2828*
G01*
X73841Y194010D01*
X86173Y194010D01*
G75*
D01*
G02X86173Y189990I2827J-2010*
G01*
X86173Y189990D01*
X73841Y189990D01*
G75*
D01*
G02X72757Y185010I-2841J-1990*
G01*
X72757Y185010D01*
X87173Y185010D01*
G75*
D01*
G02X92985Y184766I2827J-2010*
G01*
X92985Y184766D01*
X92985Y194751D01*
X92981Y194756D01*
X92981Y194756D01*
X86082Y201655D01*
G75*
D01*
G02X90345Y205918I918J3345*
G01*
X90345Y205918D01*
X92981Y203282D01*
X92981Y203282D01*
X98129Y198134D01*
G74*
D01*
G02X99015Y196000I2129J2134*
G01*
X99015Y196000D01*
X99015Y96756D01*
G75*
D01*
G02X98129Y94621I-3015J0*
G01*
X98129Y94621D01*
X92152Y88645D01*
G75*
D01*
G02X90259Y84074I-4908J-645*
G01*
X90259Y84074D01*
X90259Y73188D01*
G75*
D01*
G02X84230Y74087I-3259J-1188*
G01*
X84230Y74087D01*
X84230Y84074D01*
G75*
D01*
G02X87889Y92908I3014J3926*
G01*
X87889Y92908D01*
X92985Y98005D01*
X92985Y181234D01*
G74*
D01*
G02X90423Y179557I2985J1766*
G01*
D02*
G37*
G36*
X376445Y17386D02*
G75*
D01*
G02X376445Y17386I-1445J7614*
G01*
D02*
G37*
G36*
X363039Y92981D02*
G75*
D01*
G02X363039Y92981I4166J161*
G01*
D02*
G37*
G36*
X339771Y92981D02*
G75*
D01*
G02X339771Y92981I4229J-2981*
G01*
D02*
G37*
G36*
X327576Y91837D02*
X327576Y91837D01*
X328720Y92981D01*
X328720Y92981D01*
X329000Y93261D01*
X329280Y92981D01*
X329280Y92981D01*
X330424Y91837D01*
G75*
D01*
G02X327576Y91837I-1424J3163*
G01*
D02*
G37*
G36*
X322576Y91837D02*
X322576Y91837D01*
X323720Y92981D01*
X323720Y92981D01*
X324000Y93261D01*
X324280Y92981D01*
X324280Y92981D01*
X325424Y91837D01*
G75*
D01*
G02X322576Y91837I-1424J3163*
G01*
D02*
G37*
G36*
X317576Y91837D02*
X317576Y91837D01*
X318720Y92981D01*
X318720Y92981D01*
X319000Y93261D01*
X319280Y92981D01*
X319280Y92981D01*
X320424Y91837D01*
G75*
D01*
G02X317576Y91837I-1424J3163*
G01*
D02*
G37*
G36*
X307576Y91837D02*
X307576Y91837D01*
X308720Y92981D01*
X308720Y92981D01*
X309000Y93261D01*
X309280Y92981D01*
X309280Y92981D01*
X310424Y91837D01*
G75*
D01*
G02X307576Y91837I-1424J3163*
G01*
D02*
G37*
G36*
X299488Y54004D02*
X299488Y54004D01*
X299488Y98608D01*
G75*
D01*
G02X304512Y98608I2512J2392*
G01*
X304512Y98608D01*
X304512Y79748D01*
X305261Y79000D01*
X304512Y78252D01*
X304512Y55041D01*
X306085Y53467D01*
G75*
D01*
G02X302533Y49915I-85J-3467*
G01*
X302533Y49915D01*
X300224Y52224D01*
G75*
D01*
G02X299488Y54004I1776J1776*
G01*
D02*
G37*
G36*
X279000Y96010D02*
X279000Y96010D01*
X289168Y96010D01*
X291580Y98422D01*
G75*
D01*
G02X294422Y95580I3420J578*
G01*
X294422Y95580D01*
X291823Y92981D01*
X291823Y92981D01*
X291423Y92581D01*
G74*
D01*
G02X290000Y91990I1423J1419*
G01*
X290000Y91990D01*
X279832Y91990D01*
X273420Y85578D01*
G75*
D01*
G02X272010Y82173I-3420J-578*
G01*
X272010Y82173D01*
X272010Y41688D01*
G75*
D01*
G02X267990Y41688I-2010J-3688*
G01*
X267990Y41688D01*
X267990Y82173D01*
G75*
D01*
G02X270578Y88420I2010J2827*
G01*
X270578Y88420D01*
X275139Y92981D01*
X275139Y92981D01*
X277579Y95421D01*
G74*
D01*
G02X278865Y96005I1421J1421*
G01*
G75*
D01*
G02X279000Y96010I135J-2005*
G01*
D02*
G37*
G36*
X281580Y143578D02*
X281580Y143578D01*
X277168Y147990D01*
X270852Y147990D01*
X271422Y147420D01*
G75*
D01*
G02X268580Y144578I578J-3420*
G01*
X268580Y144578D01*
X267168Y145990D01*
X245841Y145990D01*
G75*
D01*
G02X244757Y141010I-2841J-1990*
G01*
X244757Y141010D01*
X249000Y141010D01*
G74*
D01*
G02X250423Y140419I0J2010*
G01*
X250423Y140419D01*
X257419Y133423D01*
G74*
D01*
G02X258010Y132000I1419J1423*
G01*
X258010Y132000D01*
X258010Y123827D01*
G75*
D01*
G02X253990Y123827I-2010J-2827*
G01*
X253990Y123827D01*
X253990Y131168D01*
X248168Y136990D01*
X242827Y136990D01*
G74*
D01*
G02X242404Y136500I2827J2010*
G01*
G75*
D01*
G02X237470Y131628I-2404J-2500*
G01*
X237470Y131628D01*
X236010Y130168D01*
X236010Y109827D01*
G75*
D01*
G02X231990Y109827I-2010J-2827*
G01*
X231990Y109827D01*
X231990Y110148D01*
X230194Y108352D01*
G75*
D01*
G02X226604Y110446I-3194J-1352*
G01*
X226604Y110446D01*
X229990Y113832D01*
X229990Y119148D01*
X229420Y118578D01*
G75*
D01*
G02X226578Y121420I-3420J-578*
G01*
X226578Y121420D01*
X227990Y122832D01*
X227990Y135977D01*
X218417Y126403D01*
G75*
D01*
G02X213259Y130000I-3417J597*
G01*
G74*
D01*
G02X211682Y131990I1741J3000*
G01*
X211682Y131990D01*
X204848Y131990D01*
G74*
D01*
G02X204923Y131919I1348J1490*
G01*
X204923Y131919D01*
X221422Y115420D01*
G75*
D01*
G02X218580Y112578I578J-3420*
G01*
X218580Y112578D01*
X208456Y122702D01*
G75*
D01*
G02X201806Y124352I-3456J298*
G01*
X201806Y124352D01*
X201168Y124990D01*
X186251Y124990D01*
X186000Y124739D01*
X185749Y124990D01*
X171724Y124990D01*
G75*
D01*
G02X168259Y131000I-1724J3010*
G01*
G75*
D01*
G02X167159Y135990I1741J3000*
G01*
X167159Y135990D01*
X158000Y135990D01*
G75*
D01*
G02X157594Y136032I0J2010*
G01*
G74*
D01*
G02X156579Y136579I406J1968*
G01*
X156579Y136579D01*
X155578Y137580D01*
G75*
D01*
G02X158420Y140422I-578J3420*
G01*
X158420Y140422D01*
X158832Y140010D01*
X168243Y140010D01*
G75*
D01*
G02X170578Y146420I1757J2990*
G01*
X170578Y146420D01*
X182579Y158421D01*
G74*
D01*
G02X183361Y158905I1421J1421*
G01*
G75*
D01*
G02X184000Y159010I639J-1905*
G01*
X184000Y159010D01*
X210173Y159010D01*
G75*
D01*
G02X210173Y154990I2827J-2010*
G01*
X210173Y154990D01*
X184832Y154990D01*
X173420Y143578D01*
G75*
D01*
G02X171595Y139920I-3420J-578*
G01*
G74*
D01*
G02X172423Y139419I595J1920*
G01*
X172423Y139419D01*
X175832Y136010D01*
X213276Y136010D01*
G75*
D01*
G02X218318Y131988I1724J-3010*
G01*
X218318Y131988D01*
X237751Y151421D01*
G75*
D01*
G02X239173Y152010I1421J-1421*
G01*
X239173Y152010D01*
X277999Y152010D01*
G75*
D01*
G02X278184Y152001I1J-2010*
G01*
G74*
D01*
G02X279423Y151419I184J2001*
G01*
X279423Y151419D01*
X281957Y148885D01*
X281957Y148885D01*
X284422Y146420D01*
G75*
D01*
G02X286997Y145836I578J-3420*
G01*
G75*
D01*
G02X286990Y146003I2003J164*
G01*
X286990Y146003D01*
X286990Y174996D01*
G75*
D01*
G02X287579Y176421I2010J4*
G01*
X287579Y176421D01*
X298627Y187469D01*
X298627Y187469D01*
X301990Y190832D01*
X301990Y203173D01*
G75*
D01*
G02X300580Y206578I2010J2827*
G01*
X300580Y206578D01*
X299579Y207579D01*
G75*
D01*
G02X298990Y209003I1421J1421*
G01*
X298990Y209003D01*
X298990Y234173D01*
G75*
D01*
G02X303010Y234173I2010J2827*
G01*
X303010Y234173D01*
X303010Y209832D01*
X303422Y209420D01*
G75*
D01*
G02X306010Y203173I578J-3420*
G01*
X306010Y203173D01*
X306010Y190000D01*
G75*
D01*
G02X305419Y188577I-2010J0*
G01*
X305419Y188577D01*
X304311Y187469D01*
X291010Y174168D01*
X291010Y146832D01*
X294396Y143446D01*
G75*
D01*
G02X290806Y141352I-396J-3446*
G01*
X290806Y141352D01*
X288380Y143778D01*
G75*
D01*
G02X281580Y143578I-3380J-778*
G01*
D02*
G37*
G36*
X376446Y310614D02*
G75*
D01*
G02X376446Y310614I-1446J-7614*
G01*
D02*
G37*
G36*
X394757Y92981D02*
G75*
D01*
G02X394757Y92981I-1962J161*
G01*
D02*
G37*
G36*
X396597Y94853D02*
G75*
D01*
G02X396597Y91431I-3802J-1711*
G01*
X396597Y91431D01*
X395047Y92981D01*
X395047Y92981D01*
X394886Y93142D01*
X396597Y94853D01*
D02*
G37*
G36*
X388994Y94853D02*
X388994Y94853D01*
X390705Y93142D01*
X390544Y92981D01*
X390544Y92981D01*
X388994Y91431D01*
G75*
D01*
G02X388994Y94853I3801J1711*
G01*
D02*
G37*
G36*
X348785Y281957D02*
G75*
D01*
G02X348785Y281957I1215J4799*
G01*
D02*
G37*
G36*
X178000Y92990D02*
G75*
D01*
G02X176579Y93579I0J2010*
G01*
X176579Y93579D01*
X170578Y99580D01*
G75*
D01*
G02X173420Y102422I-578J3420*
G01*
X173420Y102422D01*
X178832Y97010D01*
X213173Y97010D01*
G75*
D01*
G02X213173Y92990I2827J-2010*
G01*
X213173Y92990D01*
X178000Y92990D01*
D02*
G37*
G36*
X187929Y206623D02*
X187929Y206623D01*
X187929Y173913D01*
X190648Y171194D01*
G75*
D01*
G02X188554Y167604I1352J-3194*
G01*
X188554Y167604D01*
X187469Y168689D01*
X187469Y168689D01*
X184499Y171659D01*
G75*
D01*
G02X183910Y173085I1421J1421*
G01*
X183910Y173085D01*
X183910Y206623D01*
G75*
D01*
G02X187929Y206623I2010J2827*
G01*
D02*
G37*
G36*
X167173Y192010D02*
G75*
D01*
G02X167173Y187990I2827J-2010*
G01*
X167173Y187990D01*
X153003Y187990D01*
G75*
D01*
G02X151579Y188579I-3J2010*
G01*
X151579Y188579D01*
X151578Y188580D01*
G75*
D01*
G02X154468Y192010I-578J3420*
G01*
X154468Y192010D01*
X167173Y192010D01*
D02*
G37*
G36*
X281957Y204692D02*
G75*
D01*
G02X281957Y204692I-957J-692*
G01*
D02*
G37*
G36*
X279576Y207163D02*
G75*
D01*
G02X282424Y207163I1424J-3163*
G01*
X282424Y207163D01*
X281000Y205739D01*
X279576Y207163D01*
D02*
G37*
G36*
X276423Y276419D02*
X276423Y276419D01*
X281957Y270885D01*
X288422Y264420D01*
G75*
D01*
G02X285580Y261578I578J-3420*
G01*
X285580Y261578D01*
X281957Y265201D01*
X274168Y272990D01*
X233827Y272990D01*
G75*
D01*
G02X233827Y277010I-2827J2010*
G01*
X233827Y277010D01*
X275000Y277010D01*
G74*
D01*
G02X276423Y276419I0J2010*
G01*
D02*
G37*
G36*
X279576Y200837D02*
X279576Y200837D01*
X281000Y202261D01*
X282424Y200837D01*
G75*
D01*
G02X279576Y200837I-1424J3163*
G01*
D02*
G37*
G36*
X186307Y231793D02*
X186307Y231793D01*
X187730Y230370D01*
X186307Y228946D01*
G75*
D01*
G02X186307Y231793I3163J1424*
G01*
D02*
G37*
G36*
X394506Y89340D02*
G75*
D01*
G02X391084Y89340I-1711J3802*
G01*
X391084Y89340D01*
X392795Y91051D01*
X394506Y89340D01*
D02*
G37*
G36*
X389163Y263424D02*
G75*
D01*
G02X389163Y260576I-3163J-1424*
G01*
X389163Y260576D01*
X387739Y262000D01*
X389163Y263424D01*
D02*
G37*
G36*
X387424Y258837D02*
G75*
D01*
G02X384576Y258837I-1424J3163*
G01*
X384576Y258837D01*
X386000Y260261D01*
X387424Y258837D01*
D02*
G37*
G36*
X384576Y265163D02*
G75*
D01*
G02X387424Y265163I1424J-3163*
G01*
X387424Y265163D01*
X386000Y263739D01*
X384576Y265163D01*
D02*
G37*
G36*
X384819Y262000D02*
G75*
D01*
G02X384819Y262000I1181J0*
G01*
D02*
G37*
G36*
X382837Y263424D02*
X382837Y263424D01*
X384261Y262000D01*
X382837Y260576D01*
G75*
D01*
G02X382837Y263424I3163J1424*
G01*
D02*
G37*
G36*
X388576Y143163D02*
G75*
D01*
G02X391424Y143163I1424J-3163*
G01*
X391424Y143163D01*
X390000Y141739D01*
X388576Y143163D01*
D02*
G37*
G36*
X391084Y96943D02*
G75*
D01*
G02X394506Y96943I1711J-3801*
G01*
X394506Y96943D01*
X392795Y95232D01*
X391084Y96943D01*
D02*
G37*
G36*
X388994Y112569D02*
X388994Y112569D01*
X390705Y110858D01*
X388994Y109147D01*
G75*
D01*
G02X388994Y112569I3801J1711*
G01*
D02*
G37*
G36*
X394506Y107057D02*
G75*
D01*
G02X391084Y107057I-1711J3801*
G01*
X391084Y107057D01*
X392795Y108768D01*
X394506Y107057D01*
D02*
G37*
G36*
X390827Y110858D02*
G75*
D01*
G02X390827Y110858I1968J0*
G01*
D02*
G37*
G36*
X396597Y112569D02*
G75*
D01*
G02X396597Y109147I-3802J-1711*
G01*
X396597Y109147D01*
X394886Y110858D01*
X396597Y112569D01*
D02*
G37*
G36*
X391084Y114660D02*
G75*
D01*
G02X394506Y114660I1711J-3802*
G01*
X394506Y114660D01*
X392795Y112949D01*
X391084Y114660D01*
D02*
G37*
G36*
X386837Y141424D02*
X386837Y141424D01*
X388261Y140000D01*
X386837Y138576D01*
G75*
D01*
G02X386837Y141424I3163J1424*
G01*
D02*
G37*
G36*
X393163Y141424D02*
G75*
D01*
G02X393163Y138576I-3163J-1424*
G01*
X393163Y138576D01*
X391739Y140000D01*
X393163Y141424D01*
D02*
G37*
G36*
X391424Y136837D02*
G75*
D01*
G02X388576Y136837I-1424J3163*
G01*
X388576Y136837D01*
X390000Y138261D01*
X391424Y136837D01*
D02*
G37*
G36*
X388819Y140000D02*
G75*
D01*
G02X388819Y140000I1181J0*
G01*
D02*
G37*
G36*
X17250Y303000D02*
G75*
D01*
G02X17250Y303000I7750J0*
G01*
D02*
G37*
G36*
X70199Y301711D02*
X70199Y301711D01*
X71910Y300000D01*
X70199Y298289D01*
G75*
D01*
G02X70199Y301711I3801J1711*
G01*
D02*
G37*
G36*
X77801Y301711D02*
G75*
D01*
G02X77801Y298289I-3801J-1711*
G01*
X77801Y298289D01*
X76090Y300000D01*
X77801Y301711D01*
D02*
G37*
G36*
X72031Y300000D02*
G75*
D01*
G02X72031Y300000I1969J0*
G01*
D02*
G37*
G36*
X75711Y296199D02*
G75*
D01*
G02X72289Y296199I-1711J3801*
G01*
X72289Y296199D01*
X74000Y297910D01*
X75711Y296199D01*
D02*
G37*
G36*
X45711Y306199D02*
G75*
D01*
G02X42289Y306199I-1711J3801*
G01*
X42289Y306199D01*
X44000Y307910D01*
X45711Y306199D01*
D02*
G37*
G36*
X72289Y303801D02*
G75*
D01*
G02X75711Y303801I1711J-3801*
G01*
X75711Y303801D01*
X74000Y302090D01*
X72289Y303801D01*
D02*
G37*
G36*
X47801Y311711D02*
G75*
D01*
G02X47801Y308289I-3801J-1711*
G01*
X47801Y308289D01*
X46090Y310000D01*
X47801Y311711D01*
D02*
G37*
G36*
X40199Y311711D02*
X40199Y311711D01*
X41910Y310000D01*
X40199Y308289D01*
G75*
D01*
G02X40199Y311711I3801J1711*
G01*
D02*
G37*
G36*
X42289Y313801D02*
G75*
D01*
G02X45711Y313801I1711J-3801*
G01*
X45711Y313801D01*
X44000Y312090D01*
X42289Y313801D01*
D02*
G37*
G36*
X42031Y310000D02*
G75*
D01*
G02X42031Y310000I1969J0*
G01*
D02*
G37*
G36*
X70199Y321711D02*
X70199Y321711D01*
X71910Y320000D01*
X70199Y318289D01*
G75*
D01*
G02X70199Y321711I3801J1711*
G01*
D02*
G37*
G36*
X72289Y323801D02*
G75*
D01*
G02X75711Y323801I1711J-3801*
G01*
X75711Y323801D01*
X74000Y322090D01*
X72289Y323801D01*
D02*
G37*
G36*
X77801Y321711D02*
G75*
D01*
G02X77801Y318289I-3801J-1711*
G01*
X77801Y318289D01*
X76090Y320000D01*
X77801Y321711D01*
D02*
G37*
G36*
X75711Y316199D02*
G75*
D01*
G02X72289Y316199I-1711J3801*
G01*
X72289Y316199D01*
X74000Y317910D01*
X75711Y316199D01*
D02*
G37*
G36*
X72031Y320000D02*
G75*
D01*
G02X72031Y320000I1969J0*
G01*
D02*
G37*
G36*
X288831Y310000D02*
G75*
D01*
G02X288831Y310000I4169J0*
G01*
D02*
G37*
G36*
X258831Y300000D02*
G75*
D01*
G02X258831Y300000I4169J0*
G01*
D02*
G37*
G36*
X258831Y320000D02*
G75*
D01*
G02X258831Y320000I4169J0*
G01*
D02*
G37*
G36*
X272910Y129717D02*
G75*
D01*
G02X272910Y129717I3184J0*
G01*
D02*
G37*
G36*
X261099Y129717D02*
G75*
D01*
G02X261099Y129717I3184J0*
G01*
D02*
G37*
G36*
X189163Y124424D02*
G75*
D01*
G02X189163Y121576I-3163J-1424*
G01*
X189163Y121576D01*
X187739Y123000D01*
X189163Y124424D01*
D02*
G37*
G36*
X272910Y117906D02*
G75*
D01*
G02X272910Y117906I3184J0*
G01*
D02*
G37*
G36*
X261099Y117906D02*
G75*
D01*
G02X261099Y117906I3184J0*
G01*
D02*
G37*
G36*
X272910Y106094D02*
G75*
D01*
G02X272910Y106094I3184J0*
G01*
D02*
G37*
G36*
X261099Y106094D02*
G75*
D01*
G02X261099Y106094I3184J0*
G01*
D02*
G37*
G36*
X204819Y105000D02*
G75*
D01*
G02X204819Y105000I1181J0*
G01*
D02*
G37*
G36*
X209163Y106424D02*
G75*
D01*
G02X209163Y103576I-3163J-1424*
G01*
X209163Y103576D01*
X207739Y105000D01*
X209163Y106424D01*
D02*
G37*
G36*
X202837Y106424D02*
X202837Y106424D01*
X204261Y105000D01*
X202837Y103576D01*
G75*
D01*
G02X202837Y106424I3163J1424*
G01*
D02*
G37*
G36*
X204576Y108163D02*
G75*
D01*
G02X207424Y108163I1424J-3163*
G01*
X207424Y108163D01*
X206000Y106739D01*
X204576Y108163D01*
D02*
G37*
G36*
X207424Y101837D02*
G75*
D01*
G02X204576Y101837I-1424J3163*
G01*
X204576Y101837D01*
X206000Y103261D01*
X207424Y101837D01*
D02*
G37*
G36*
X274010Y160827D02*
G75*
D01*
G02X269990Y160827I-2010J-2827*
G01*
X269990Y160827D01*
X269990Y161168D01*
X259352Y171806D01*
G75*
D01*
G02X258580Y178420I-1352J3194*
G01*
G75*
D01*
G02X262580Y182420I3420J580*
G01*
G75*
D01*
G02X269420Y182422I3420J580*
G01*
X269420Y182422D01*
X276422Y175420D01*
G75*
D01*
G02X276222Y168620I578J-3420*
G01*
X276222Y168620D01*
X276422Y168420D01*
G75*
D01*
G02X273580Y165578I578J-3420*
G01*
X273580Y165578D01*
X263352Y175806D01*
G75*
D01*
G02X261420Y175580I-1352J3194*
G01*
G74*
D01*
G02X261446Y175396I3420J580*
G01*
X261446Y175396D01*
X273419Y163423D01*
G74*
D01*
G02X274010Y162000I1419J1423*
G01*
X274010Y162000D01*
X274010Y160827D01*
D02*
G37*
G36*
X248576Y159163D02*
G75*
D01*
G02X251424Y159163I1424J-3163*
G01*
X251424Y159163D01*
X250000Y157739D01*
X248576Y159163D01*
D02*
G37*
G36*
X248819Y156000D02*
G75*
D01*
G02X248819Y156000I1181J0*
G01*
D02*
G37*
G36*
X251424Y152837D02*
G75*
D01*
G02X248576Y152837I-1424J3163*
G01*
X248576Y152837D01*
X250000Y154261D01*
X251424Y152837D01*
D02*
G37*
G36*
X246837Y157424D02*
X246837Y157424D01*
X248261Y156000D01*
X246837Y154576D01*
G75*
D01*
G02X246837Y157424I3163J1424*
G01*
D02*
G37*
G36*
X253163Y157424D02*
G75*
D01*
G02X253163Y154576I-3163J-1424*
G01*
X253163Y154576D01*
X251739Y156000D01*
X253163Y157424D01*
D02*
G37*
G36*
X204576Y143163D02*
G75*
D01*
G02X207424Y143163I1424J-3163*
G01*
X207424Y143163D01*
X206000Y141739D01*
X204576Y143163D01*
D02*
G37*
G36*
X204819Y140000D02*
G75*
D01*
G02X204819Y140000I1181J0*
G01*
D02*
G37*
G36*
X209163Y141424D02*
G75*
D01*
G02X209163Y138576I-3163J-1424*
G01*
X209163Y138576D01*
X207739Y140000D01*
X209163Y141424D01*
D02*
G37*
G36*
X202837Y141424D02*
X202837Y141424D01*
X204261Y140000D01*
X202837Y138576D01*
G75*
D01*
G02X202837Y141424I3163J1424*
G01*
D02*
G37*
G36*
X207424Y136837D02*
G75*
D01*
G02X204576Y136837I-1424J3163*
G01*
X204576Y136837D01*
X206000Y138261D01*
X207424Y136837D01*
D02*
G37*
G36*
X143450Y92957D02*
G74*
D01*
G02X144957Y91450I0J1507*
G01*
X144957Y91450D01*
X144957Y84550D01*
G75*
D01*
G02X143450Y83043I-1507J0*
G01*
X143450Y83043D01*
X136550Y83043D01*
G75*
D01*
G02X135043Y84550I0J1507*
G01*
X135043Y84550D01*
X135043Y91450D01*
G75*
D01*
G02X136550Y92957I1507J0*
G01*
X136550Y92957D01*
X143450Y92957D01*
D02*
G37*
G36*
X109837Y73424D02*
X109837Y73424D01*
X111261Y72000D01*
X109837Y70576D01*
G75*
D01*
G02X109837Y73424I3163J1424*
G01*
D02*
G37*
G36*
X116163Y73424D02*
G75*
D01*
G02X116163Y70576I-3163J-1424*
G01*
X116163Y70576D01*
X114739Y72000D01*
X116163Y73424D01*
D02*
G37*
G36*
X111819Y72000D02*
G75*
D01*
G02X111819Y72000I1181J0*
G01*
D02*
G37*
G36*
X114424Y68837D02*
G75*
D01*
G02X111576Y68837I-1424J3163*
G01*
X111576Y68837D01*
X113000Y70261D01*
X114424Y68837D01*
D02*
G37*
G36*
X111576Y75163D02*
G75*
D01*
G02X114424Y75163I1424J-3163*
G01*
X114424Y75163D01*
X113000Y73739D01*
X111576Y75163D01*
D02*
G37*
G36*
X254207Y35300D02*
G75*
D01*
G02X252700Y33793I-1507J0*
G01*
X252700Y33793D01*
X247300Y33793D01*
G75*
D01*
G02X245793Y35300I0J1507*
G01*
X245793Y35300D01*
X245793Y40700D01*
G75*
D01*
G02X247300Y42207I1507J0*
G01*
X247300Y42207D01*
X252700Y42207D01*
G74*
D01*
G02X254207Y40700I0J1507*
G01*
X254207Y40700D01*
X254207Y35300D01*
D02*
G37*
G36*
X255800Y38000D02*
G75*
D01*
G02X255800Y38000I4200J0*
G01*
D02*
G37*
G36*
X251424Y62837D02*
G75*
D01*
G02X248576Y62837I-1424J3163*
G01*
X248576Y62837D01*
X250000Y64261D01*
X251424Y62837D01*
D02*
G37*
G36*
X211978Y68000D02*
G75*
D01*
G02X208022Y68000I-1978J-1969*
G01*
G75*
D01*
G02X211978Y68000I1978J1969*
G01*
D02*
G37*
G36*
X253163Y67424D02*
G75*
D01*
G02X253163Y64576I-3163J-1424*
G01*
X253163Y64576D01*
X251739Y66000D01*
X253163Y67424D01*
D02*
G37*
G36*
X246837Y67424D02*
X246837Y67424D01*
X248261Y66000D01*
X246837Y64576D01*
G75*
D01*
G02X246837Y67424I3163J1424*
G01*
D02*
G37*
G36*
X248576Y69163D02*
G75*
D01*
G02X251424Y69163I1424J-3163*
G01*
X251424Y69163D01*
X250000Y67739D01*
X248576Y69163D01*
D02*
G37*
G36*
X248819Y66000D02*
G75*
D01*
G02X248819Y66000I1181J0*
G01*
D02*
G37*
G36*
X203837Y85424D02*
X203837Y85424D01*
X205261Y84000D01*
X203837Y82576D01*
G75*
D01*
G02X203837Y85424I3163J1424*
G01*
D02*
G37*
G36*
X205576Y87163D02*
G75*
D01*
G02X208424Y87163I1424J-3163*
G01*
X208424Y87163D01*
X207000Y85739D01*
X205576Y87163D01*
D02*
G37*
G36*
X210163Y85424D02*
G75*
D01*
G02X210163Y82576I-3163J-1424*
G01*
X210163Y82576D01*
X208739Y84000D01*
X210163Y85424D01*
D02*
G37*
G36*
X208424Y80837D02*
G75*
D01*
G02X205576Y80837I-1424J3163*
G01*
X205576Y80837D01*
X207000Y82261D01*
X208424Y80837D01*
D02*
G37*
G36*
X205819Y84000D02*
G75*
D01*
G02X205819Y84000I1181J0*
G01*
D02*
G37*
G36*
X228586Y85250D02*
X228586Y85250D01*
X230009Y83827D01*
X228586Y82403D01*
G75*
D01*
G02X228586Y85250I3163J1424*
G01*
D02*
G37*
G36*
X230325Y86989D02*
G75*
D01*
G02X233172Y86989I1424J-3162*
G01*
X233172Y86989D01*
X231749Y85566D01*
X230325Y86989D01*
D02*
G37*
G36*
X234912Y85250D02*
G75*
D01*
G02X234912Y82403I-3163J-1423*
G01*
X234912Y82403D01*
X233488Y83827D01*
X234912Y85250D01*
D02*
G37*
G36*
X233172Y80664D02*
G75*
D01*
G02X230325Y80664I-1423J3163*
G01*
X230325Y80664D01*
X231749Y82087D01*
X233172Y80664D01*
D02*
G37*
G36*
X230568Y83827D02*
G75*
D01*
G02X230568Y83827I1181J0*
G01*
D02*
G37*
G36*
X17250Y25000D02*
G75*
D01*
G02X17250Y25000I7750J0*
G01*
D02*
G37*
G36*
X68837Y71424D02*
X68837Y71424D01*
X70261Y70000D01*
X68837Y68576D01*
G75*
D01*
G02X68837Y71424I3163J1424*
G01*
D02*
G37*
G36*
X73424Y66837D02*
G75*
D01*
G02X70576Y66837I-1424J3163*
G01*
X70576Y66837D01*
X72000Y68261D01*
X73424Y66837D01*
D02*
G37*
G36*
X70819Y70000D02*
G75*
D01*
G02X70819Y70000I1181J0*
G01*
D02*
G37*
G36*
X75163Y71424D02*
G75*
D01*
G02X75163Y68576I-3163J-1424*
G01*
X75163Y68576D01*
X73739Y70000D01*
X75163Y71424D01*
D02*
G37*
G36*
X70576Y73163D02*
G75*
D01*
G02X73424Y73163I1424J-3163*
G01*
X73424Y73163D01*
X72000Y71739D01*
X70576Y73163D01*
D02*
G37*
G36*
X105626Y111000D02*
G75*
D01*
G02X105626Y111000I9374J0*
G01*
D02*
G37*
G36*
X141422Y110457D02*
G75*
D01*
G02X141422Y110457I3578J0*
G01*
D02*
G37*
G36*
X151837Y119424D02*
X151837Y119424D01*
X153261Y118000D01*
X151837Y116576D01*
G75*
D01*
G02X151837Y119424I3163J1424*
G01*
D02*
G37*
G36*
X158163Y119424D02*
G75*
D01*
G02X158163Y116576I-3163J-1424*
G01*
X158163Y116576D01*
X156739Y118000D01*
X158163Y119424D01*
D02*
G37*
G36*
X153819Y118000D02*
G75*
D01*
G02X153819Y118000I1181J0*
G01*
D02*
G37*
G36*
X156424Y114837D02*
G75*
D01*
G02X153576Y114837I-1424J3163*
G01*
X153576Y114837D01*
X155000Y116261D01*
X156424Y114837D01*
D02*
G37*
G36*
X153576Y121163D02*
G75*
D01*
G02X156424Y121163I1424J-3163*
G01*
X156424Y121163D01*
X155000Y119739D01*
X153576Y121163D01*
D02*
G37*
G36*
X182837Y124424D02*
X182837Y124424D01*
X184261Y123000D01*
X182837Y121576D01*
G75*
D01*
G02X182837Y124424I3163J1424*
G01*
D02*
G37*
G36*
X187424Y119837D02*
G75*
D01*
G02X184576Y119837I-1424J3163*
G01*
X184576Y119837D01*
X186000Y121261D01*
X187424Y119837D01*
D02*
G37*
G36*
X184819Y123000D02*
G75*
D01*
G02X184819Y123000I1181J0*
G01*
D02*
G37*
G36*
X158163Y131424D02*
G75*
D01*
G02X158163Y128576I-3163J-1424*
G01*
X158163Y128576D01*
X156739Y130000D01*
X158163Y131424D01*
D02*
G37*
G36*
X151837Y131424D02*
X151837Y131424D01*
X153261Y130000D01*
X151837Y128576D01*
G75*
D01*
G02X151837Y131424I3163J1424*
G01*
D02*
G37*
G36*
X153576Y133163D02*
G75*
D01*
G02X156424Y133163I1424J-3163*
G01*
X156424Y133163D01*
X155000Y131739D01*
X153576Y133163D01*
D02*
G37*
G36*
X156424Y126837D02*
G75*
D01*
G02X153576Y126837I-1424J3163*
G01*
X153576Y126837D01*
X155000Y128261D01*
X156424Y126837D01*
D02*
G37*
G36*
X153819Y130000D02*
G75*
D01*
G02X153819Y130000I1181J0*
G01*
D02*
G37*
G36*
X167173Y176010D02*
G75*
D01*
G02X167173Y171990I2827J-2010*
G01*
X167173Y171990D01*
X153827Y171990D01*
G75*
D01*
G02X153827Y176010I-2827J2010*
G01*
X153827Y176010D01*
X167173Y176010D01*
D02*
G37*
G36*
X167173Y185010D02*
G75*
D01*
G02X167173Y180990I2827J-2010*
G01*
X167173Y180990D01*
X153827Y180990D01*
G75*
D01*
G02X153827Y185010I-2827J2010*
G01*
X153827Y185010D01*
X167173Y185010D01*
D02*
G37*
G36*
X286170Y39724D02*
X286170Y39724D01*
X287894Y38000D01*
X286170Y36276D01*
G75*
D01*
G02X286170Y39724I3830J1724*
G01*
D02*
G37*
G36*
X291724Y34170D02*
G75*
D01*
G02X288276Y34170I-1724J3830*
G01*
X288276Y34170D01*
X290000Y35894D01*
X291724Y34170D01*
D02*
G37*
G36*
X288000Y38000D02*
G75*
D01*
G02X288000Y38000I2000J0*
G01*
D02*
G37*
G36*
X293830Y39724D02*
G75*
D01*
G02X293830Y36276I-3830J-1724*
G01*
X293830Y36276D01*
X292106Y38000D01*
X293830Y39724D01*
D02*
G37*
G36*
X288276Y41830D02*
G75*
D01*
G02X291724Y41830I1724J-3830*
G01*
X291724Y41830D01*
X290000Y40106D01*
X288276Y41830D01*
D02*
G37*
G36*
X308424Y75837D02*
G75*
D01*
G02X305576Y75837I-1424J3163*
G01*
X305576Y75837D01*
X307000Y77261D01*
X308424Y75837D01*
D02*
G37*
G36*
X305819Y79000D02*
G75*
D01*
G02X305819Y79000I1181J0*
G01*
D02*
G37*
G36*
X310163Y80424D02*
G75*
D01*
G02X310163Y77576I-3163J-1424*
G01*
X310163Y77576D01*
X308739Y79000D01*
X310163Y80424D01*
D02*
G37*
G36*
X332466Y84129D02*
G75*
D01*
G02X332163Y82576I-3466J-129*
G01*
X332163Y82576D01*
X330739Y84000D01*
X332163Y85424D01*
G74*
D01*
G02X332349Y84904I3163J1424*
G01*
G75*
D01*
G02X336124Y84719I1651J-4904*
G01*
X336124Y84719D01*
X334358Y82953D01*
G74*
D01*
G02X336953Y80358I358J2953*
G01*
X336953Y80358D01*
X338719Y82124D01*
G75*
D01*
G02X338719Y77876I-4719J-2124*
G01*
X338719Y77876D01*
X336953Y79642D01*
G74*
D01*
G02X334358Y77047I2953J358*
G01*
X334358Y77047D01*
X336124Y75281D01*
G75*
D01*
G02X331876Y75281I-2124J4719*
G01*
X331876Y75281D01*
X333642Y77047D01*
G74*
D01*
G02X331047Y79642I358J2953*
G01*
X331047Y79642D01*
X329281Y77876D01*
G75*
D01*
G02X328853Y80535I4719J2124*
G01*
G74*
D01*
G02X327576Y80837I147J3465*
G01*
X327576Y80837D01*
X329000Y82261D01*
X329237Y82023D01*
G74*
D01*
G02X329281Y82124I4763J2023*
G01*
X329281Y82124D01*
X331047Y80358D01*
G74*
D01*
G02X333642Y82953I2953J358*
G01*
X333642Y82953D01*
X332466Y84129D01*
D02*
G37*
G36*
X353642Y82953D02*
X353642Y82953D01*
X351876Y84719D01*
G75*
D01*
G02X356124Y84719I2124J-4719*
G01*
X356124Y84719D01*
X354358Y82953D01*
G74*
D01*
G02X356953Y80358I358J2953*
G01*
X356953Y80358D01*
X358719Y82124D01*
G75*
D01*
G02X358719Y77876I-4719J-2124*
G01*
X358719Y77876D01*
X356953Y79642D01*
G74*
D01*
G02X354358Y77047I2953J358*
G01*
X354358Y77047D01*
X356124Y75281D01*
G75*
D01*
G02X351876Y75281I-2124J4719*
G01*
X351876Y75281D01*
X353642Y77047D01*
G74*
D01*
G02X351047Y79642I358J2953*
G01*
X351047Y79642D01*
X349281Y77876D01*
G75*
D01*
G02X349281Y82124I4719J2124*
G01*
X349281Y82124D01*
X351047Y80358D01*
G74*
D01*
G02X353642Y82953I2953J358*
G01*
D02*
G37*
G36*
X307954Y81693D02*
X307954Y81693D01*
X307000Y80739D01*
X305576Y82163D01*
G75*
D01*
G02X308046Y82307I1424J-3163*
G01*
X308046Y82307D01*
X309000Y83261D01*
X310424Y81837D01*
G75*
D01*
G02X307954Y81693I-1424J3163*
G01*
D02*
G37*
G36*
X305837Y86424D02*
X305837Y86424D01*
X307261Y85000D01*
X305837Y83576D01*
G75*
D01*
G02X305837Y86424I3163J1424*
G01*
D02*
G37*
G36*
X312163Y86424D02*
G75*
D01*
G02X312163Y83576I-3163J-1424*
G01*
X312163Y83576D01*
X310739Y85000D01*
X312163Y86424D01*
D02*
G37*
G36*
X307819Y85000D02*
G75*
D01*
G02X307819Y85000I1181J0*
G01*
D02*
G37*
G36*
X322576Y87163D02*
G75*
D01*
G02X325424Y87163I1424J-3163*
G01*
X325424Y87163D01*
X324000Y85739D01*
X322576Y87163D01*
D02*
G37*
G36*
X325424Y80837D02*
G75*
D01*
G02X322576Y80837I-1424J3163*
G01*
X322576Y80837D01*
X324000Y82261D01*
X325424Y80837D01*
D02*
G37*
G36*
X322819Y84000D02*
G75*
D01*
G02X322819Y84000I1181J0*
G01*
D02*
G37*
G36*
X317576Y87163D02*
G75*
D01*
G02X320424Y87163I1424J-3163*
G01*
X320424Y87163D01*
X319000Y85739D01*
X317576Y87163D01*
D02*
G37*
G36*
X320837Y85424D02*
X320837Y85424D01*
X321500Y84761D01*
X322163Y85424D01*
G75*
D01*
G02X322163Y82576I-3163J-1424*
G01*
X322163Y82576D01*
X321500Y83239D01*
X320837Y82576D01*
G75*
D01*
G02X320837Y85424I3163J1424*
G01*
D02*
G37*
G36*
X315837Y85424D02*
X315837Y85424D01*
X317261Y84000D01*
X315837Y82576D01*
G75*
D01*
G02X315837Y85424I3163J1424*
G01*
D02*
G37*
G36*
X320424Y80837D02*
G75*
D01*
G02X317576Y80837I-1424J3163*
G01*
X317576Y80837D01*
X319000Y82261D01*
X320424Y80837D01*
D02*
G37*
G36*
X317819Y84000D02*
G75*
D01*
G02X317819Y84000I1181J0*
G01*
D02*
G37*
G36*
X327576Y87163D02*
G75*
D01*
G02X330424Y87163I1424J-3163*
G01*
X330424Y87163D01*
X329000Y85739D01*
X327576Y87163D01*
D02*
G37*
G36*
X327163Y85424D02*
G75*
D01*
G02X327163Y82576I-3163J-1424*
G01*
X327163Y82576D01*
X326500Y83239D01*
X325837Y82576D01*
G75*
D01*
G02X325837Y85424I3163J1424*
G01*
X325837Y85424D01*
X326500Y84761D01*
X327163Y85424D01*
D02*
G37*
G36*
X327819Y84000D02*
G75*
D01*
G02X327819Y84000I1181J0*
G01*
D02*
G37*
G36*
X307576Y88163D02*
G75*
D01*
G02X310424Y88163I1424J-3163*
G01*
X310424Y88163D01*
X309000Y86739D01*
X307576Y88163D01*
D02*
G37*
G36*
X74819Y247000D02*
G75*
D01*
G02X74819Y247000I1181J0*
G01*
D02*
G37*
G36*
X59424Y211837D02*
G75*
D01*
G02X56576Y211837I-1424J3163*
G01*
X56576Y211837D01*
X58000Y213261D01*
X59424Y211837D01*
D02*
G37*
G36*
X69424Y211837D02*
G75*
D01*
G02X66576Y211837I-1424J3163*
G01*
X66576Y211837D01*
X68000Y213261D01*
X69424Y211837D01*
D02*
G37*
G36*
X42837Y221424D02*
X42837Y221424D01*
X44261Y220000D01*
X42837Y218576D01*
G75*
D01*
G02X42837Y221424I3163J1424*
G01*
D02*
G37*
G36*
X47424Y216837D02*
G75*
D01*
G02X44576Y216837I-1424J3163*
G01*
X44576Y216837D01*
X46000Y218261D01*
X47424Y216837D01*
D02*
G37*
G36*
X44819Y220000D02*
G75*
D01*
G02X44819Y220000I1181J0*
G01*
D02*
G37*
G36*
X54837Y216424D02*
X54837Y216424D01*
X56261Y215000D01*
X54837Y213576D01*
G75*
D01*
G02X54837Y216424I3163J1424*
G01*
D02*
G37*
G36*
X49163Y221424D02*
G75*
D01*
G02X49163Y218576I-3163J-1424*
G01*
X49163Y218576D01*
X47739Y220000D01*
X49163Y221424D01*
D02*
G37*
G36*
X56576Y218163D02*
G75*
D01*
G02X59424Y218163I1424J-3163*
G01*
X59424Y218163D01*
X58000Y216739D01*
X56576Y218163D01*
D02*
G37*
G36*
X61163Y216424D02*
G75*
D01*
G02X61163Y213576I-3163J-1424*
G01*
X61163Y213576D01*
X59739Y215000D01*
X61163Y216424D01*
D02*
G37*
G36*
X56819Y215000D02*
G75*
D01*
G02X56819Y215000I1181J0*
G01*
D02*
G37*
G36*
X71163Y216424D02*
G75*
D01*
G02X71163Y213576I-3163J-1424*
G01*
X71163Y213576D01*
X69739Y215000D01*
X71163Y216424D01*
D02*
G37*
G36*
X64837Y216424D02*
X64837Y216424D01*
X66261Y215000D01*
X64837Y213576D01*
G75*
D01*
G02X64837Y216424I3163J1424*
G01*
D02*
G37*
G36*
X66576Y218163D02*
G75*
D01*
G02X69424Y218163I1424J-3163*
G01*
X69424Y218163D01*
X68000Y216739D01*
X66576Y218163D01*
D02*
G37*
G36*
X66819Y215000D02*
G75*
D01*
G02X66819Y215000I1181J0*
G01*
D02*
G37*
G36*
X44576Y223163D02*
G75*
D01*
G02X47424Y223163I1424J-3163*
G01*
X47424Y223163D01*
X46000Y221739D01*
X44576Y223163D01*
D02*
G37*
G36*
X36576Y236163D02*
G75*
D01*
G02X39424Y236163I1424J-3163*
G01*
X39424Y236163D01*
X38000Y234739D01*
X36576Y236163D01*
D02*
G37*
G36*
X39424Y229837D02*
G75*
D01*
G02X36576Y229837I-1424J3163*
G01*
X36576Y229837D01*
X38000Y231261D01*
X39424Y229837D01*
D02*
G37*
G36*
X34837Y234424D02*
X34837Y234424D01*
X36261Y233000D01*
X34837Y231576D01*
G75*
D01*
G02X34837Y234424I3163J1424*
G01*
D02*
G37*
G36*
X36819Y233000D02*
G75*
D01*
G02X36819Y233000I1181J0*
G01*
D02*
G37*
G36*
X41163Y234424D02*
G75*
D01*
G02X41163Y231576I-3163J-1424*
G01*
X41163Y231576D01*
X39739Y233000D01*
X41163Y234424D01*
D02*
G37*
G36*
X77424Y243837D02*
G75*
D01*
G02X74576Y243837I-1424J3163*
G01*
X74576Y243837D01*
X76000Y245261D01*
X77424Y243837D01*
D02*
G37*
G36*
X38837Y249424D02*
X38837Y249424D01*
X40261Y248000D01*
X38837Y246576D01*
G75*
D01*
G02X38837Y249424I3163J1424*
G01*
D02*
G37*
G36*
X40576Y251163D02*
G75*
D01*
G02X43424Y251163I1424J-3163*
G01*
X43424Y251163D01*
X42000Y249739D01*
X40576Y251163D01*
D02*
G37*
G36*
X45163Y249424D02*
G75*
D01*
G02X45163Y246576I-3163J-1424*
G01*
X45163Y246576D01*
X43739Y248000D01*
X45163Y249424D01*
D02*
G37*
G36*
X43424Y244837D02*
G75*
D01*
G02X40576Y244837I-1424J3163*
G01*
X40576Y244837D01*
X42000Y246261D01*
X43424Y244837D01*
D02*
G37*
G36*
X40819Y248000D02*
G75*
D01*
G02X40819Y248000I1181J0*
G01*
D02*
G37*
G36*
X79163Y248424D02*
G75*
D01*
G02X79163Y245576I-3163J-1424*
G01*
X79163Y245576D01*
X77739Y247000D01*
X79163Y248424D01*
D02*
G37*
G36*
X72837Y248424D02*
X72837Y248424D01*
X74261Y247000D01*
X72837Y245576D01*
G75*
D01*
G02X72837Y248424I3163J1424*
G01*
D02*
G37*
G36*
X74576Y250163D02*
G75*
D01*
G02X77424Y250163I1424J-3163*
G01*
X77424Y250163D01*
X76000Y248739D01*
X74576Y250163D01*
D02*
G37*
G36*
X85819Y179000D02*
G75*
D01*
G02X85819Y179000I1181J0*
G01*
D02*
G37*
G36*
X22917Y122000D02*
G75*
D01*
G02X22917Y122000I5083J0*
G01*
D02*
G37*
G36*
X62917Y122000D02*
G75*
D01*
G02X62917Y122000I5083J0*
G01*
D02*
G37*
G36*
X45576Y174163D02*
G75*
D01*
G02X48424Y174163I1424J-3163*
G01*
X48424Y174163D01*
X47000Y172739D01*
X45576Y174163D01*
D02*
G37*
G36*
X48424Y167837D02*
G75*
D01*
G02X45576Y167837I-1424J3163*
G01*
X45576Y167837D01*
X47000Y169261D01*
X48424Y167837D01*
D02*
G37*
G36*
X45819Y171000D02*
G75*
D01*
G02X45819Y171000I1181J0*
G01*
D02*
G37*
G36*
X43837Y172424D02*
X43837Y172424D01*
X45261Y171000D01*
X43837Y169576D01*
G75*
D01*
G02X43837Y172424I3163J1424*
G01*
D02*
G37*
G36*
X50163Y172424D02*
G75*
D01*
G02X50163Y169576I-3163J-1424*
G01*
X50163Y169576D01*
X48739Y171000D01*
X50163Y172424D01*
D02*
G37*
G36*
X78173Y176010D02*
G75*
D01*
G02X78173Y171990I2827J-2010*
G01*
X78173Y171990D01*
X67827Y171990D01*
G75*
D01*
G02X67827Y176010I-2827J2010*
G01*
X67827Y176010D01*
X78173Y176010D01*
D02*
G37*
G36*
X88424Y175837D02*
G75*
D01*
G02X85576Y175837I-1424J3163*
G01*
X85576Y175837D01*
X87000Y177261D01*
X88424Y175837D01*
D02*
G37*
G36*
X83837Y180424D02*
X83837Y180424D01*
X85261Y179000D01*
X83837Y177576D01*
G75*
D01*
G02X83837Y180424I3163J1424*
G01*
D02*
G37*
G36*
X284163Y205424D02*
G75*
D01*
G02X284163Y202576I-3163J-1424*
G01*
X284163Y202576D01*
X282739Y204000D01*
X284163Y205424D01*
D02*
G37*
G36*
X311837Y215424D02*
X311837Y215424D01*
X313261Y214000D01*
X311837Y212576D01*
G75*
D01*
G02X311837Y215424I3163J1424*
G01*
D02*
G37*
G36*
X316424Y210837D02*
G75*
D01*
G02X313576Y210837I-1424J3163*
G01*
X313576Y210837D01*
X315000Y212261D01*
X316424Y210837D01*
D02*
G37*
G36*
X318163Y215424D02*
G75*
D01*
G02X318163Y212576I-3163J-1424*
G01*
X318163Y212576D01*
X316739Y214000D01*
X318163Y215424D01*
D02*
G37*
G36*
X313576Y217163D02*
G75*
D01*
G02X316424Y217163I1424J-3163*
G01*
X316424Y217163D01*
X315000Y215739D01*
X313576Y217163D01*
D02*
G37*
G36*
X313819Y214000D02*
G75*
D01*
G02X313819Y214000I1181J0*
G01*
D02*
G37*
G36*
X291837Y230424D02*
X291837Y230424D01*
X293261Y229000D01*
X291837Y227576D01*
G75*
D01*
G02X291837Y230424I3163J1424*
G01*
D02*
G37*
G36*
X298163Y230424D02*
G75*
D01*
G02X298163Y227576I-3163J-1424*
G01*
X298163Y227576D01*
X296739Y229000D01*
X298163Y230424D01*
D02*
G37*
G36*
X293819Y229000D02*
G75*
D01*
G02X293819Y229000I1181J0*
G01*
D02*
G37*
G36*
X296424Y225837D02*
G75*
D01*
G02X293576Y225837I-1424J3163*
G01*
X293576Y225837D01*
X295000Y227261D01*
X296424Y225837D01*
D02*
G37*
G36*
X293576Y232163D02*
G75*
D01*
G02X296424Y232163I1424J-3163*
G01*
X296424Y232163D01*
X295000Y230739D01*
X293576Y232163D01*
D02*
G37*
G36*
X354957Y230550D02*
G75*
D01*
G02X353450Y229043I-1507J0*
G01*
X353450Y229043D01*
X346550Y229043D01*
G75*
D01*
G02X345043Y230550I0J1507*
G01*
X345043Y230550D01*
X345043Y237450D01*
G75*
D01*
G02X346550Y238957I1507J0*
G01*
X346550Y238957D01*
X353450Y238957D01*
G74*
D01*
G02X354957Y237450I0J1507*
G01*
X354957Y237450D01*
X354957Y230550D01*
D02*
G37*
G36*
X322837Y261424D02*
X322837Y261424D01*
X324261Y260000D01*
X322837Y258576D01*
G75*
D01*
G02X322837Y261424I3163J1424*
G01*
D02*
G37*
G36*
X329163Y261424D02*
G75*
D01*
G02X329163Y258576I-3163J-1424*
G01*
X329163Y258576D01*
X327739Y260000D01*
X329163Y261424D01*
D02*
G37*
G36*
X324819Y260000D02*
G75*
D01*
G02X324819Y260000I1181J0*
G01*
D02*
G37*
G36*
X327424Y256837D02*
G75*
D01*
G02X324576Y256837I-1424J3163*
G01*
X324576Y256837D01*
X326000Y258261D01*
X327424Y256837D01*
D02*
G37*
G36*
X324576Y263163D02*
G75*
D01*
G02X327424Y263163I1424J-3163*
G01*
X327424Y263163D01*
X326000Y261739D01*
X324576Y263163D01*
D02*
G37*
G36*
X205307Y205793D02*
X205307Y205793D01*
X206730Y204370D01*
X205307Y202946D01*
G75*
D01*
G02X205307Y205793I3163J1424*
G01*
D02*
G37*
G36*
X211633Y205793D02*
G75*
D01*
G02X211633Y202946I-3163J-1423*
G01*
X211633Y202946D01*
X210209Y204370D01*
X211633Y205793D01*
D02*
G37*
G36*
X207289Y204370D02*
G75*
D01*
G02X207289Y204370I1181J0*
G01*
D02*
G37*
G36*
X209893Y201207D02*
G75*
D01*
G02X207046Y201207I-1423J3163*
G01*
X207046Y201207D01*
X208470Y202630D01*
X209893Y201207D01*
D02*
G37*
G36*
X277837Y205424D02*
X277837Y205424D01*
X279261Y204000D01*
X277837Y202576D01*
G75*
D01*
G02X277837Y205424I3163J1424*
G01*
D02*
G37*
G36*
X207046Y207533D02*
G75*
D01*
G02X209893Y207533I1424J-3163*
G01*
X209893Y207533D01*
X208470Y206109D01*
X207046Y207533D01*
D02*
G37*
G36*
X190893Y227207D02*
G75*
D01*
G02X188046Y227207I-1423J3163*
G01*
X188046Y227207D01*
X189470Y228630D01*
X190893Y227207D01*
D02*
G37*
G36*
X188046Y233533D02*
G75*
D01*
G02X190893Y233533I1424J-3163*
G01*
X190893Y233533D01*
X189470Y232109D01*
X188046Y233533D01*
D02*
G37*
G36*
X188289Y230370D02*
G75*
D01*
G02X188289Y230370I1181J0*
G01*
D02*
G37*
G36*
X192633Y231793D02*
G75*
D01*
G02X192633Y228946I-3163J-1423*
G01*
X192633Y228946D01*
X191209Y230370D01*
X192633Y231793D01*
D02*
G37*
G36*
X265576Y236163D02*
G75*
D01*
G02X268424Y236163I1424J-3163*
G01*
X268424Y236163D01*
X267000Y234739D01*
X265576Y236163D01*
D02*
G37*
G36*
X268424Y229837D02*
G75*
D01*
G02X265576Y229837I-1424J3163*
G01*
X265576Y229837D01*
X267000Y231261D01*
X268424Y229837D01*
D02*
G37*
G36*
X265819Y233000D02*
G75*
D01*
G02X265819Y233000I1181J0*
G01*
D02*
G37*
G36*
X263837Y234424D02*
X263837Y234424D01*
X265261Y233000D01*
X263837Y231576D01*
G75*
D01*
G02X263837Y234424I3163J1424*
G01*
D02*
G37*
G36*
X270163Y234424D02*
G75*
D01*
G02X270163Y231576I-3163J-1424*
G01*
X270163Y231576D01*
X268739Y233000D01*
X270163Y234424D01*
D02*
G37*
G36*
X357576Y187163D02*
G75*
D01*
G02X360424Y187163I1424J-3163*
G01*
X360424Y187163D01*
X359000Y185739D01*
X357576Y187163D01*
D02*
G37*
G36*
X355837Y185424D02*
X355837Y185424D01*
X357261Y184000D01*
X355837Y182576D01*
G75*
D01*
G02X355837Y185424I3163J1424*
G01*
D02*
G37*
G36*
X362163Y185424D02*
G75*
D01*
G02X362163Y182576I-3163J-1424*
G01*
X362163Y182576D01*
X360739Y184000D01*
X362163Y185424D01*
D02*
G37*
G36*
X360424Y180837D02*
G75*
D01*
G02X357576Y180837I-1424J3163*
G01*
X357576Y180837D01*
X359000Y182261D01*
X360424Y180837D01*
D02*
G37*
G36*
X350042Y170000D02*
G75*
D01*
G02X350042Y170000I1958J0*
G01*
D02*
G37*
G36*
X349910Y165645D02*
X349910Y165645D01*
X352000Y167735D01*
X354090Y165645D01*
G74*
D01*
G02X353042Y165483I1048J3314*
G01*
X353042Y165483D01*
X350959Y165483D01*
G75*
D01*
G02X349910Y165645I0J3476*
G01*
D02*
G37*
G36*
X347645Y172090D02*
X347645Y172090D01*
X349735Y170000D01*
X347645Y167910D01*
G75*
D01*
G02X347483Y168959I3314J1049*
G01*
X347483Y168959D01*
X347483Y171042D01*
G74*
D01*
G02X347645Y172090I3476J0*
G01*
D02*
G37*
G36*
X354090Y174355D02*
X354090Y174355D01*
X352000Y172265D01*
X349910Y174355D01*
G75*
D01*
G02X350959Y174517I1049J-3313*
G01*
X350959Y174517D01*
X353042Y174517D01*
G74*
D01*
G02X354090Y174355I0J3475*
G01*
D02*
G37*
G36*
X356355Y172090D02*
G74*
D01*
G02X356517Y171042I3313J1048*
G01*
X356517Y171042D01*
X356517Y168959D01*
G75*
D01*
G02X356355Y167910I-3475J0*
G01*
X356355Y167910D01*
X354265Y170000D01*
X356355Y172090D01*
D02*
G37*
G36*
X304827Y152990D02*
G75*
D01*
G02X304827Y157010I-2827J2010*
G01*
X304827Y157010D01*
X306168Y157010D01*
X317601Y168443D01*
G75*
D01*
G02X320443Y165601I4399J1557*
G01*
X320443Y165601D01*
X308423Y153581D01*
G74*
D01*
G02X307000Y152990I1423J1419*
G01*
X307000Y152990D01*
X304827Y152990D01*
D02*
G37*
G36*
X307788Y172010D02*
G75*
D01*
G02X307802Y167960I4212J-2010*
G01*
X307802Y167960D01*
X299420Y159578D01*
G75*
D01*
G02X296578Y162420I-3420J-578*
G01*
X296578Y162420D01*
X305579Y171421D01*
G74*
D01*
G02X306612Y171972I1421J1421*
G01*
G75*
D01*
G02X307000Y172010I388J-1972*
G01*
X307000Y172010D01*
X307788Y172010D01*
D02*
G37*
G36*
X319576Y153163D02*
G75*
D01*
G02X322424Y153163I1424J-3163*
G01*
X322424Y153163D01*
X321000Y151739D01*
X319576Y153163D01*
D02*
G37*
G36*
X337333Y170000D02*
G75*
D01*
G02X337333Y170000I4667J0*
G01*
D02*
G37*
G36*
X327333Y170000D02*
G75*
D01*
G02X327333Y170000I4667J0*
G01*
D02*
G37*
G36*
X359576Y143163D02*
G75*
D01*
G02X362424Y143163I1424J-3163*
G01*
X362424Y143163D01*
X361000Y141739D01*
X359576Y143163D01*
D02*
G37*
G36*
X322424Y146837D02*
G75*
D01*
G02X319576Y146837I-1424J3163*
G01*
X319576Y146837D01*
X321000Y148261D01*
X322424Y146837D01*
D02*
G37*
G36*
X319819Y150000D02*
G75*
D01*
G02X319819Y150000I1181J0*
G01*
D02*
G37*
G36*
X324163Y151424D02*
G75*
D01*
G02X324163Y148576I-3163J-1424*
G01*
X324163Y148576D01*
X322739Y150000D01*
X324163Y151424D01*
D02*
G37*
G36*
X317837Y151424D02*
X317837Y151424D01*
X319261Y150000D01*
X317837Y148576D01*
G75*
D01*
G02X317837Y151424I3163J1424*
G01*
D02*
G37*
G36*
X364163Y141424D02*
G75*
D01*
G02X364163Y138576I-3163J-1424*
G01*
X364163Y138576D01*
X362739Y140000D01*
X364163Y141424D01*
D02*
G37*
G36*
X359819Y140000D02*
G75*
D01*
G02X359819Y140000I1181J0*
G01*
D02*
G37*
G36*
X357837Y141424D02*
X357837Y141424D01*
X359261Y140000D01*
X357837Y138576D01*
G75*
D01*
G02X357837Y141424I3163J1424*
G01*
D02*
G37*
G36*
X362424Y136837D02*
G75*
D01*
G02X359576Y136837I-1424J3163*
G01*
X359576Y136837D01*
X361000Y138261D01*
X362424Y136837D01*
D02*
G37*
G36*
X306576Y130163D02*
G75*
D01*
G02X309424Y130163I1424J-3163*
G01*
X309424Y130163D01*
X308000Y128739D01*
X306576Y130163D01*
D02*
G37*
G36*
X284721Y129717D02*
G75*
D01*
G02X284721Y129717I3185J0*
G01*
D02*
G37*
G36*
X356163Y121424D02*
G75*
D01*
G02X356163Y118576I-3163J-1424*
G01*
X356163Y118576D01*
X354739Y120000D01*
X356163Y121424D01*
D02*
G37*
G36*
X351819Y120000D02*
G75*
D01*
G02X351819Y120000I1181J0*
G01*
D02*
G37*
G36*
X349837Y121424D02*
X349837Y121424D01*
X351261Y120000D01*
X349837Y118576D01*
G75*
D01*
G02X349837Y121424I3163J1424*
G01*
D02*
G37*
G36*
X351576Y123163D02*
G75*
D01*
G02X354424Y123163I1424J-3163*
G01*
X354424Y123163D01*
X353000Y121739D01*
X351576Y123163D01*
D02*
G37*
G36*
X311163Y128424D02*
G75*
D01*
G02X311163Y125576I-3163J-1424*
G01*
X311163Y125576D01*
X309739Y127000D01*
X311163Y128424D01*
D02*
G37*
G36*
X306819Y127000D02*
G75*
D01*
G02X306819Y127000I1181J0*
G01*
D02*
G37*
G36*
X309424Y123837D02*
G75*
D01*
G02X306576Y123837I-1424J3163*
G01*
X306576Y123837D01*
X308000Y125261D01*
X309424Y123837D01*
D02*
G37*
G36*
X304837Y128424D02*
X304837Y128424D01*
X306261Y127000D01*
X304837Y125576D01*
G75*
D01*
G02X304837Y128424I3163J1424*
G01*
D02*
G37*
G36*
X354424Y116837D02*
G75*
D01*
G02X351576Y116837I-1424J3163*
G01*
X351576Y116837D01*
X353000Y118261D01*
X354424Y116837D01*
D02*
G37*
G36*
X284721Y117906D02*
G75*
D01*
G02X284721Y117906I3185J0*
G01*
D02*
G37*
G36*
X363036Y110858D02*
G75*
D01*
G02X363036Y110858I4169J0*
G01*
D02*
G37*
G36*
X284721Y106094D02*
G75*
D01*
G02X284721Y106094I3185J0*
G01*
D02*
G37*
G36*
X353642Y102953D02*
X353642Y102953D01*
X351876Y104719D01*
G75*
D01*
G02X356124Y104719I2124J-4719*
G01*
X356124Y104719D01*
X354358Y102953D01*
G74*
D01*
G02X356953Y100358I358J2953*
G01*
X356953Y100358D01*
X358719Y102124D01*
G75*
D01*
G02X358719Y97876I-4719J-2124*
G01*
X358719Y97876D01*
X356953Y99642D01*
G74*
D01*
G02X354358Y97047I2953J358*
G01*
X354358Y97047D01*
X356124Y95281D01*
G75*
D01*
G02X351876Y95281I-2124J4719*
G01*
X351876Y95281D01*
X353642Y97047D01*
G74*
D01*
G02X351047Y99642I358J2953*
G01*
X351047Y99642D01*
X349281Y97876D01*
G75*
D01*
G02X349281Y102124I4719J2124*
G01*
X349281Y102124D01*
X351047Y100358D01*
G74*
D01*
G02X353642Y102953I2953J358*
G01*
D02*
G37*
G36*
X329058Y98468D02*
G75*
D01*
G02X329281Y102124I4942J1532*
G01*
X329281Y102124D01*
X331047Y100358D01*
G74*
D01*
G02X333642Y102953I2953J358*
G01*
X333642Y102953D01*
X331876Y104719D01*
G75*
D01*
G02X336124Y104719I2124J-4719*
G01*
X336124Y104719D01*
X334358Y102953D01*
G74*
D01*
G02X336953Y100358I358J2953*
G01*
X336953Y100358D01*
X338719Y102124D01*
G75*
D01*
G02X338719Y97876I-4719J-2124*
G01*
X338719Y97876D01*
X336953Y99642D01*
G74*
D01*
G02X334358Y97047I2953J358*
G01*
X334358Y97047D01*
X336124Y95281D01*
G75*
D01*
G02X332468Y95058I-2124J4719*
G01*
G75*
D01*
G02X332163Y93576I-3468J-58*
G01*
X332163Y93576D01*
X330739Y95000D01*
X332163Y96424D01*
G74*
D01*
G02X332379Y95784I3163J1424*
G01*
X332379Y95784D01*
X333642Y97047D01*
G74*
D01*
G02X331047Y99642I358J2953*
G01*
X331047Y99642D01*
X329784Y98379D01*
G74*
D01*
G02X330424Y98163I784J3379*
G01*
X330424Y98163D01*
X329000Y96739D01*
X327576Y98163D01*
G75*
D01*
G02X329058Y98468I1424J-3163*
G01*
D02*
G37*
G36*
X327819Y95000D02*
G75*
D01*
G02X327819Y95000I1181J0*
G01*
D02*
G37*
G36*
X317576Y98163D02*
G75*
D01*
G02X320424Y98163I1424J-3163*
G01*
X320424Y98163D01*
X319000Y96739D01*
X317576Y98163D01*
D02*
G37*
G36*
X322576Y98163D02*
G75*
D01*
G02X325424Y98163I1424J-3163*
G01*
X325424Y98163D01*
X324000Y96739D01*
X322576Y98163D01*
D02*
G37*
G36*
X307576Y98163D02*
G75*
D01*
G02X310424Y98163I1424J-3163*
G01*
X310424Y98163D01*
X309000Y96739D01*
X307576Y98163D01*
D02*
G37*
G36*
X327163Y96424D02*
G75*
D01*
G02X327163Y93576I-3163J-1424*
G01*
X327163Y93576D01*
X326500Y94239D01*
X325837Y93576D01*
G75*
D01*
G02X325837Y96424I3163J1424*
G01*
X325837Y96424D01*
X326500Y95761D01*
X327163Y96424D01*
D02*
G37*
G36*
X322819Y95000D02*
G75*
D01*
G02X322819Y95000I1181J0*
G01*
D02*
G37*
G36*
X322163Y96424D02*
G75*
D01*
G02X322163Y93576I-3163J-1424*
G01*
X322163Y93576D01*
X321500Y94239D01*
X320837Y93576D01*
G75*
D01*
G02X320837Y96424I3163J1424*
G01*
X320837Y96424D01*
X321500Y95761D01*
X322163Y96424D01*
D02*
G37*
G36*
X317819Y95000D02*
G75*
D01*
G02X317819Y95000I1181J0*
G01*
D02*
G37*
G36*
X315837Y96424D02*
X315837Y96424D01*
X317261Y95000D01*
X315837Y93576D01*
G75*
D01*
G02X315837Y96424I3163J1424*
G01*
D02*
G37*
G36*
X307819Y95000D02*
G75*
D01*
G02X307819Y95000I1181J0*
G01*
D02*
G37*
G36*
X312163Y96424D02*
G75*
D01*
G02X312163Y93576I-3163J-1424*
G01*
X312163Y93576D01*
X310739Y95000D01*
X312163Y96424D01*
D02*
G37*
G36*
X305837Y96424D02*
X305837Y96424D01*
X307261Y95000D01*
X305837Y93576D01*
G75*
D01*
G02X305837Y96424I3163J1424*
G01*
D02*
G37*
G36*
X357819Y184000D02*
G75*
D01*
G02X357819Y184000I1181J0*
G01*
D02*
G37*
G36*
X121576Y271163D02*
G75*
D01*
G02X124424Y271163I1424J-3163*
G01*
X124424Y271163D01*
X123000Y269739D01*
X121576Y271163D01*
D02*
G37*
G36*
X106626Y223000D02*
G75*
D01*
G02X106626Y223000I9374J0*
G01*
D02*
G37*
G36*
X141335Y217543D02*
G75*
D01*
G02X141335Y217543I4071J0*
G01*
D02*
G37*
G36*
X150827Y265010D02*
X150827Y265010D01*
X158000Y265010D01*
G74*
D01*
G02X160010Y263000I0J2010*
G01*
X160010Y263000D01*
X160010Y237724D01*
G75*
D01*
G02X155990Y239318I-3010J-1724*
G01*
X155990Y239318D01*
X155990Y260990D01*
X150827Y260990D01*
G75*
D01*
G02X150827Y265010I-2827J2010*
G01*
D02*
G37*
G36*
X119837Y245424D02*
X119837Y245424D01*
X121261Y244000D01*
X119837Y242576D01*
G75*
D01*
G02X119837Y245424I3163J1424*
G01*
D02*
G37*
G36*
X126163Y245424D02*
G75*
D01*
G02X126163Y242576I-3163J-1424*
G01*
X126163Y242576D01*
X124739Y244000D01*
X126163Y245424D01*
D02*
G37*
G36*
X121819Y244000D02*
G75*
D01*
G02X121819Y244000I1181J0*
G01*
D02*
G37*
G36*
X124424Y240837D02*
G75*
D01*
G02X121576Y240837I-1424J3163*
G01*
X121576Y240837D01*
X123000Y242261D01*
X124424Y240837D01*
D02*
G37*
G36*
X172424Y242837D02*
G75*
D01*
G02X169576Y242837I-1424J3163*
G01*
X169576Y242837D01*
X171000Y244261D01*
X172424Y242837D01*
D02*
G37*
G36*
X121576Y247163D02*
G75*
D01*
G02X124424Y247163I1424J-3163*
G01*
X124424Y247163D01*
X123000Y245739D01*
X121576Y247163D01*
D02*
G37*
G36*
X174163Y247424D02*
G75*
D01*
G02X174163Y244576I-3163J-1424*
G01*
X174163Y244576D01*
X172739Y246000D01*
X174163Y247424D01*
D02*
G37*
G36*
X167837Y247424D02*
X167837Y247424D01*
X169261Y246000D01*
X167837Y244576D01*
G75*
D01*
G02X167837Y247424I3163J1424*
G01*
D02*
G37*
G36*
X169576Y249163D02*
G75*
D01*
G02X172424Y249163I1424J-3163*
G01*
X172424Y249163D01*
X171000Y247739D01*
X169576Y249163D01*
D02*
G37*
G36*
X169819Y246000D02*
G75*
D01*
G02X169819Y246000I1181J0*
G01*
D02*
G37*
G36*
X126163Y257424D02*
G75*
D01*
G02X126163Y254576I-3163J-1424*
G01*
X126163Y254576D01*
X124739Y256000D01*
X126163Y257424D01*
D02*
G37*
G36*
X119837Y257424D02*
X119837Y257424D01*
X121261Y256000D01*
X119837Y254576D01*
G75*
D01*
G02X119837Y257424I3163J1424*
G01*
D02*
G37*
G36*
X121576Y259163D02*
G75*
D01*
G02X124424Y259163I1424J-3163*
G01*
X124424Y259163D01*
X123000Y257739D01*
X121576Y259163D01*
D02*
G37*
G36*
X124424Y252837D02*
G75*
D01*
G02X121576Y252837I-1424J3163*
G01*
X121576Y252837D01*
X123000Y254261D01*
X124424Y252837D01*
D02*
G37*
G36*
X121819Y256000D02*
G75*
D01*
G02X121819Y256000I1181J0*
G01*
D02*
G37*
G36*
X119837Y269424D02*
X119837Y269424D01*
X121261Y268000D01*
X119837Y266576D01*
G75*
D01*
G02X119837Y269424I3163J1424*
G01*
D02*
G37*
G36*
X126163Y269424D02*
G75*
D01*
G02X126163Y266576I-3163J-1424*
G01*
X126163Y266576D01*
X124739Y268000D01*
X126163Y269424D01*
D02*
G37*
G36*
X121819Y268000D02*
G75*
D01*
G02X121819Y268000I1181J0*
G01*
D02*
G37*
G36*
X124424Y264837D02*
G75*
D01*
G02X121576Y264837I-1424J3163*
G01*
X121576Y264837D01*
X123000Y266261D01*
X124424Y264837D01*
D02*
G37*
%LPD*%
G36*
X273580Y172578D02*
X273580Y172578D01*
X266578Y179580D01*
G75*
D01*
G02X265420Y179580I-578J3420*
G01*
G74*
D01*
G02X265446Y179396I3420J580*
G01*
X265446Y179396D01*
X273620Y171222D01*
G75*
D01*
G02X273580Y172578I3380J778*
G01*
D02*
G37*
G36*
X236534Y138864D02*
X236534Y138864D01*
X234010Y136339D01*
X234010Y133852D01*
X235579Y135421D01*
G75*
D01*
G02X237003Y136010I1421J-1421*
G01*
X237003Y136010D01*
X237173Y136010D01*
G74*
D01*
G02X237596Y136500I2827J2010*
G01*
G74*
D01*
G02X236534Y138864I2404J2500*
G01*
D02*
G37*
G36*
X67417Y185488D02*
G74*
D01*
G02X67827Y185010I2417J2488*
G01*
X67827Y185010D01*
X69243Y185010D01*
G74*
D01*
G02X68608Y185488I1757J2990*
G01*
X68608Y185488D01*
X67417Y185488D01*
D02*
G37*
G54D11*
X62000Y28990D02*
G75*
D01*
G02X59990Y31000I0J2010*
G01*
X59990Y34173D01*
G75*
D01*
G02X64010Y34173I2010J2827*
G01*
X64010Y33010D01*
X272168Y33010D01*
X275971Y36813D01*
G75*
D01*
G02X277990Y41688I4029J1187*
G01*
X277990Y82173D01*
G75*
D01*
G02X282010Y82173I2010J2827*
G01*
X282010Y41688D01*
G75*
D01*
G02X278813Y33971I-2010J-3688*
G01*
X274423Y29581D01*
G74*
D01*
G02X273000Y28990I1423J1419*
G01*
X62000Y28990D01*
X90423Y179557D02*
G75*
D01*
G02X90163Y177576I-3423J-557*
G01*
X88739Y179000D01*
X89335Y179596D01*
G74*
D01*
G02X87206Y180945I665J3404*
G01*
X87000Y180739D01*
X86749Y180990D01*
X67827Y180990D01*
G75*
D01*
G02X62583Y185488I-2827J2010*
G01*
X42392Y185488D01*
G75*
D01*
G02X42392Y190512I-2392J2512*
G01*
X62867Y190512D01*
G75*
D01*
G02X63039Y193807I3133J1488*
G01*
X42687Y193807D01*
G75*
D01*
G02X42004Y198831I-2687J2193*
G01*
X68996Y198831D01*
G75*
D01*
G02X72597Y199079I2004J-2831*
G01*
G74*
D01*
G02X72881Y198918I1097J2260*
G01*
G74*
D01*
G02X73008Y198828I1381J2099*
G01*
G75*
D01*
G02X73841Y194010I-2008J-2828*
G01*
X86173Y194010D01*
G75*
D01*
G02X86173Y189990I2827J-2010*
G01*
X73841Y189990D01*
G75*
D01*
G02X72757Y185010I-2841J-1990*
G01*
X87173Y185010D01*
G75*
D01*
G02X92985Y184766I2827J-2010*
G01*
X92985Y194751D01*
X92981Y194756D01*
X92981Y194756D01*
X86082Y201655D01*
G75*
D01*
G02X90345Y205918I918J3345*
G01*
X92981Y203282D01*
X92981Y203282D01*
X98129Y198134D01*
G74*
D01*
G02X99015Y196000I2129J2134*
G01*
X99015Y96756D01*
G75*
D01*
G02X98129Y94621I-3015J0*
G01*
X92152Y88645D01*
G75*
D01*
G02X90259Y84074I-4908J-645*
G01*
X90259Y73188D01*
G75*
D01*
G02X84230Y74087I-3259J-1188*
G01*
X84230Y84074D01*
G75*
D01*
G02X87889Y92908I3014J3926*
G01*
X92985Y98005D01*
X92985Y181234D01*
G74*
D01*
G02X90423Y179557I2985J1766*
G01*
X376445Y17386D02*
G75*
D01*
G02X376445Y17386I-1445J7614*
G01*
X363039Y92981D02*
G75*
D01*
G02X363039Y92981I4166J161*
G01*
X339771Y92981D02*
G75*
D01*
G02X339771Y92981I4229J-2981*
G01*
X327576Y91837D02*
X328720Y92981D01*
X328720Y92981D01*
X329000Y93261D01*
X329280Y92981D01*
X329280Y92981D01*
X330424Y91837D01*
G75*
D01*
G02X327576Y91837I-1424J3163*
G01*
X322576Y91837D02*
X323720Y92981D01*
X323720Y92981D01*
X324000Y93261D01*
X324280Y92981D01*
X324280Y92981D01*
X325424Y91837D01*
G75*
D01*
G02X322576Y91837I-1424J3163*
G01*
X317576Y91837D02*
X318720Y92981D01*
X318720Y92981D01*
X319000Y93261D01*
X319280Y92981D01*
X319280Y92981D01*
X320424Y91837D01*
G75*
D01*
G02X317576Y91837I-1424J3163*
G01*
X307576Y91837D02*
X308720Y92981D01*
X308720Y92981D01*
X309000Y93261D01*
X309280Y92981D01*
X309280Y92981D01*
X310424Y91837D01*
G75*
D01*
G02X307576Y91837I-1424J3163*
G01*
X299488Y54004D02*
X299488Y98608D01*
G75*
D01*
G02X304512Y98608I2512J2392*
G01*
X304512Y79748D01*
X305261Y79000D01*
X304512Y78252D01*
X304512Y55041D01*
X306085Y53467D01*
G75*
D01*
G02X302533Y49915I-85J-3467*
G01*
X300224Y52224D01*
G75*
D01*
G02X299488Y54004I1776J1776*
G01*
X279000Y96010D02*
X289168Y96010D01*
X291580Y98422D01*
G75*
D01*
G02X294422Y95580I3420J578*
G01*
X291823Y92981D01*
X291823Y92981D01*
X291423Y92581D01*
G74*
D01*
G02X290000Y91990I1423J1419*
G01*
X279832Y91990D01*
X273420Y85578D01*
G75*
D01*
G02X272010Y82173I-3420J-578*
G01*
X272010Y41688D01*
G75*
D01*
G02X267990Y41688I-2010J-3688*
G01*
X267990Y82173D01*
G75*
D01*
G02X270578Y88420I2010J2827*
G01*
X275139Y92981D01*
X275139Y92981D01*
X277579Y95421D01*
G74*
D01*
G02X278865Y96005I1421J1421*
G01*
G75*
D01*
G02X279000Y96010I135J-2005*
G01*
X281580Y143578D02*
X277168Y147990D01*
X270852Y147990D01*
X271422Y147420D01*
G75*
D01*
G02X268580Y144578I578J-3420*
G01*
X267168Y145990D01*
X245841Y145990D01*
G75*
D01*
G02X244757Y141010I-2841J-1990*
G01*
X249000Y141010D01*
G74*
D01*
G02X250423Y140419I0J2010*
G01*
X257419Y133423D01*
G74*
D01*
G02X258010Y132000I1419J1423*
G01*
X258010Y123827D01*
G75*
D01*
G02X253990Y123827I-2010J-2827*
G01*
X253990Y131168D01*
X248168Y136990D01*
X242827Y136990D01*
G74*
D01*
G02X242404Y136500I2827J2010*
G01*
G75*
D01*
G02X237470Y131628I-2404J-2500*
G01*
X236010Y130168D01*
X236010Y109827D01*
G75*
D01*
G02X231990Y109827I-2010J-2827*
G01*
X231990Y110148D01*
X230194Y108352D01*
G75*
D01*
G02X226604Y110446I-3194J-1352*
G01*
X229990Y113832D01*
X229990Y119148D01*
X229420Y118578D01*
G75*
D01*
G02X226578Y121420I-3420J-578*
G01*
X227990Y122832D01*
X227990Y135977D01*
X218417Y126403D01*
G75*
D01*
G02X213259Y130000I-3417J597*
G01*
G74*
D01*
G02X211682Y131990I1741J3000*
G01*
X204848Y131990D01*
G74*
D01*
G02X204923Y131919I1348J1490*
G01*
X221422Y115420D01*
G75*
D01*
G02X218580Y112578I578J-3420*
G01*
X208456Y122702D01*
G75*
D01*
G02X201806Y124352I-3456J298*
G01*
X201168Y124990D01*
X186251Y124990D01*
X186000Y124739D01*
X185749Y124990D01*
X171724Y124990D01*
G75*
D01*
G02X168259Y131000I-1724J3010*
G01*
G75*
D01*
G02X167159Y135990I1741J3000*
G01*
X158000Y135990D01*
G75*
D01*
G02X157594Y136032I0J2010*
G01*
G74*
D01*
G02X156579Y136579I406J1968*
G01*
X155578Y137580D01*
G75*
D01*
G02X158420Y140422I-578J3420*
G01*
X158832Y140010D01*
X168243Y140010D01*
G75*
D01*
G02X170578Y146420I1757J2990*
G01*
X182579Y158421D01*
G74*
D01*
G02X183361Y158905I1421J1421*
G01*
G75*
D01*
G02X184000Y159010I639J-1905*
G01*
X210173Y159010D01*
G75*
D01*
G02X210173Y154990I2827J-2010*
G01*
X184832Y154990D01*
X173420Y143578D01*
G75*
D01*
G02X171595Y139920I-3420J-578*
G01*
G74*
D01*
G02X172423Y139419I595J1920*
G01*
X175832Y136010D01*
X213276Y136010D01*
G75*
D01*
G02X218318Y131988I1724J-3010*
G01*
X237751Y151421D01*
G75*
D01*
G02X239173Y152010I1421J-1421*
G01*
X277999Y152010D01*
G75*
D01*
G02X278184Y152001I1J-2010*
G01*
G74*
D01*
G02X279423Y151419I184J2001*
G01*
X281957Y148885D01*
X281957Y148885D01*
X284422Y146420D01*
G75*
D01*
G02X286997Y145836I578J-3420*
G01*
G75*
D01*
G02X286990Y146003I2003J164*
G01*
X286990Y174996D01*
G75*
D01*
G02X287579Y176421I2010J4*
G01*
X298627Y187469D01*
X298627Y187469D01*
X301990Y190832D01*
X301990Y203173D01*
G75*
D01*
G02X300580Y206578I2010J2827*
G01*
X299579Y207579D01*
G75*
D01*
G02X298990Y209003I1421J1421*
G01*
X298990Y234173D01*
G75*
D01*
G02X303010Y234173I2010J2827*
G01*
X303010Y209832D01*
X303422Y209420D01*
G75*
D01*
G02X306010Y203173I578J-3420*
G01*
X306010Y190000D01*
G75*
D01*
G02X305419Y188577I-2010J0*
G01*
X304311Y187469D01*
X291010Y174168D01*
X291010Y146832D01*
X294396Y143446D01*
G75*
D01*
G02X290806Y141352I-396J-3446*
G01*
X288380Y143778D01*
G75*
D01*
G02X281580Y143578I-3380J-778*
G01*
X376446Y310614D02*
G75*
D01*
G02X376446Y310614I-1446J-7614*
G01*
X394757Y92981D02*
G75*
D01*
G02X394757Y92981I-1962J161*
G01*
X396597Y94853D02*
G75*
D01*
G02X396597Y91431I-3802J-1711*
G01*
X395047Y92981D01*
X395047Y92981D01*
X394886Y93142D01*
X396597Y94853D01*
X388994Y94853D02*
X390705Y93142D01*
X390544Y92981D01*
X390544Y92981D01*
X388994Y91431D01*
G75*
D01*
G02X388994Y94853I3801J1711*
G01*
X348785Y281957D02*
G75*
D01*
G02X348785Y281957I1215J4799*
G01*
X178000Y92990D02*
G75*
D01*
G02X176579Y93579I0J2010*
G01*
X170578Y99580D01*
G75*
D01*
G02X173420Y102422I-578J3420*
G01*
X178832Y97010D01*
X213173Y97010D01*
G75*
D01*
G02X213173Y92990I2827J-2010*
G01*
X178000Y92990D01*
X187929Y206623D02*
X187929Y173913D01*
X190648Y171194D01*
G75*
D01*
G02X188554Y167604I1352J-3194*
G01*
X187469Y168689D01*
X187469Y168689D01*
X184499Y171659D01*
G75*
D01*
G02X183910Y173085I1421J1421*
G01*
X183910Y206623D01*
G75*
D01*
G02X187929Y206623I2010J2827*
G01*
X167173Y192010D02*
G75*
D01*
G02X167173Y187990I2827J-2010*
G01*
X153003Y187990D01*
G75*
D01*
G02X151579Y188579I-3J2010*
G01*
X151578Y188580D01*
G75*
D01*
G02X154468Y192010I-578J3420*
G01*
X167173Y192010D01*
X281957Y204692D02*
G75*
D01*
G02X281957Y204692I-957J-692*
G01*
X279576Y207163D02*
G75*
D01*
G02X282424Y207163I1424J-3163*
G01*
X281000Y205739D01*
X279576Y207163D01*
X276423Y276419D02*
X281957Y270885D01*
X288422Y264420D01*
G75*
D01*
G02X285580Y261578I578J-3420*
G01*
X281957Y265201D01*
X274168Y272990D01*
X233827Y272990D01*
G75*
D01*
G02X233827Y277010I-2827J2010*
G01*
X275000Y277010D01*
G74*
D01*
G02X276423Y276419I0J2010*
G01*
X279576Y200837D02*
X281000Y202261D01*
X282424Y200837D01*
G75*
D01*
G02X279576Y200837I-1424J3163*
G01*
X186307Y231793D02*
X187730Y230370D01*
X186307Y228946D01*
G75*
D01*
G02X186307Y231793I3163J1424*
G01*
X394506Y89340D02*
G75*
D01*
G02X391084Y89340I-1711J3802*
G01*
X392795Y91051D01*
X394506Y89340D01*
X389163Y263424D02*
G75*
D01*
G02X389163Y260576I-3163J-1424*
G01*
X387739Y262000D01*
X389163Y263424D01*
X387424Y258837D02*
G75*
D01*
G02X384576Y258837I-1424J3163*
G01*
X386000Y260261D01*
X387424Y258837D01*
X384576Y265163D02*
G75*
D01*
G02X387424Y265163I1424J-3163*
G01*
X386000Y263739D01*
X384576Y265163D01*
X384819Y262000D02*
G75*
D01*
G02X384819Y262000I1181J0*
G01*
X382837Y263424D02*
X384261Y262000D01*
X382837Y260576D01*
G75*
D01*
G02X382837Y263424I3163J1424*
G01*
X388576Y143163D02*
G75*
D01*
G02X391424Y143163I1424J-3163*
G01*
X390000Y141739D01*
X388576Y143163D01*
X391084Y96943D02*
G75*
D01*
G02X394506Y96943I1711J-3801*
G01*
X392795Y95232D01*
X391084Y96943D01*
X388994Y112569D02*
X390705Y110858D01*
X388994Y109147D01*
G75*
D01*
G02X388994Y112569I3801J1711*
G01*
X394506Y107057D02*
G75*
D01*
G02X391084Y107057I-1711J3801*
G01*
X392795Y108768D01*
X394506Y107057D01*
X390827Y110858D02*
G75*
D01*
G02X390827Y110858I1968J0*
G01*
X396597Y112569D02*
G75*
D01*
G02X396597Y109147I-3802J-1711*
G01*
X394886Y110858D01*
X396597Y112569D01*
X391084Y114660D02*
G75*
D01*
G02X394506Y114660I1711J-3802*
G01*
X392795Y112949D01*
X391084Y114660D01*
X386837Y141424D02*
X388261Y140000D01*
X386837Y138576D01*
G75*
D01*
G02X386837Y141424I3163J1424*
G01*
X393163Y141424D02*
G75*
D01*
G02X393163Y138576I-3163J-1424*
G01*
X391739Y140000D01*
X393163Y141424D01*
X391424Y136837D02*
G75*
D01*
G02X388576Y136837I-1424J3163*
G01*
X390000Y138261D01*
X391424Y136837D01*
X388819Y140000D02*
G75*
D01*
G02X388819Y140000I1181J0*
G01*
X17250Y303000D02*
G75*
D01*
G02X17250Y303000I7750J0*
G01*
X70199Y301711D02*
X71910Y300000D01*
X70199Y298289D01*
G75*
D01*
G02X70199Y301711I3801J1711*
G01*
X77801Y301711D02*
G75*
D01*
G02X77801Y298289I-3801J-1711*
G01*
X76090Y300000D01*
X77801Y301711D01*
X72031Y300000D02*
G75*
D01*
G02X72031Y300000I1969J0*
G01*
X75711Y296199D02*
G75*
D01*
G02X72289Y296199I-1711J3801*
G01*
X74000Y297910D01*
X75711Y296199D01*
X45711Y306199D02*
G75*
D01*
G02X42289Y306199I-1711J3801*
G01*
X44000Y307910D01*
X45711Y306199D01*
X72289Y303801D02*
G75*
D01*
G02X75711Y303801I1711J-3801*
G01*
X74000Y302090D01*
X72289Y303801D01*
X47801Y311711D02*
G75*
D01*
G02X47801Y308289I-3801J-1711*
G01*
X46090Y310000D01*
X47801Y311711D01*
X40199Y311711D02*
X41910Y310000D01*
X40199Y308289D01*
G75*
D01*
G02X40199Y311711I3801J1711*
G01*
X42289Y313801D02*
G75*
D01*
G02X45711Y313801I1711J-3801*
G01*
X44000Y312090D01*
X42289Y313801D01*
X42031Y310000D02*
G75*
D01*
G02X42031Y310000I1969J0*
G01*
X70199Y321711D02*
X71910Y320000D01*
X70199Y318289D01*
G75*
D01*
G02X70199Y321711I3801J1711*
G01*
X72289Y323801D02*
G75*
D01*
G02X75711Y323801I1711J-3801*
G01*
X74000Y322090D01*
X72289Y323801D01*
X77801Y321711D02*
G75*
D01*
G02X77801Y318289I-3801J-1711*
G01*
X76090Y320000D01*
X77801Y321711D01*
X75711Y316199D02*
G75*
D01*
G02X72289Y316199I-1711J3801*
G01*
X74000Y317910D01*
X75711Y316199D01*
X72031Y320000D02*
G75*
D01*
G02X72031Y320000I1969J0*
G01*
X288831Y310000D02*
G75*
D01*
G02X288831Y310000I4169J0*
G01*
X258831Y300000D02*
G75*
D01*
G02X258831Y300000I4169J0*
G01*
X258831Y320000D02*
G75*
D01*
G02X258831Y320000I4169J0*
G01*
X272910Y129717D02*
G75*
D01*
G02X272910Y129717I3184J0*
G01*
X261099Y129717D02*
G75*
D01*
G02X261099Y129717I3184J0*
G01*
X189163Y124424D02*
G75*
D01*
G02X189163Y121576I-3163J-1424*
G01*
X187739Y123000D01*
X189163Y124424D01*
X272910Y117906D02*
G75*
D01*
G02X272910Y117906I3184J0*
G01*
X261099Y117906D02*
G75*
D01*
G02X261099Y117906I3184J0*
G01*
X272910Y106094D02*
G75*
D01*
G02X272910Y106094I3184J0*
G01*
X261099Y106094D02*
G75*
D01*
G02X261099Y106094I3184J0*
G01*
X204819Y105000D02*
G75*
D01*
G02X204819Y105000I1181J0*
G01*
X209163Y106424D02*
G75*
D01*
G02X209163Y103576I-3163J-1424*
G01*
X207739Y105000D01*
X209163Y106424D01*
X202837Y106424D02*
X204261Y105000D01*
X202837Y103576D01*
G75*
D01*
G02X202837Y106424I3163J1424*
G01*
X204576Y108163D02*
G75*
D01*
G02X207424Y108163I1424J-3163*
G01*
X206000Y106739D01*
X204576Y108163D01*
X207424Y101837D02*
G75*
D01*
G02X204576Y101837I-1424J3163*
G01*
X206000Y103261D01*
X207424Y101837D01*
X274010Y160827D02*
G75*
D01*
G02X269990Y160827I-2010J-2827*
G01*
X269990Y161168D01*
X259352Y171806D01*
G75*
D01*
G02X258580Y178420I-1352J3194*
G01*
G75*
D01*
G02X262580Y182420I3420J580*
G01*
G75*
D01*
G02X269420Y182422I3420J580*
G01*
X276422Y175420D01*
G75*
D01*
G02X276222Y168620I578J-3420*
G01*
X276422Y168420D01*
G75*
D01*
G02X273580Y165578I578J-3420*
G01*
X263352Y175806D01*
G75*
D01*
G02X261420Y175580I-1352J3194*
G01*
G74*
D01*
G02X261446Y175396I3420J580*
G01*
X273419Y163423D01*
G74*
D01*
G02X274010Y162000I1419J1423*
G01*
X274010Y160827D01*
X248576Y159163D02*
G75*
D01*
G02X251424Y159163I1424J-3163*
G01*
X250000Y157739D01*
X248576Y159163D01*
X248819Y156000D02*
G75*
D01*
G02X248819Y156000I1181J0*
G01*
X251424Y152837D02*
G75*
D01*
G02X248576Y152837I-1424J3163*
G01*
X250000Y154261D01*
X251424Y152837D01*
X246837Y157424D02*
X248261Y156000D01*
X246837Y154576D01*
G75*
D01*
G02X246837Y157424I3163J1424*
G01*
X253163Y157424D02*
G75*
D01*
G02X253163Y154576I-3163J-1424*
G01*
X251739Y156000D01*
X253163Y157424D01*
X204576Y143163D02*
G75*
D01*
G02X207424Y143163I1424J-3163*
G01*
X206000Y141739D01*
X204576Y143163D01*
X204819Y140000D02*
G75*
D01*
G02X204819Y140000I1181J0*
G01*
X209163Y141424D02*
G75*
D01*
G02X209163Y138576I-3163J-1424*
G01*
X207739Y140000D01*
X209163Y141424D01*
X202837Y141424D02*
X204261Y140000D01*
X202837Y138576D01*
G75*
D01*
G02X202837Y141424I3163J1424*
G01*
X207424Y136837D02*
G75*
D01*
G02X204576Y136837I-1424J3163*
G01*
X206000Y138261D01*
X207424Y136837D01*
X143450Y92957D02*
G74*
D01*
G02X144957Y91450I0J1507*
G01*
X144957Y84550D01*
G75*
D01*
G02X143450Y83043I-1507J0*
G01*
X136550Y83043D01*
G75*
D01*
G02X135043Y84550I0J1507*
G01*
X135043Y91450D01*
G75*
D01*
G02X136550Y92957I1507J0*
G01*
X143450Y92957D01*
X109837Y73424D02*
X111261Y72000D01*
X109837Y70576D01*
G75*
D01*
G02X109837Y73424I3163J1424*
G01*
X116163Y73424D02*
G75*
D01*
G02X116163Y70576I-3163J-1424*
G01*
X114739Y72000D01*
X116163Y73424D01*
X111819Y72000D02*
G75*
D01*
G02X111819Y72000I1181J0*
G01*
X114424Y68837D02*
G75*
D01*
G02X111576Y68837I-1424J3163*
G01*
X113000Y70261D01*
X114424Y68837D01*
X111576Y75163D02*
G75*
D01*
G02X114424Y75163I1424J-3163*
G01*
X113000Y73739D01*
X111576Y75163D01*
X254207Y35300D02*
G75*
D01*
G02X252700Y33793I-1507J0*
G01*
X247300Y33793D01*
G75*
D01*
G02X245793Y35300I0J1507*
G01*
X245793Y40700D01*
G75*
D01*
G02X247300Y42207I1507J0*
G01*
X252700Y42207D01*
G74*
D01*
G02X254207Y40700I0J1507*
G01*
X254207Y35300D01*
X255800Y38000D02*
G75*
D01*
G02X255800Y38000I4200J0*
G01*
X251424Y62837D02*
G75*
D01*
G02X248576Y62837I-1424J3163*
G01*
X250000Y64261D01*
X251424Y62837D01*
X211978Y68000D02*
G75*
D01*
G02X208022Y68000I-1978J-1969*
G01*
G75*
D01*
G02X211978Y68000I1978J1969*
G01*
X253163Y67424D02*
G75*
D01*
G02X253163Y64576I-3163J-1424*
G01*
X251739Y66000D01*
X253163Y67424D01*
X246837Y67424D02*
X248261Y66000D01*
X246837Y64576D01*
G75*
D01*
G02X246837Y67424I3163J1424*
G01*
X248576Y69163D02*
G75*
D01*
G02X251424Y69163I1424J-3163*
G01*
X250000Y67739D01*
X248576Y69163D01*
X248819Y66000D02*
G75*
D01*
G02X248819Y66000I1181J0*
G01*
X203837Y85424D02*
X205261Y84000D01*
X203837Y82576D01*
G75*
D01*
G02X203837Y85424I3163J1424*
G01*
X205576Y87163D02*
G75*
D01*
G02X208424Y87163I1424J-3163*
G01*
X207000Y85739D01*
X205576Y87163D01*
X210163Y85424D02*
G75*
D01*
G02X210163Y82576I-3163J-1424*
G01*
X208739Y84000D01*
X210163Y85424D01*
X208424Y80837D02*
G75*
D01*
G02X205576Y80837I-1424J3163*
G01*
X207000Y82261D01*
X208424Y80837D01*
X205819Y84000D02*
G75*
D01*
G02X205819Y84000I1181J0*
G01*
X228586Y85250D02*
X230009Y83827D01*
X228586Y82403D01*
G75*
D01*
G02X228586Y85250I3163J1424*
G01*
X230325Y86989D02*
G75*
D01*
G02X233172Y86989I1424J-3162*
G01*
X231749Y85566D01*
X230325Y86989D01*
X234912Y85250D02*
G75*
D01*
G02X234912Y82403I-3163J-1423*
G01*
X233488Y83827D01*
X234912Y85250D01*
X233172Y80664D02*
G75*
D01*
G02X230325Y80664I-1423J3163*
G01*
X231749Y82087D01*
X233172Y80664D01*
X230568Y83827D02*
G75*
D01*
G02X230568Y83827I1181J0*
G01*
X17250Y25000D02*
G75*
D01*
G02X17250Y25000I7750J0*
G01*
X68837Y71424D02*
X70261Y70000D01*
X68837Y68576D01*
G75*
D01*
G02X68837Y71424I3163J1424*
G01*
X73424Y66837D02*
G75*
D01*
G02X70576Y66837I-1424J3163*
G01*
X72000Y68261D01*
X73424Y66837D01*
X70819Y70000D02*
G75*
D01*
G02X70819Y70000I1181J0*
G01*
X75163Y71424D02*
G75*
D01*
G02X75163Y68576I-3163J-1424*
G01*
X73739Y70000D01*
X75163Y71424D01*
X70576Y73163D02*
G75*
D01*
G02X73424Y73163I1424J-3163*
G01*
X72000Y71739D01*
X70576Y73163D01*
X105626Y111000D02*
G75*
D01*
G02X105626Y111000I9374J0*
G01*
X141422Y110457D02*
G75*
D01*
G02X141422Y110457I3578J0*
G01*
X151837Y119424D02*
X153261Y118000D01*
X151837Y116576D01*
G75*
D01*
G02X151837Y119424I3163J1424*
G01*
X158163Y119424D02*
G75*
D01*
G02X158163Y116576I-3163J-1424*
G01*
X156739Y118000D01*
X158163Y119424D01*
X153819Y118000D02*
G75*
D01*
G02X153819Y118000I1181J0*
G01*
X156424Y114837D02*
G75*
D01*
G02X153576Y114837I-1424J3163*
G01*
X155000Y116261D01*
X156424Y114837D01*
X153576Y121163D02*
G75*
D01*
G02X156424Y121163I1424J-3163*
G01*
X155000Y119739D01*
X153576Y121163D01*
X182837Y124424D02*
X184261Y123000D01*
X182837Y121576D01*
G75*
D01*
G02X182837Y124424I3163J1424*
G01*
X187424Y119837D02*
G75*
D01*
G02X184576Y119837I-1424J3163*
G01*
X186000Y121261D01*
X187424Y119837D01*
X184819Y123000D02*
G75*
D01*
G02X184819Y123000I1181J0*
G01*
X158163Y131424D02*
G75*
D01*
G02X158163Y128576I-3163J-1424*
G01*
X156739Y130000D01*
X158163Y131424D01*
X151837Y131424D02*
X153261Y130000D01*
X151837Y128576D01*
G75*
D01*
G02X151837Y131424I3163J1424*
G01*
X153576Y133163D02*
G75*
D01*
G02X156424Y133163I1424J-3163*
G01*
X155000Y131739D01*
X153576Y133163D01*
X156424Y126837D02*
G75*
D01*
G02X153576Y126837I-1424J3163*
G01*
X155000Y128261D01*
X156424Y126837D01*
X153819Y130000D02*
G75*
D01*
G02X153819Y130000I1181J0*
G01*
X167173Y176010D02*
G75*
D01*
G02X167173Y171990I2827J-2010*
G01*
X153827Y171990D01*
G75*
D01*
G02X153827Y176010I-2827J2010*
G01*
X167173Y176010D01*
X167173Y185010D02*
G75*
D01*
G02X167173Y180990I2827J-2010*
G01*
X153827Y180990D01*
G75*
D01*
G02X153827Y185010I-2827J2010*
G01*
X167173Y185010D01*
X286170Y39724D02*
X287894Y38000D01*
X286170Y36276D01*
G75*
D01*
G02X286170Y39724I3830J1724*
G01*
X291724Y34170D02*
G75*
D01*
G02X288276Y34170I-1724J3830*
G01*
X290000Y35894D01*
X291724Y34170D01*
X288000Y38000D02*
G75*
D01*
G02X288000Y38000I2000J0*
G01*
X293830Y39724D02*
G75*
D01*
G02X293830Y36276I-3830J-1724*
G01*
X292106Y38000D01*
X293830Y39724D01*
X288276Y41830D02*
G75*
D01*
G02X291724Y41830I1724J-3830*
G01*
X290000Y40106D01*
X288276Y41830D01*
X308424Y75837D02*
G75*
D01*
G02X305576Y75837I-1424J3163*
G01*
X307000Y77261D01*
X308424Y75837D01*
X305819Y79000D02*
G75*
D01*
G02X305819Y79000I1181J0*
G01*
X310163Y80424D02*
G75*
D01*
G02X310163Y77576I-3163J-1424*
G01*
X308739Y79000D01*
X310163Y80424D01*
X332466Y84129D02*
G75*
D01*
G02X332163Y82576I-3466J-129*
G01*
X330739Y84000D01*
X332163Y85424D01*
G74*
D01*
G02X332349Y84904I3163J1424*
G01*
G75*
D01*
G02X336124Y84719I1651J-4904*
G01*
X334358Y82953D01*
G74*
D01*
G02X336953Y80358I358J2953*
G01*
X338719Y82124D01*
G75*
D01*
G02X338719Y77876I-4719J-2124*
G01*
X336953Y79642D01*
G74*
D01*
G02X334358Y77047I2953J358*
G01*
X336124Y75281D01*
G75*
D01*
G02X331876Y75281I-2124J4719*
G01*
X333642Y77047D01*
G74*
D01*
G02X331047Y79642I358J2953*
G01*
X329281Y77876D01*
G75*
D01*
G02X328853Y80535I4719J2124*
G01*
G74*
D01*
G02X327576Y80837I147J3465*
G01*
X329000Y82261D01*
X329237Y82023D01*
G74*
D01*
G02X329281Y82124I4763J2023*
G01*
X331047Y80358D01*
G74*
D01*
G02X333642Y82953I2953J358*
G01*
X332466Y84129D01*
X353642Y82953D02*
X351876Y84719D01*
G75*
D01*
G02X356124Y84719I2124J-4719*
G01*
X354358Y82953D01*
G74*
D01*
G02X356953Y80358I358J2953*
G01*
X358719Y82124D01*
G75*
D01*
G02X358719Y77876I-4719J-2124*
G01*
X356953Y79642D01*
G74*
D01*
G02X354358Y77047I2953J358*
G01*
X356124Y75281D01*
G75*
D01*
G02X351876Y75281I-2124J4719*
G01*
X353642Y77047D01*
G74*
D01*
G02X351047Y79642I358J2953*
G01*
X349281Y77876D01*
G75*
D01*
G02X349281Y82124I4719J2124*
G01*
X351047Y80358D01*
G74*
D01*
G02X353642Y82953I2953J358*
G01*
X307954Y81693D02*
X307000Y80739D01*
X305576Y82163D01*
G75*
D01*
G02X308046Y82307I1424J-3163*
G01*
X309000Y83261D01*
X310424Y81837D01*
G75*
D01*
G02X307954Y81693I-1424J3163*
G01*
X305837Y86424D02*
X307261Y85000D01*
X305837Y83576D01*
G75*
D01*
G02X305837Y86424I3163J1424*
G01*
X312163Y86424D02*
G75*
D01*
G02X312163Y83576I-3163J-1424*
G01*
X310739Y85000D01*
X312163Y86424D01*
X307819Y85000D02*
G75*
D01*
G02X307819Y85000I1181J0*
G01*
X322576Y87163D02*
G75*
D01*
G02X325424Y87163I1424J-3163*
G01*
X324000Y85739D01*
X322576Y87163D01*
X325424Y80837D02*
G75*
D01*
G02X322576Y80837I-1424J3163*
G01*
X324000Y82261D01*
X325424Y80837D01*
X322819Y84000D02*
G75*
D01*
G02X322819Y84000I1181J0*
G01*
X317576Y87163D02*
G75*
D01*
G02X320424Y87163I1424J-3163*
G01*
X319000Y85739D01*
X317576Y87163D01*
X320837Y85424D02*
X321500Y84761D01*
X322163Y85424D01*
G75*
D01*
G02X322163Y82576I-3163J-1424*
G01*
X321500Y83239D01*
X320837Y82576D01*
G75*
D01*
G02X320837Y85424I3163J1424*
G01*
X315837Y85424D02*
X317261Y84000D01*
X315837Y82576D01*
G75*
D01*
G02X315837Y85424I3163J1424*
G01*
X320424Y80837D02*
G75*
D01*
G02X317576Y80837I-1424J3163*
G01*
X319000Y82261D01*
X320424Y80837D01*
X317819Y84000D02*
G75*
D01*
G02X317819Y84000I1181J0*
G01*
X327576Y87163D02*
G75*
D01*
G02X330424Y87163I1424J-3163*
G01*
X329000Y85739D01*
X327576Y87163D01*
X327163Y85424D02*
G75*
D01*
G02X327163Y82576I-3163J-1424*
G01*
X326500Y83239D01*
X325837Y82576D01*
G75*
D01*
G02X325837Y85424I3163J1424*
G01*
X326500Y84761D01*
X327163Y85424D01*
X327819Y84000D02*
G75*
D01*
G02X327819Y84000I1181J0*
G01*
X307576Y88163D02*
G75*
D01*
G02X310424Y88163I1424J-3163*
G01*
X309000Y86739D01*
X307576Y88163D01*
X74819Y247000D02*
G75*
D01*
G02X74819Y247000I1181J0*
G01*
X59424Y211837D02*
G75*
D01*
G02X56576Y211837I-1424J3163*
G01*
X58000Y213261D01*
X59424Y211837D01*
X69424Y211837D02*
G75*
D01*
G02X66576Y211837I-1424J3163*
G01*
X68000Y213261D01*
X69424Y211837D01*
X42837Y221424D02*
X44261Y220000D01*
X42837Y218576D01*
G75*
D01*
G02X42837Y221424I3163J1424*
G01*
X47424Y216837D02*
G75*
D01*
G02X44576Y216837I-1424J3163*
G01*
X46000Y218261D01*
X47424Y216837D01*
X44819Y220000D02*
G75*
D01*
G02X44819Y220000I1181J0*
G01*
X54837Y216424D02*
X56261Y215000D01*
X54837Y213576D01*
G75*
D01*
G02X54837Y216424I3163J1424*
G01*
X49163Y221424D02*
G75*
D01*
G02X49163Y218576I-3163J-1424*
G01*
X47739Y220000D01*
X49163Y221424D01*
X56576Y218163D02*
G75*
D01*
G02X59424Y218163I1424J-3163*
G01*
X58000Y216739D01*
X56576Y218163D01*
X61163Y216424D02*
G75*
D01*
G02X61163Y213576I-3163J-1424*
G01*
X59739Y215000D01*
X61163Y216424D01*
X56819Y215000D02*
G75*
D01*
G02X56819Y215000I1181J0*
G01*
X71163Y216424D02*
G75*
D01*
G02X71163Y213576I-3163J-1424*
G01*
X69739Y215000D01*
X71163Y216424D01*
X64837Y216424D02*
X66261Y215000D01*
X64837Y213576D01*
G75*
D01*
G02X64837Y216424I3163J1424*
G01*
X66576Y218163D02*
G75*
D01*
G02X69424Y218163I1424J-3163*
G01*
X68000Y216739D01*
X66576Y218163D01*
X66819Y215000D02*
G75*
D01*
G02X66819Y215000I1181J0*
G01*
X44576Y223163D02*
G75*
D01*
G02X47424Y223163I1424J-3163*
G01*
X46000Y221739D01*
X44576Y223163D01*
X36576Y236163D02*
G75*
D01*
G02X39424Y236163I1424J-3163*
G01*
X38000Y234739D01*
X36576Y236163D01*
X39424Y229837D02*
G75*
D01*
G02X36576Y229837I-1424J3163*
G01*
X38000Y231261D01*
X39424Y229837D01*
X34837Y234424D02*
X36261Y233000D01*
X34837Y231576D01*
G75*
D01*
G02X34837Y234424I3163J1424*
G01*
X36819Y233000D02*
G75*
D01*
G02X36819Y233000I1181J0*
G01*
X41163Y234424D02*
G75*
D01*
G02X41163Y231576I-3163J-1424*
G01*
X39739Y233000D01*
X41163Y234424D01*
X77424Y243837D02*
G75*
D01*
G02X74576Y243837I-1424J3163*
G01*
X76000Y245261D01*
X77424Y243837D01*
X38837Y249424D02*
X40261Y248000D01*
X38837Y246576D01*
G75*
D01*
G02X38837Y249424I3163J1424*
G01*
X40576Y251163D02*
G75*
D01*
G02X43424Y251163I1424J-3163*
G01*
X42000Y249739D01*
X40576Y251163D01*
X45163Y249424D02*
G75*
D01*
G02X45163Y246576I-3163J-1424*
G01*
X43739Y248000D01*
X45163Y249424D01*
X43424Y244837D02*
G75*
D01*
G02X40576Y244837I-1424J3163*
G01*
X42000Y246261D01*
X43424Y244837D01*
X40819Y248000D02*
G75*
D01*
G02X40819Y248000I1181J0*
G01*
X79163Y248424D02*
G75*
D01*
G02X79163Y245576I-3163J-1424*
G01*
X77739Y247000D01*
X79163Y248424D01*
X72837Y248424D02*
X74261Y247000D01*
X72837Y245576D01*
G75*
D01*
G02X72837Y248424I3163J1424*
G01*
X74576Y250163D02*
G75*
D01*
G02X77424Y250163I1424J-3163*
G01*
X76000Y248739D01*
X74576Y250163D01*
X85819Y179000D02*
G75*
D01*
G02X85819Y179000I1181J0*
G01*
X22917Y122000D02*
G75*
D01*
G02X22917Y122000I5083J0*
G01*
X62917Y122000D02*
G75*
D01*
G02X62917Y122000I5083J0*
G01*
X45576Y174163D02*
G75*
D01*
G02X48424Y174163I1424J-3163*
G01*
X47000Y172739D01*
X45576Y174163D01*
X48424Y167837D02*
G75*
D01*
G02X45576Y167837I-1424J3163*
G01*
X47000Y169261D01*
X48424Y167837D01*
X45819Y171000D02*
G75*
D01*
G02X45819Y171000I1181J0*
G01*
X43837Y172424D02*
X45261Y171000D01*
X43837Y169576D01*
G75*
D01*
G02X43837Y172424I3163J1424*
G01*
X50163Y172424D02*
G75*
D01*
G02X50163Y169576I-3163J-1424*
G01*
X48739Y171000D01*
X50163Y172424D01*
X78173Y176010D02*
G75*
D01*
G02X78173Y171990I2827J-2010*
G01*
X67827Y171990D01*
G75*
D01*
G02X67827Y176010I-2827J2010*
G01*
X78173Y176010D01*
X88424Y175837D02*
G75*
D01*
G02X85576Y175837I-1424J3163*
G01*
X87000Y177261D01*
X88424Y175837D01*
X83837Y180424D02*
X85261Y179000D01*
X83837Y177576D01*
G75*
D01*
G02X83837Y180424I3163J1424*
G01*
X284163Y205424D02*
G75*
D01*
G02X284163Y202576I-3163J-1424*
G01*
X282739Y204000D01*
X284163Y205424D01*
X311837Y215424D02*
X313261Y214000D01*
X311837Y212576D01*
G75*
D01*
G02X311837Y215424I3163J1424*
G01*
X316424Y210837D02*
G75*
D01*
G02X313576Y210837I-1424J3163*
G01*
X315000Y212261D01*
X316424Y210837D01*
X318163Y215424D02*
G75*
D01*
G02X318163Y212576I-3163J-1424*
G01*
X316739Y214000D01*
X318163Y215424D01*
X313576Y217163D02*
G75*
D01*
G02X316424Y217163I1424J-3163*
G01*
X315000Y215739D01*
X313576Y217163D01*
X313819Y214000D02*
G75*
D01*
G02X313819Y214000I1181J0*
G01*
X291837Y230424D02*
X293261Y229000D01*
X291837Y227576D01*
G75*
D01*
G02X291837Y230424I3163J1424*
G01*
X298163Y230424D02*
G75*
D01*
G02X298163Y227576I-3163J-1424*
G01*
X296739Y229000D01*
X298163Y230424D01*
X293819Y229000D02*
G75*
D01*
G02X293819Y229000I1181J0*
G01*
X296424Y225837D02*
G75*
D01*
G02X293576Y225837I-1424J3163*
G01*
X295000Y227261D01*
X296424Y225837D01*
X293576Y232163D02*
G75*
D01*
G02X296424Y232163I1424J-3163*
G01*
X295000Y230739D01*
X293576Y232163D01*
X354957Y230550D02*
G75*
D01*
G02X353450Y229043I-1507J0*
G01*
X346550Y229043D01*
G75*
D01*
G02X345043Y230550I0J1507*
G01*
X345043Y237450D01*
G75*
D01*
G02X346550Y238957I1507J0*
G01*
X353450Y238957D01*
G74*
D01*
G02X354957Y237450I0J1507*
G01*
X354957Y230550D01*
X322837Y261424D02*
X324261Y260000D01*
X322837Y258576D01*
G75*
D01*
G02X322837Y261424I3163J1424*
G01*
X329163Y261424D02*
G75*
D01*
G02X329163Y258576I-3163J-1424*
G01*
X327739Y260000D01*
X329163Y261424D01*
X324819Y260000D02*
G75*
D01*
G02X324819Y260000I1181J0*
G01*
X327424Y256837D02*
G75*
D01*
G02X324576Y256837I-1424J3163*
G01*
X326000Y258261D01*
X327424Y256837D01*
X324576Y263163D02*
G75*
D01*
G02X327424Y263163I1424J-3163*
G01*
X326000Y261739D01*
X324576Y263163D01*
X205307Y205793D02*
X206730Y204370D01*
X205307Y202946D01*
G75*
D01*
G02X205307Y205793I3163J1424*
G01*
X211633Y205793D02*
G75*
D01*
G02X211633Y202946I-3163J-1423*
G01*
X210209Y204370D01*
X211633Y205793D01*
X207289Y204370D02*
G75*
D01*
G02X207289Y204370I1181J0*
G01*
X209893Y201207D02*
G75*
D01*
G02X207046Y201207I-1423J3163*
G01*
X208470Y202630D01*
X209893Y201207D01*
X277837Y205424D02*
X279261Y204000D01*
X277837Y202576D01*
G75*
D01*
G02X277837Y205424I3163J1424*
G01*
X207046Y207533D02*
G75*
D01*
G02X209893Y207533I1424J-3163*
G01*
X208470Y206109D01*
X207046Y207533D01*
X190893Y227207D02*
G75*
D01*
G02X188046Y227207I-1423J3163*
G01*
X189470Y228630D01*
X190893Y227207D01*
X188046Y233533D02*
G75*
D01*
G02X190893Y233533I1424J-3163*
G01*
X189470Y232109D01*
X188046Y233533D01*
X188289Y230370D02*
G75*
D01*
G02X188289Y230370I1181J0*
G01*
X192633Y231793D02*
G75*
D01*
G02X192633Y228946I-3163J-1423*
G01*
X191209Y230370D01*
X192633Y231793D01*
X265576Y236163D02*
G75*
D01*
G02X268424Y236163I1424J-3163*
G01*
X267000Y234739D01*
X265576Y236163D01*
X268424Y229837D02*
G75*
D01*
G02X265576Y229837I-1424J3163*
G01*
X267000Y231261D01*
X268424Y229837D01*
X265819Y233000D02*
G75*
D01*
G02X265819Y233000I1181J0*
G01*
X263837Y234424D02*
X265261Y233000D01*
X263837Y231576D01*
G75*
D01*
G02X263837Y234424I3163J1424*
G01*
X270163Y234424D02*
G75*
D01*
G02X270163Y231576I-3163J-1424*
G01*
X268739Y233000D01*
X270163Y234424D01*
X357576Y187163D02*
G75*
D01*
G02X360424Y187163I1424J-3163*
G01*
X359000Y185739D01*
X357576Y187163D01*
X355837Y185424D02*
X357261Y184000D01*
X355837Y182576D01*
G75*
D01*
G02X355837Y185424I3163J1424*
G01*
X362163Y185424D02*
G75*
D01*
G02X362163Y182576I-3163J-1424*
G01*
X360739Y184000D01*
X362163Y185424D01*
X360424Y180837D02*
G75*
D01*
G02X357576Y180837I-1424J3163*
G01*
X359000Y182261D01*
X360424Y180837D01*
X350042Y170000D02*
G75*
D01*
G02X350042Y170000I1958J0*
G01*
X349910Y165645D02*
X352000Y167735D01*
X354090Y165645D01*
G74*
D01*
G02X353042Y165483I1048J3314*
G01*
X350959Y165483D01*
G75*
D01*
G02X349910Y165645I0J3476*
G01*
X347645Y172090D02*
X349735Y170000D01*
X347645Y167910D01*
G75*
D01*
G02X347483Y168959I3314J1049*
G01*
X347483Y171042D01*
G74*
D01*
G02X347645Y172090I3476J0*
G01*
X354090Y174355D02*
X352000Y172265D01*
X349910Y174355D01*
G75*
D01*
G02X350959Y174517I1049J-3313*
G01*
X353042Y174517D01*
G74*
D01*
G02X354090Y174355I0J3475*
G01*
X356355Y172090D02*
G74*
D01*
G02X356517Y171042I3313J1048*
G01*
X356517Y168959D01*
G75*
D01*
G02X356355Y167910I-3475J0*
G01*
X354265Y170000D01*
X356355Y172090D01*
X304827Y152990D02*
G75*
D01*
G02X304827Y157010I-2827J2010*
G01*
X306168Y157010D01*
X317601Y168443D01*
G75*
D01*
G02X320443Y165601I4399J1557*
G01*
X308423Y153581D01*
G74*
D01*
G02X307000Y152990I1423J1419*
G01*
X304827Y152990D01*
X307788Y172010D02*
G75*
D01*
G02X307802Y167960I4212J-2010*
G01*
X299420Y159578D01*
G75*
D01*
G02X296578Y162420I-3420J-578*
G01*
X305579Y171421D01*
G74*
D01*
G02X306612Y171972I1421J1421*
G01*
G75*
D01*
G02X307000Y172010I388J-1972*
G01*
X307788Y172010D01*
X319576Y153163D02*
G75*
D01*
G02X322424Y153163I1424J-3163*
G01*
X321000Y151739D01*
X319576Y153163D01*
X337333Y170000D02*
G75*
D01*
G02X337333Y170000I4667J0*
G01*
X327333Y170000D02*
G75*
D01*
G02X327333Y170000I4667J0*
G01*
X359576Y143163D02*
G75*
D01*
G02X362424Y143163I1424J-3163*
G01*
X361000Y141739D01*
X359576Y143163D01*
X322424Y146837D02*
G75*
D01*
G02X319576Y146837I-1424J3163*
G01*
X321000Y148261D01*
X322424Y146837D01*
X319819Y150000D02*
G75*
D01*
G02X319819Y150000I1181J0*
G01*
X324163Y151424D02*
G75*
D01*
G02X324163Y148576I-3163J-1424*
G01*
X322739Y150000D01*
X324163Y151424D01*
X317837Y151424D02*
X319261Y150000D01*
X317837Y148576D01*
G75*
D01*
G02X317837Y151424I3163J1424*
G01*
X364163Y141424D02*
G75*
D01*
G02X364163Y138576I-3163J-1424*
G01*
X362739Y140000D01*
X364163Y141424D01*
X359819Y140000D02*
G75*
D01*
G02X359819Y140000I1181J0*
G01*
X357837Y141424D02*
X359261Y140000D01*
X357837Y138576D01*
G75*
D01*
G02X357837Y141424I3163J1424*
G01*
X362424Y136837D02*
G75*
D01*
G02X359576Y136837I-1424J3163*
G01*
X361000Y138261D01*
X362424Y136837D01*
X306576Y130163D02*
G75*
D01*
G02X309424Y130163I1424J-3163*
G01*
X308000Y128739D01*
X306576Y130163D01*
X284721Y129717D02*
G75*
D01*
G02X284721Y129717I3185J0*
G01*
X356163Y121424D02*
G75*
D01*
G02X356163Y118576I-3163J-1424*
G01*
X354739Y120000D01*
X356163Y121424D01*
X351819Y120000D02*
G75*
D01*
G02X351819Y120000I1181J0*
G01*
X349837Y121424D02*
X351261Y120000D01*
X349837Y118576D01*
G75*
D01*
G02X349837Y121424I3163J1424*
G01*
X351576Y123163D02*
G75*
D01*
G02X354424Y123163I1424J-3163*
G01*
X353000Y121739D01*
X351576Y123163D01*
X311163Y128424D02*
G75*
D01*
G02X311163Y125576I-3163J-1424*
G01*
X309739Y127000D01*
X311163Y128424D01*
X306819Y127000D02*
G75*
D01*
G02X306819Y127000I1181J0*
G01*
X309424Y123837D02*
G75*
D01*
G02X306576Y123837I-1424J3163*
G01*
X308000Y125261D01*
X309424Y123837D01*
X304837Y128424D02*
X306261Y127000D01*
X304837Y125576D01*
G75*
D01*
G02X304837Y128424I3163J1424*
G01*
X354424Y116837D02*
G75*
D01*
G02X351576Y116837I-1424J3163*
G01*
X353000Y118261D01*
X354424Y116837D01*
X284721Y117906D02*
G75*
D01*
G02X284721Y117906I3185J0*
G01*
X363036Y110858D02*
G75*
D01*
G02X363036Y110858I4169J0*
G01*
X284721Y106094D02*
G75*
D01*
G02X284721Y106094I3185J0*
G01*
X353642Y102953D02*
X351876Y104719D01*
G75*
D01*
G02X356124Y104719I2124J-4719*
G01*
X354358Y102953D01*
G74*
D01*
G02X356953Y100358I358J2953*
G01*
X358719Y102124D01*
G75*
D01*
G02X358719Y97876I-4719J-2124*
G01*
X356953Y99642D01*
G74*
D01*
G02X354358Y97047I2953J358*
G01*
X356124Y95281D01*
G75*
D01*
G02X351876Y95281I-2124J4719*
G01*
X353642Y97047D01*
G74*
D01*
G02X351047Y99642I358J2953*
G01*
X349281Y97876D01*
G75*
D01*
G02X349281Y102124I4719J2124*
G01*
X351047Y100358D01*
G74*
D01*
G02X353642Y102953I2953J358*
G01*
X329058Y98468D02*
G75*
D01*
G02X329281Y102124I4942J1532*
G01*
X331047Y100358D01*
G74*
D01*
G02X333642Y102953I2953J358*
G01*
X331876Y104719D01*
G75*
D01*
G02X336124Y104719I2124J-4719*
G01*
X334358Y102953D01*
G74*
D01*
G02X336953Y100358I358J2953*
G01*
X338719Y102124D01*
G75*
D01*
G02X338719Y97876I-4719J-2124*
G01*
X336953Y99642D01*
G74*
D01*
G02X334358Y97047I2953J358*
G01*
X336124Y95281D01*
G75*
D01*
G02X332468Y95058I-2124J4719*
G01*
G75*
D01*
G02X332163Y93576I-3468J-58*
G01*
X330739Y95000D01*
X332163Y96424D01*
G74*
D01*
G02X332379Y95784I3163J1424*
G01*
X333642Y97047D01*
G74*
D01*
G02X331047Y99642I358J2953*
G01*
X329784Y98379D01*
G74*
D01*
G02X330424Y98163I784J3379*
G01*
X329000Y96739D01*
X327576Y98163D01*
G75*
D01*
G02X329058Y98468I1424J-3163*
G01*
X327819Y95000D02*
G75*
D01*
G02X327819Y95000I1181J0*
G01*
X317576Y98163D02*
G75*
D01*
G02X320424Y98163I1424J-3163*
G01*
X319000Y96739D01*
X317576Y98163D01*
X322576Y98163D02*
G75*
D01*
G02X325424Y98163I1424J-3163*
G01*
X324000Y96739D01*
X322576Y98163D01*
X307576Y98163D02*
G75*
D01*
G02X310424Y98163I1424J-3163*
G01*
X309000Y96739D01*
X307576Y98163D01*
X327163Y96424D02*
G75*
D01*
G02X327163Y93576I-3163J-1424*
G01*
X326500Y94239D01*
X325837Y93576D01*
G75*
D01*
G02X325837Y96424I3163J1424*
G01*
X326500Y95761D01*
X327163Y96424D01*
X322819Y95000D02*
G75*
D01*
G02X322819Y95000I1181J0*
G01*
X322163Y96424D02*
G75*
D01*
G02X322163Y93576I-3163J-1424*
G01*
X321500Y94239D01*
X320837Y93576D01*
G75*
D01*
G02X320837Y96424I3163J1424*
G01*
X321500Y95761D01*
X322163Y96424D01*
X317819Y95000D02*
G75*
D01*
G02X317819Y95000I1181J0*
G01*
X315837Y96424D02*
X317261Y95000D01*
X315837Y93576D01*
G75*
D01*
G02X315837Y96424I3163J1424*
G01*
X307819Y95000D02*
G75*
D01*
G02X307819Y95000I1181J0*
G01*
X312163Y96424D02*
G75*
D01*
G02X312163Y93576I-3163J-1424*
G01*
X310739Y95000D01*
X312163Y96424D01*
X305837Y96424D02*
X307261Y95000D01*
X305837Y93576D01*
G75*
D01*
G02X305837Y96424I3163J1424*
G01*
X357819Y184000D02*
G75*
D01*
G02X357819Y184000I1181J0*
G01*
X121576Y271163D02*
G75*
D01*
G02X124424Y271163I1424J-3163*
G01*
X123000Y269739D01*
X121576Y271163D01*
X106626Y223000D02*
G75*
D01*
G02X106626Y223000I9374J0*
G01*
X141335Y217543D02*
G75*
D01*
G02X141335Y217543I4071J0*
G01*
X150827Y265010D02*
X158000Y265010D01*
G74*
D01*
G02X160010Y263000I0J2010*
G01*
X160010Y237724D01*
G75*
D01*
G02X155990Y239318I-3010J-1724*
G01*
X155990Y260990D01*
X150827Y260990D01*
G75*
D01*
G02X150827Y265010I-2827J2010*
G01*
X119837Y245424D02*
X121261Y244000D01*
X119837Y242576D01*
G75*
D01*
G02X119837Y245424I3163J1424*
G01*
X126163Y245424D02*
G75*
D01*
G02X126163Y242576I-3163J-1424*
G01*
X124739Y244000D01*
X126163Y245424D01*
X121819Y244000D02*
G75*
D01*
G02X121819Y244000I1181J0*
G01*
X124424Y240837D02*
G75*
D01*
G02X121576Y240837I-1424J3163*
G01*
X123000Y242261D01*
X124424Y240837D01*
X172424Y242837D02*
G75*
D01*
G02X169576Y242837I-1424J3163*
G01*
X171000Y244261D01*
X172424Y242837D01*
X121576Y247163D02*
G75*
D01*
G02X124424Y247163I1424J-3163*
G01*
X123000Y245739D01*
X121576Y247163D01*
X174163Y247424D02*
G75*
D01*
G02X174163Y244576I-3163J-1424*
G01*
X172739Y246000D01*
X174163Y247424D01*
X167837Y247424D02*
X169261Y246000D01*
X167837Y244576D01*
G75*
D01*
G02X167837Y247424I3163J1424*
G01*
X169576Y249163D02*
G75*
D01*
G02X172424Y249163I1424J-3163*
G01*
X171000Y247739D01*
X169576Y249163D01*
X169819Y246000D02*
G75*
D01*
G02X169819Y246000I1181J0*
G01*
X126163Y257424D02*
G75*
D01*
G02X126163Y254576I-3163J-1424*
G01*
X124739Y256000D01*
X126163Y257424D01*
X119837Y257424D02*
X121261Y256000D01*
X119837Y254576D01*
G75*
D01*
G02X119837Y257424I3163J1424*
G01*
X121576Y259163D02*
G75*
D01*
G02X124424Y259163I1424J-3163*
G01*
X123000Y257739D01*
X121576Y259163D01*
X124424Y252837D02*
G75*
D01*
G02X121576Y252837I-1424J3163*
G01*
X123000Y254261D01*
X124424Y252837D01*
X121819Y256000D02*
G75*
D01*
G02X121819Y256000I1181J0*
G01*
X119837Y269424D02*
X121261Y268000D01*
X119837Y266576D01*
G75*
D01*
G02X119837Y269424I3163J1424*
G01*
X126163Y269424D02*
G75*
D01*
G02X126163Y266576I-3163J-1424*
G01*
X124739Y268000D01*
X126163Y269424D01*
X121819Y268000D02*
G75*
D01*
G02X121819Y268000I1181J0*
G01*
X124424Y264837D02*
G75*
D01*
G02X121576Y264837I-1424J3163*
G01*
X123000Y266261D01*
X124424Y264837D01*
X398493Y1507D02*
X398493Y326493D01*
X1507Y326493D01*
X1507Y1507D01*
X398493Y1507D01*
X273580Y172578D02*
X266578Y179580D01*
G75*
D01*
G02X265420Y179580I-578J3420*
G01*
G74*
D01*
G02X265446Y179396I3420J580*
G01*
X273620Y171222D01*
G75*
D01*
G02X273580Y172578I3380J778*
G01*
X67417Y185488D02*
G74*
D01*
G02X67827Y185010I2417J2488*
G01*
X69243Y185010D01*
G74*
D01*
G02X68608Y185488I1757J2990*
G01*
X67417Y185488D01*
X236534Y138864D02*
X234010Y136339D01*
X234010Y133852D01*
X235579Y135421D01*
G75*
D01*
G02X237003Y136010I1421J-1421*
G01*
X237173Y136010D01*
G74*
D01*
G02X237596Y136500I2827J2010*
G01*
G74*
D01*
G02X236534Y138864I2404J2500*
G01*
X80630Y179043D02*
X86957Y179043D01*
X65000Y183000D02*
X90000Y183000D01*
X151000Y183000D02*
X170000Y183000D01*
X151000Y192000D02*
X153000Y190000D01*
X170000Y190000D01*
X65000Y174000D02*
X81000Y174000D01*
X151000Y174000D02*
X170000Y174000D01*
X185920Y209450D02*
X185920Y173080D01*
X271000Y158000D02*
X272000Y158000D01*
X277000Y172000D02*
X266000Y183000D01*
X277000Y165000D02*
X263000Y179000D01*
X262000Y179000D01*
X272000Y158000D02*
X272000Y162000D01*
X259000Y175000D01*
X185920Y173080D02*
X191000Y168000D01*
X192000Y168000D01*
X66000Y192000D02*
X89000Y192000D01*
X285000Y143000D02*
X278000Y150000D01*
X268000Y148000D02*
X272000Y144000D01*
X240000Y139000D02*
X249000Y139000D01*
X256000Y132000D01*
X256000Y121000D01*
X232000Y113000D02*
X227000Y108000D01*
X230000Y122000D02*
X226000Y118000D01*
X202000Y127000D02*
X205000Y124000D01*
X205000Y123000D01*
X202000Y127000D02*
X170000Y127000D01*
X234000Y108000D02*
X234000Y131000D01*
X237000Y134000D02*
X240000Y134000D01*
X234000Y131000D02*
X237000Y134000D01*
X216172Y127000D02*
X239172Y150000D01*
X232000Y137172D02*
X232000Y113000D01*
X238828Y144000D02*
X232000Y137172D01*
X243000Y144000D02*
X238828Y144000D01*
X240000Y148000D02*
X268000Y148000D01*
X230000Y138000D02*
X230000Y122000D01*
X230000Y138000D02*
X240000Y148000D01*
X215000Y127000D02*
X216172Y127000D01*
X278000Y150000D02*
X239172Y150000D01*
X270000Y38000D02*
X270000Y85000D01*
X280000Y38000D02*
X280000Y85000D01*
X87000Y172000D02*
X87000Y179000D01*
X62000Y31000D02*
X273000Y31000D01*
X280000Y38000D01*
X62000Y37000D02*
X62000Y31000D01*
X275000Y275000D02*
X289000Y261000D01*
X170000Y128000D02*
X170000Y127000D01*
X170000Y103000D02*
X178000Y95000D01*
X216000Y95000D01*
X158000Y237000D02*
X157000Y236000D01*
X158000Y263000D02*
X158000Y237000D01*
X148000Y263000D02*
X158000Y263000D01*
X173500Y130500D02*
X203500Y130500D01*
X173500Y130500D02*
X170000Y134000D01*
X171000Y138000D02*
X158000Y138000D01*
X203500Y130500D02*
X222000Y112000D01*
X213000Y157000D02*
X184000Y157000D01*
X175000Y134000D02*
X214000Y134000D01*
X184000Y157000D02*
X170000Y143000D01*
X214000Y134000D02*
X215000Y133000D01*
X158000Y138000D02*
X155000Y141000D01*
X171000Y138000D02*
X175000Y134000D01*
X301000Y209000D02*
X304000Y206000D01*
X301000Y237000D02*
X301000Y209000D01*
X279000Y94000D02*
X270000Y85000D01*
X231000Y275000D02*
X275000Y275000D01*
X289000Y146000D02*
X294000Y141000D01*
X304000Y190000D02*
X289000Y175000D01*
X289000Y146000D01*
X304000Y206000D02*
X304000Y190000D01*
X307000Y170000D02*
X296000Y159000D01*
X312000Y170000D02*
X307000Y170000D01*
X307000Y155000D02*
X322000Y170000D01*
X302000Y155000D02*
X307000Y155000D01*
X294000Y140000D02*
X294000Y139000D01*
X84000Y169000D02*
X87000Y172000D01*
X47000Y171000D02*
X49000Y169000D01*
X290000Y94000D02*
X279000Y94000D01*
X290000Y94000D02*
X295000Y99000D01*
X0Y0D02*
X400000Y0D01*
X400000Y328000D01*
X0Y328000D01*
X0Y0D01*
G54D12*
X302000Y101000D02*
X302000Y54000D01*
X306000Y50000D01*
X40000Y188000D02*
X71000Y188000D01*
X71500Y196819D02*
X71189Y196819D01*
X40319Y196319D02*
X40000Y196000D01*
X40319Y196319D02*
X71000Y196319D01*
X71500Y196819D02*
X71000Y196319D01*
G54D13*
X87000Y205000D02*
X96000Y196000D01*
X96000Y96756D02*
X96000Y196000D01*
X96000Y96756D02*
X87244Y88000D01*
X87244Y72244D01*
G54D14*
X42000Y248000D03*
X206000Y105000D03*
X309000Y85000D03*
X309000Y95000D03*
X353000Y120000D03*
X361000Y140000D03*
X390000Y140000D03*
X359000Y184000D03*
X206000Y140000D03*
X307000Y79000D03*
X87000Y179000D03*
X46000Y220000D03*
X58000Y215000D03*
X68000Y215000D03*
X208470Y204370D03*
X189470Y230370D03*
X250000Y156000D03*
X321000Y150000D03*
X171000Y246000D03*
X231749Y83827D03*
X186000Y123000D03*
X123000Y244000D03*
X123000Y256000D03*
X123000Y268000D03*
X213000Y157000D03*
X155000Y130000D03*
X155000Y118000D03*
X207000Y84000D03*
X81000Y174000D03*
X205000Y123000D03*
X170000Y128000D03*
X222000Y112000D03*
X324000Y84000D03*
X319000Y84000D03*
X329000Y84000D03*
X319000Y95000D03*
X324000Y95000D03*
X329000Y95000D03*
X266000Y183000D03*
X277000Y172000D03*
X234000Y107000D03*
X240000Y134000D03*
X170000Y143000D03*
X62000Y37000D03*
X280000Y85000D03*
X256000Y121000D03*
X240000Y139000D03*
X192000Y168000D03*
X185920Y209450D03*
X306000Y50000D03*
X302000Y101000D03*
X155000Y141000D03*
X215000Y133000D03*
X227000Y107000D03*
X243000Y144000D03*
X302000Y155000D03*
X66000Y192000D03*
X89000Y192000D03*
X151000Y192000D03*
X170000Y190000D03*
X262000Y179000D03*
X277000Y165000D03*
X215000Y127000D03*
X285000Y143000D03*
X226000Y118000D03*
X272000Y144000D03*
X65000Y183000D03*
X90000Y183000D03*
X151000Y183000D03*
X170000Y183000D03*
X258000Y175000D03*
X272000Y158000D03*
X71000Y196000D03*
X40000Y196000D03*
X71000Y188000D03*
X40000Y188000D03*
X157000Y236000D03*
X148000Y263000D03*
X301000Y237000D03*
X304000Y206000D03*
X294000Y140000D03*
X295000Y99000D03*
X270000Y85000D03*
X65000Y174000D03*
X151000Y174000D03*
X170000Y174000D03*
X170000Y134000D03*
X296000Y159000D03*
X216000Y95000D03*
X170000Y103000D03*
X231000Y275000D03*
X289000Y261000D03*
X87000Y205000D03*
X87000Y72000D03*
X315000Y214000D03*
X72000Y70000D03*
X113000Y72000D03*
X250000Y66000D03*
X38000Y233000D03*
X47000Y171000D03*
X76000Y247000D03*
X267000Y233000D03*
X281000Y204000D03*
X295000Y229000D03*
X326000Y260000D03*
X308000Y127000D03*
X386000Y262000D03*
G54D15*
X263000Y320000D03*
X263000Y300000D03*
X293000Y310000D03*
X74000Y300000D03*
X74000Y320000D03*
X44000Y310000D03*
X392795Y93142D03*
X392795Y110858D03*
X367205Y93142D03*
X367205Y110858D03*
G54D16*
X290000Y38000D03*
X280000Y38000D03*
X270000Y38000D03*
X260000Y38000D03*
G54D17*
X250000Y38000D03*
G54D18*
X68000Y122000D03*
X28000Y122000D03*
G54D19*
X342000Y170000D03*
X332000Y170000D03*
X312000Y170000D03*
X322000Y170000D03*
G54D20*
X352000Y170000D03*
G54D21*
X350959Y168959D02*
X353041Y168959D01*
X353041Y171041D01*
X350959Y171041D01*
X350959Y168959D01*D02*
G54D22*
X350000Y234000D03*
X140000Y88000D03*
G54D23*
X350000Y286756D03*
X87244Y88000D03*
G54D24*
X344000Y90000D03*
X334000Y100000D03*
X354000Y100000D03*
X334000Y80000D03*
X354000Y80000D03*
G54D25*
X287906Y106094D03*
X276094Y106094D03*
X264283Y106094D03*
X287906Y117906D03*
X276094Y117906D03*
X264283Y117906D03*
X287906Y129717D03*
X276094Y129717D03*
X264283Y129717D03*
G54D26*
X210000Y69969D03*
X210000Y66031D03*
G54D27*
X145406Y217543D03*
G54D28*
X145000Y110457D03*

M02*
