G04 Generated by Ultiboard 14.1 *
%FSLAX25Y25*%
%MOIN*%

%ADD10C,0.00001*%
%ADD11C,0.01000*%
%ADD12C,0.03937*%
%ADD13C,0.10000*%
%ADD14C,0.05731*%
%ADD15C,0.03762*%


G04 ColorRGB 0000FF for the following layer *
%LNCopper Bottom*%
%LPD*%
G54D10*
G36*
X98493Y98493D02*
X98493Y98493D01*
X1507Y98493D01*
X1507Y1507D01*
X98493Y1507D01*
X98493Y98493D01*
D02*
G37*
%LPC*%
G36*
X8500Y15000D02*
G75*
D01*
G02X8500Y15000I6500J0*
G01*
D02*
G37*
G36*
X78500Y15000D02*
G75*
D01*
G02X78500Y15000I6500J0*
G01*
D02*
G37*
G36*
X15635Y49047D02*
G75*
D01*
G02X15635Y49047I4365J0*
G01*
D02*
G37*
G36*
X7662Y55937D02*
G75*
D01*
G02X7662Y55937I3381J0*
G01*
D02*
G37*
G36*
X25576Y55937D02*
G75*
D01*
G02X25576Y55937I3381J0*
G01*
D02*
G37*
G36*
X8500Y85000D02*
G75*
D01*
G02X8500Y85000I6500J0*
G01*
D02*
G37*
G36*
X78500Y85000D02*
G75*
D01*
G02X78500Y85000I6500J0*
G01*
D02*
G37*
%LPD*%
G54D11*
X8500Y15000D02*
G75*
D01*
G02X8500Y15000I6500J0*
G01*
X78500Y15000D02*
G75*
D01*
G02X78500Y15000I6500J0*
G01*
X15635Y49047D02*
G75*
D01*
G02X15635Y49047I4365J0*
G01*
X7662Y55937D02*
G75*
D01*
G02X7662Y55937I3381J0*
G01*
X25576Y55937D02*
G75*
D01*
G02X25576Y55937I3381J0*
G01*
X8500Y85000D02*
G75*
D01*
G02X8500Y85000I6500J0*
G01*
X78500Y85000D02*
G75*
D01*
G02X78500Y85000I6500J0*
G01*
X98493Y98493D02*
X1507Y98493D01*
X1507Y1507D01*
X98493Y1507D01*
X98493Y98493D01*
X0Y0D02*
X100000Y0D01*
X100000Y100000D01*
X0Y100000D01*
X0Y0D01*
G54D12*
X61000Y48000D03*
G54D13*
X15000Y85000D03*
X85000Y85000D03*
X85000Y15000D03*
X15000Y15000D03*
G54D14*
X20000Y49047D03*
G54D15*
X11043Y48063D03*
X28957Y48063D03*
X11043Y55937D03*
X28957Y55937D03*

M02*
