G04 Generated by Ultiboard 14.1 *
%FSLAX25Y25*%
%MOIN*%

%ADD10C,0.00001*%
%ADD11C,0.01000*%
%ADD12C,0.03000*%
%ADD13C,0.03937*%
%ADD14R,0.11811X0.06299*%
%ADD15R,0.21654X0.03937*%
%ADD16C,0.10000*%
%ADD17R,0.04168X0.01084*%
%ADD18C,0.01666*%
%ADD19R,0.01084X0.04168*%
%ADD20C,0.05731*%
%ADD21C,0.03762*%


G04 ColorRGB 00FF00 for the following layer *
%LNCopper Top*%
%LPD*%
G54D10*
G54D11*
X61000Y48000D02*
X63000Y50000D01*
X73000Y50000D01*
X11043Y55937D02*
X8937Y55937D01*
X6000Y53000D01*
X6000Y44000D01*
X10000Y40000D01*
X40250Y40000D01*
X40250Y51250D01*
X40250Y51000D02*
X43250Y54000D01*
X56000Y54000D01*
X59937Y57937D01*
X75173Y57937D01*
X0Y0D02*
X100000Y0D01*
X100000Y100000D01*
X0Y100000D01*
X0Y0D01*
G54D12*
X75173Y42189D02*
X49939Y42189D01*
X47750Y40000D01*
X47750Y50000D01*
X48000Y57750D02*
X30770Y57750D01*
X28957Y55937D01*
G54D13*
X61000Y48000D03*
G54D14*
X84425Y32740D03*
X84425Y67386D03*
G54D15*
X75173Y42189D03*
X75173Y50063D03*
X75173Y57937D03*
G54D16*
X15000Y85000D03*
X85000Y85000D03*
X85000Y15000D03*
X15000Y15000D03*
G54D17*
X48000Y50250D03*
X48000Y57750D03*
G54D18*
X45916Y49708D02*
X50084Y49708D01*
X50084Y50792D01*
X45916Y50792D01*
X45916Y49708D01*D02*
X45916Y57208D02*
X50084Y57208D01*
X50084Y58292D01*
X45916Y58292D01*
X45916Y57208D01*D02*
X39708Y37916D02*
X40792Y37916D01*
X40792Y42084D01*
X39708Y42084D01*
X39708Y37916D01*D02*
X47208Y37916D02*
X48292Y37916D01*
X48292Y42084D01*
X47208Y42084D01*
X47208Y37916D01*D02*
G54D19*
X40250Y40000D03*
X47750Y40000D03*
G54D20*
X20000Y49047D03*
G54D21*
X11043Y48063D03*
X28957Y48063D03*
X11043Y55937D03*
X28957Y55937D03*

M02*
