G04 Generated by Ultiboard 14.1 *
%FSLAX25Y25*%
%MOIN*%

%ADD10C,0.00001*%
%ADD11C,0.01000*%
%ADD12C,0.02000*%
%ADD13C,0.03000*%
%ADD14C,0.00500*%
%ADD15C,0.00004*%
%ADD16C,0.03937*%
%ADD17C,0.05337*%
%ADD18C,0.07349*%
%ADD19C,0.05400*%
%ADD20R,0.05400X0.05400*%
%ADD21C,0.07166*%
%ADD22C,0.06334*%
%ADD23R,0.02083X0.02083*%
%ADD24C,0.03917*%
%ADD25R,0.06900X0.06900*%
%ADD26C,0.06900*%
%ADD27C,0.05140*%
%ADD28C,0.04156*%
%ADD29C,0.02581*%


G04 ColorRGB 0000FF for the following layer *
%LNCopper Bottom*%
%LPD*%
G54D10*
G36*
X398493Y324876D02*
X398493Y324876D01*
X398493Y1507D01*
X1507Y1507D01*
X1507Y326493D01*
X396876Y326493D01*
G74*
D01*
G03X398493Y324876I3124J1507*
G01*
D02*
G37*
%LPC*%
G36*
X273000Y28990D02*
G74*
D01*
G03X274423Y29581I0J2010*
G01*
X274423Y29581D01*
X278813Y33971D01*
G75*
D01*
G03X282010Y41688I1187J4029*
G01*
X282010Y41688D01*
X282010Y82173D01*
G75*
D01*
G03X277990Y82173I-2010J2827*
G01*
X277990Y82173D01*
X277990Y41688D01*
G75*
D01*
G03X275971Y36813I2010J-3688*
G01*
X275971Y36813D01*
X272168Y33010D01*
X64010Y33010D01*
X64010Y34173D01*
G75*
D01*
G03X59990Y34173I-2010J2827*
G01*
X59990Y34173D01*
X59990Y31000D01*
G75*
D01*
G03X62000Y28990I2010J0*
G01*
X62000Y28990D01*
X273000Y28990D01*
D02*
G37*
G36*
X42392Y190512D02*
G75*
D01*
G03X42392Y185488I-2392J-2512*
G01*
X42392Y185488D01*
X62583Y185488D01*
G75*
D01*
G03X67827Y180990I2417J-2488*
G01*
X67827Y180990D01*
X86749Y180990D01*
X87000Y180739D01*
X87206Y180945D01*
G74*
D01*
G03X89335Y179596I2794J2055*
G01*
X89335Y179596D01*
X88739Y179000D01*
X90163Y177576D01*
G75*
D01*
G03X90423Y179557I-3163J1424*
G01*
G75*
D01*
G03X87173Y185010I-423J3443*
G01*
X87173Y185010D01*
X72757Y185010D01*
G75*
D01*
G03X73841Y189990I-1757J2990*
G01*
X73841Y189990D01*
X86173Y189990D01*
G75*
D01*
G03X86173Y194010I2827J2010*
G01*
X86173Y194010D01*
X73841Y194010D01*
G75*
D01*
G03X73008Y198828I-2841J1990*
G01*
G74*
D01*
G03X72881Y198918I1508J2009*
G01*
G74*
D01*
G03X72597Y199079I1381J2099*
G01*
G75*
D01*
G03X68996Y198831I-1597J-3079*
G01*
X68996Y198831D01*
X42004Y198831D01*
G75*
D01*
G03X42687Y193807I-2004J-2831*
G01*
X42687Y193807D01*
X63039Y193807D01*
G75*
D01*
G03X62867Y190512I2961J-1807*
G01*
X62867Y190512D01*
X42392Y190512D01*
D02*
G37*
G36*
X306085Y53467D02*
X306085Y53467D01*
X304512Y55041D01*
X304512Y78252D01*
X305261Y79000D01*
X304512Y79748D01*
X304512Y98608D01*
G75*
D01*
G03X299488Y98608I-2512J2392*
G01*
X299488Y98608D01*
X299488Y54004D01*
G75*
D01*
G03X300224Y52224I2512J-4*
G01*
X300224Y52224D01*
X302533Y49915D01*
G75*
D01*
G03X306085Y53467I3467J85*
G01*
D02*
G37*
G36*
X310424Y91837D02*
X310424Y91837D01*
X309280Y92981D01*
X309280Y92981D01*
X309000Y93261D01*
X308720Y92981D01*
X308720Y92981D01*
X307576Y91837D01*
G75*
D01*
G03X310424Y91837I1424J3163*
G01*
D02*
G37*
G36*
X331876Y93281D02*
G75*
D01*
G03X336124Y93281I2124J4719*
G01*
X336124Y93281D01*
X334358Y95047D01*
G74*
D01*
G03X336953Y97642I358J2953*
G01*
X336953Y97642D01*
X338719Y95876D01*
G75*
D01*
G03X338719Y100124I-4719J2124*
G01*
X338719Y100124D01*
X336953Y98358D01*
G74*
D01*
G03X334358Y100953I2953J358*
G01*
X334358Y100953D01*
X336124Y102719D01*
G75*
D01*
G03X331876Y102719I-2124J-4719*
G01*
X331876Y102719D01*
X333642Y100953D01*
G74*
D01*
G03X331047Y98358I358J2953*
G01*
X331047Y98358D01*
X329281Y100124D01*
G75*
D01*
G03X329281Y95876I4719J-2124*
G01*
X329281Y95876D01*
X331047Y97642D01*
G74*
D01*
G03X333642Y95047I2953J358*
G01*
X333642Y95047D01*
X331876Y93281D01*
D02*
G37*
G36*
X345402Y92981D02*
G75*
D01*
G03X345402Y92981I-1402J-4981*
G01*
D02*
G37*
G36*
X351876Y93281D02*
G75*
D01*
G03X356124Y93281I2124J4719*
G01*
X356124Y93281D01*
X354358Y95047D01*
G74*
D01*
G03X356953Y97642I358J2953*
G01*
X356953Y97642D01*
X358719Y95876D01*
G75*
D01*
G03X358719Y100124I-4719J2124*
G01*
X358719Y100124D01*
X356953Y98358D01*
G74*
D01*
G03X354358Y100953I2953J358*
G01*
X354358Y100953D01*
X356124Y102719D01*
G75*
D01*
G03X351876Y102719I-2124J-4719*
G01*
X351876Y102719D01*
X353642Y100953D01*
G74*
D01*
G03X351047Y98358I358J2953*
G01*
X351047Y98358D01*
X349281Y100124D01*
G75*
D01*
G03X349281Y95876I4719J-2124*
G01*
X349281Y95876D01*
X351047Y97642D01*
G74*
D01*
G03X353642Y95047I2953J358*
G01*
X353642Y95047D01*
X351876Y93281D01*
D02*
G37*
G36*
X371370Y92981D02*
G75*
D01*
G03X371370Y92981I-4165J161*
G01*
D02*
G37*
G36*
X281580Y143578D02*
G75*
D01*
G03X288380Y143778I3420J-578*
G01*
X288380Y143778D01*
X290806Y141352D01*
G75*
D01*
G03X294396Y143446I3194J-1352*
G01*
X294396Y143446D01*
X291010Y146832D01*
X291010Y174168D01*
X304311Y187469D01*
X305419Y188577D01*
G75*
D01*
G03X306010Y190000I-1419J1423*
G01*
X306010Y190000D01*
X306010Y203173D01*
G75*
D01*
G03X303422Y209420I-2010J2827*
G01*
X303422Y209420D01*
X303010Y209832D01*
X303010Y234173D01*
G75*
D01*
G03X298990Y234173I-2010J2827*
G01*
X298990Y234173D01*
X298990Y209003D01*
G75*
D01*
G03X299579Y207579I2010J-3*
G01*
X299579Y207579D01*
X300580Y206578D01*
G75*
D01*
G03X301990Y203173I3420J-578*
G01*
X301990Y203173D01*
X301990Y190832D01*
X298627Y187469D01*
X298627Y187469D01*
X287579Y176421D01*
G75*
D01*
G03X286990Y174996I1421J-1421*
G01*
X286990Y174996D01*
X286990Y146003D01*
G75*
D01*
G03X286997Y145836I2010J-3*
G01*
G75*
D01*
G03X284422Y146420I-1997J-2836*
G01*
X284422Y146420D01*
X281957Y148885D01*
X281957Y148885D01*
X279423Y151419D01*
G74*
D01*
G03X278184Y152001I1423J1419*
G01*
G75*
D01*
G03X277999Y152010I-184J-2001*
G01*
X277999Y152010D01*
X239173Y152010D01*
G75*
D01*
G03X237751Y151421I-1J-2010*
G01*
X237751Y151421D01*
X218318Y131988D01*
G75*
D01*
G03X213276Y136010I-3318J1012*
G01*
X213276Y136010D01*
X175832Y136010D01*
X172423Y139419D01*
G74*
D01*
G03X171595Y139920I1423J1419*
G01*
G75*
D01*
G03X173420Y143578I-1595J3080*
G01*
X173420Y143578D01*
X184832Y154990D01*
X210173Y154990D01*
G75*
D01*
G03X210173Y159010I2827J2010*
G01*
X210173Y159010D01*
X184000Y159010D01*
G75*
D01*
G03X183361Y158905I0J-2010*
G01*
G74*
D01*
G03X182579Y158421I639J1905*
G01*
X182579Y158421D01*
X170578Y146420D01*
G75*
D01*
G03X168243Y140010I-578J-3420*
G01*
X168243Y140010D01*
X158832Y140010D01*
X158420Y140422D01*
G75*
D01*
G03X155578Y137580I-3420J578*
G01*
X155578Y137580D01*
X156579Y136579D01*
G74*
D01*
G03X157594Y136032I1421J1421*
G01*
G75*
D01*
G03X158000Y135990I406J1968*
G01*
X158000Y135990D01*
X167159Y135990D01*
G75*
D01*
G03X168259Y131000I2841J-1990*
G01*
G75*
D01*
G03X171724Y124990I1741J-3000*
G01*
X171724Y124990D01*
X185749Y124990D01*
X186000Y124739D01*
X186251Y124990D01*
X201168Y124990D01*
X201806Y124352D01*
G75*
D01*
G03X208456Y122702I3194J-1352*
G01*
X208456Y122702D01*
X218580Y112578D01*
G75*
D01*
G03X221422Y115420I3420J-578*
G01*
X221422Y115420D01*
X204923Y131919D01*
G74*
D01*
G03X204848Y131990I1423J1419*
G01*
X204848Y131990D01*
X211682Y131990D01*
G74*
D01*
G03X213259Y130000I3318J1010*
G01*
G75*
D01*
G03X218417Y126403I1741J-3000*
G01*
X218417Y126403D01*
X227990Y135977D01*
X227990Y122832D01*
X226578Y121420D01*
G75*
D01*
G03X229420Y118578I-578J-3420*
G01*
X229420Y118578D01*
X229990Y119148D01*
X229990Y113832D01*
X226604Y110446D01*
G75*
D01*
G03X230194Y108352I396J-3446*
G01*
X230194Y108352D01*
X231990Y110148D01*
X231990Y109827D01*
G75*
D01*
G03X236010Y109827I2010J-2827*
G01*
X236010Y109827D01*
X236010Y130168D01*
X237470Y131628D01*
G75*
D01*
G03X242404Y136500I2530J2372*
G01*
G74*
D01*
G03X242827Y136990I2404J2500*
G01*
X242827Y136990D01*
X248168Y136990D01*
X253990Y131168D01*
X253990Y123827D01*
G75*
D01*
G03X258010Y123827I2010J-2827*
G01*
X258010Y123827D01*
X258010Y132000D01*
G74*
D01*
G03X257419Y133423I2010J0*
G01*
X257419Y133423D01*
X250423Y140419D01*
G74*
D01*
G03X249000Y141010I1423J1419*
G01*
X249000Y141010D01*
X244757Y141010D01*
G75*
D01*
G03X245841Y145990I-1757J2990*
G01*
X245841Y145990D01*
X267168Y145990D01*
X268580Y144578D01*
G75*
D01*
G03X271422Y147420I3420J-578*
G01*
X271422Y147420D01*
X270852Y147990D01*
X277168Y147990D01*
X281580Y143578D01*
D02*
G37*
G36*
X279000Y96010D02*
G75*
D01*
G03X278865Y96005I0J-2010*
G01*
G74*
D01*
G03X277579Y95421I135J2005*
G01*
X277579Y95421D01*
X275139Y92981D01*
X275139Y92981D01*
X270578Y88420D01*
G75*
D01*
G03X267990Y82173I-578J-3420*
G01*
X267990Y82173D01*
X267990Y41688D01*
G75*
D01*
G03X272010Y41688I2010J-3688*
G01*
X272010Y41688D01*
X272010Y82173D01*
G75*
D01*
G03X273420Y85578I-2010J2827*
G01*
X273420Y85578D01*
X279832Y91990D01*
X290000Y91990D01*
G74*
D01*
G03X291423Y92581I0J2010*
G01*
X291423Y92581D01*
X291823Y92981D01*
X291823Y92981D01*
X294422Y95580D01*
G75*
D01*
G03X291580Y98422I578J3420*
G01*
X291580Y98422D01*
X289168Y96010D01*
X279000Y96010D01*
D02*
G37*
G36*
X376445Y32614D02*
G75*
D01*
G03X376445Y32614I-1445J-7614*
G01*
D02*
G37*
G36*
X88716Y201985D02*
X88716Y201985D01*
X94751Y201985D01*
X97985Y198751D01*
X97985Y91015D01*
X91170Y91015D01*
G75*
D01*
G03X91170Y84985I-3926J-3015*
G01*
X91170Y84985D01*
X97985Y84985D01*
X97985Y69824D01*
G75*
D01*
G03X103354Y66117I2015J-2824*
G01*
G75*
D01*
G03X104015Y68000I-2354J1883*
G01*
X104015Y68000D01*
X104015Y200000D01*
G74*
D01*
G03X103129Y202134I3015J0*
G01*
X103129Y202134D01*
X98134Y207129D01*
G74*
D01*
G03X96000Y208015I2134J2129*
G01*
X96000Y208015D01*
X88716Y208015D01*
G75*
D01*
G03X88716Y201985I-1716J-3015*
G01*
D02*
G37*
G36*
X376446Y310614D02*
G75*
D01*
G03X376446Y310614I-1446J-7614*
G01*
D02*
G37*
G36*
X394757Y92981D02*
G75*
D01*
G03X394757Y92981I-1962J161*
G01*
D02*
G37*
G36*
X396597Y94853D02*
X396597Y94853D01*
X394886Y93142D01*
X395047Y92981D01*
X395047Y92981D01*
X396597Y91431D01*
G75*
D01*
G03X396597Y94853I-3802J1711*
G01*
D02*
G37*
G36*
X388994Y94853D02*
G75*
D01*
G03X388994Y91431I3801J-1711*
G01*
X388994Y91431D01*
X390544Y92981D01*
X390544Y92981D01*
X390705Y93142D01*
X388994Y94853D01*
D02*
G37*
G36*
X348785Y281957D02*
G75*
D01*
G03X348785Y281957I1215J4799*
G01*
D02*
G37*
G36*
X178000Y92990D02*
X178000Y92990D01*
X213173Y92990D01*
G75*
D01*
G03X213173Y97010I2827J2010*
G01*
X213173Y97010D01*
X178832Y97010D01*
X173420Y102422D01*
G75*
D01*
G03X170578Y99580I-3420J578*
G01*
X170578Y99580D01*
X176579Y93579D01*
G75*
D01*
G03X178000Y92990I1421J1421*
G01*
D02*
G37*
G36*
X187929Y206623D02*
G75*
D01*
G03X183910Y206623I-2009J2827*
G01*
X183910Y206623D01*
X183910Y173085D01*
G75*
D01*
G03X184499Y171659I2010J-5*
G01*
X184499Y171659D01*
X187469Y168689D01*
X187469Y168689D01*
X188554Y167604D01*
G75*
D01*
G03X190648Y171194I3446J396*
G01*
X190648Y171194D01*
X187929Y173913D01*
X187929Y206623D01*
D02*
G37*
G36*
X167173Y192010D02*
X167173Y192010D01*
X154468Y192010D01*
G75*
D01*
G03X151578Y188580I-3468J-10*
G01*
X151578Y188580D01*
X151579Y188579D01*
G75*
D01*
G03X153003Y187990I1421J1421*
G01*
X153003Y187990D01*
X167173Y187990D01*
G75*
D01*
G03X167173Y192010I2827J2010*
G01*
D02*
G37*
G36*
X281957Y204692D02*
G75*
D01*
G03X281957Y204692I-957J-692*
G01*
D02*
G37*
G36*
X279576Y207163D02*
X279576Y207163D01*
X281000Y205739D01*
X282424Y207163D01*
G75*
D01*
G03X279576Y207163I-1424J-3163*
G01*
D02*
G37*
G36*
X276423Y276419D02*
G74*
D01*
G03X275000Y277010I1423J1419*
G01*
X275000Y277010D01*
X233827Y277010D01*
G75*
D01*
G03X233827Y272990I-2827J-2010*
G01*
X233827Y272990D01*
X274168Y272990D01*
X281957Y265201D01*
X285580Y261578D01*
G75*
D01*
G03X288422Y264420I3420J-578*
G01*
X288422Y264420D01*
X281957Y270885D01*
X276423Y276419D01*
D02*
G37*
G36*
X279576Y200837D02*
G75*
D01*
G03X282424Y200837I1424J3163*
G01*
X282424Y200837D01*
X281000Y202261D01*
X279576Y200837D01*
D02*
G37*
G36*
X186307Y231793D02*
G75*
D01*
G03X186307Y228946I3163J-1423*
G01*
X186307Y228946D01*
X187730Y230370D01*
X186307Y231793D01*
D02*
G37*
G36*
X394506Y89340D02*
X394506Y89340D01*
X392795Y91051D01*
X391084Y89340D01*
G75*
D01*
G03X394506Y89340I1711J3802*
G01*
D02*
G37*
G36*
X388576Y143163D02*
X388576Y143163D01*
X390000Y141739D01*
X391424Y143163D01*
G75*
D01*
G03X388576Y143163I-1424J-3163*
G01*
D02*
G37*
G36*
X391084Y96943D02*
X391084Y96943D01*
X392795Y95232D01*
X394506Y96943D01*
G75*
D01*
G03X391084Y96943I-1711J-3801*
G01*
D02*
G37*
G36*
X388994Y112569D02*
G75*
D01*
G03X388994Y109147I3801J-1711*
G01*
X388994Y109147D01*
X390705Y110858D01*
X388994Y112569D01*
D02*
G37*
G36*
X394506Y107057D02*
X394506Y107057D01*
X392795Y108768D01*
X391084Y107057D01*
G75*
D01*
G03X394506Y107057I1711J3801*
G01*
D02*
G37*
G36*
X390827Y110858D02*
G75*
D01*
G03X390827Y110858I1968J0*
G01*
D02*
G37*
G36*
X396597Y112569D02*
X396597Y112569D01*
X394886Y110858D01*
X396597Y109147D01*
G75*
D01*
G03X396597Y112569I-3802J1711*
G01*
D02*
G37*
G36*
X391084Y114660D02*
X391084Y114660D01*
X392795Y112949D01*
X394506Y114660D01*
G75*
D01*
G03X391084Y114660I-1711J-3802*
G01*
D02*
G37*
G36*
X386837Y141424D02*
G75*
D01*
G03X386837Y138576I3163J-1424*
G01*
X386837Y138576D01*
X388261Y140000D01*
X386837Y141424D01*
D02*
G37*
G36*
X393163Y141424D02*
X393163Y141424D01*
X391739Y140000D01*
X393163Y138576D01*
G75*
D01*
G03X393163Y141424I-3163J1424*
G01*
D02*
G37*
G36*
X391424Y136837D02*
X391424Y136837D01*
X390000Y138261D01*
X388576Y136837D01*
G75*
D01*
G03X391424Y136837I1424J3163*
G01*
D02*
G37*
G36*
X388819Y140000D02*
G75*
D01*
G03X388819Y140000I1181J0*
G01*
D02*
G37*
G36*
X17250Y303000D02*
G75*
D01*
G03X17250Y303000I7750J0*
G01*
D02*
G37*
G36*
X70199Y301711D02*
G75*
D01*
G03X70199Y298289I3801J-1711*
G01*
X70199Y298289D01*
X71910Y300000D01*
X70199Y301711D01*
D02*
G37*
G36*
X77801Y301711D02*
X77801Y301711D01*
X76090Y300000D01*
X77801Y298289D01*
G75*
D01*
G03X77801Y301711I-3801J1711*
G01*
D02*
G37*
G36*
X72031Y300000D02*
G75*
D01*
G03X72031Y300000I1969J0*
G01*
D02*
G37*
G36*
X75711Y296199D02*
X75711Y296199D01*
X74000Y297910D01*
X72289Y296199D01*
G75*
D01*
G03X75711Y296199I1711J3801*
G01*
D02*
G37*
G36*
X45711Y306199D02*
X45711Y306199D01*
X44000Y307910D01*
X42289Y306199D01*
G75*
D01*
G03X45711Y306199I1711J3801*
G01*
D02*
G37*
G36*
X72289Y303801D02*
X72289Y303801D01*
X74000Y302090D01*
X75711Y303801D01*
G75*
D01*
G03X72289Y303801I-1711J-3801*
G01*
D02*
G37*
G36*
X47801Y311711D02*
X47801Y311711D01*
X46090Y310000D01*
X47801Y308289D01*
G75*
D01*
G03X47801Y311711I-3801J1711*
G01*
D02*
G37*
G36*
X40199Y311711D02*
G75*
D01*
G03X40199Y308289I3801J-1711*
G01*
X40199Y308289D01*
X41910Y310000D01*
X40199Y311711D01*
D02*
G37*
G36*
X42289Y313801D02*
X42289Y313801D01*
X44000Y312090D01*
X45711Y313801D01*
G75*
D01*
G03X42289Y313801I-1711J-3801*
G01*
D02*
G37*
G36*
X42031Y310000D02*
G75*
D01*
G03X42031Y310000I1969J0*
G01*
D02*
G37*
G36*
X70199Y321711D02*
G75*
D01*
G03X70199Y318289I3801J-1711*
G01*
X70199Y318289D01*
X71910Y320000D01*
X70199Y321711D01*
D02*
G37*
G36*
X72289Y323801D02*
X72289Y323801D01*
X74000Y322090D01*
X75711Y323801D01*
G75*
D01*
G03X72289Y323801I-1711J-3801*
G01*
D02*
G37*
G36*
X77801Y321711D02*
X77801Y321711D01*
X76090Y320000D01*
X77801Y318289D01*
G75*
D01*
G03X77801Y321711I-3801J1711*
G01*
D02*
G37*
G36*
X75711Y316199D02*
X75711Y316199D01*
X74000Y317910D01*
X72289Y316199D01*
G75*
D01*
G03X75711Y316199I1711J3801*
G01*
D02*
G37*
G36*
X72031Y320000D02*
G75*
D01*
G03X72031Y320000I1969J0*
G01*
D02*
G37*
G36*
X288831Y310000D02*
G75*
D01*
G03X288831Y310000I4169J0*
G01*
D02*
G37*
G36*
X258831Y300000D02*
G75*
D01*
G03X258831Y300000I4169J0*
G01*
D02*
G37*
G36*
X258831Y320000D02*
G75*
D01*
G03X258831Y320000I4169J0*
G01*
D02*
G37*
G36*
X189163Y124424D02*
X189163Y124424D01*
X187739Y123000D01*
X189163Y121576D01*
G75*
D01*
G03X189163Y124424I-3163J1424*
G01*
D02*
G37*
G36*
X204819Y105000D02*
G75*
D01*
G03X204819Y105000I1181J0*
G01*
D02*
G37*
G36*
X209163Y106424D02*
X209163Y106424D01*
X207739Y105000D01*
X209163Y103576D01*
G75*
D01*
G03X209163Y106424I-3163J1424*
G01*
D02*
G37*
G36*
X202837Y106424D02*
G75*
D01*
G03X202837Y103576I3163J-1424*
G01*
X202837Y103576D01*
X204261Y105000D01*
X202837Y106424D01*
D02*
G37*
G36*
X204576Y108163D02*
X204576Y108163D01*
X206000Y106739D01*
X207424Y108163D01*
G75*
D01*
G03X204576Y108163I-1424J-3163*
G01*
D02*
G37*
G36*
X207424Y101837D02*
X207424Y101837D01*
X206000Y103261D01*
X204576Y101837D01*
G75*
D01*
G03X207424Y101837I1424J3163*
G01*
D02*
G37*
G36*
X274010Y160827D02*
X274010Y160827D01*
X274010Y162000D01*
G74*
D01*
G03X273419Y163423I2010J0*
G01*
X273419Y163423D01*
X261446Y175396D01*
G74*
D01*
G03X261420Y175580I3446J396*
G01*
G75*
D01*
G03X263352Y175806I580J3420*
G01*
X263352Y175806D01*
X273580Y165578D01*
G75*
D01*
G03X276422Y168420I3420J-578*
G01*
X276422Y168420D01*
X276222Y168620D01*
G75*
D01*
G03X276422Y175420I778J3380*
G01*
X276422Y175420D01*
X269420Y182422D01*
G75*
D01*
G03X262580Y182420I-3420J578*
G01*
G75*
D01*
G03X258580Y178420I-580J-3420*
G01*
G75*
D01*
G03X259352Y171806I-580J-3420*
G01*
X259352Y171806D01*
X269990Y161168D01*
X269990Y160827D01*
G75*
D01*
G03X274010Y160827I2010J-2827*
G01*
D02*
G37*
G36*
X248576Y159163D02*
X248576Y159163D01*
X250000Y157739D01*
X251424Y159163D01*
G75*
D01*
G03X248576Y159163I-1424J-3163*
G01*
D02*
G37*
G36*
X248819Y156000D02*
G75*
D01*
G03X248819Y156000I1181J0*
G01*
D02*
G37*
G36*
X251424Y152837D02*
X251424Y152837D01*
X250000Y154261D01*
X248576Y152837D01*
G75*
D01*
G03X251424Y152837I1424J3163*
G01*
D02*
G37*
G36*
X246837Y157424D02*
G75*
D01*
G03X246837Y154576I3163J-1424*
G01*
X246837Y154576D01*
X248261Y156000D01*
X246837Y157424D01*
D02*
G37*
G36*
X253163Y157424D02*
X253163Y157424D01*
X251739Y156000D01*
X253163Y154576D01*
G75*
D01*
G03X253163Y157424I-3163J1424*
G01*
D02*
G37*
G36*
X204576Y143163D02*
X204576Y143163D01*
X206000Y141739D01*
X207424Y143163D01*
G75*
D01*
G03X204576Y143163I-1424J-3163*
G01*
D02*
G37*
G36*
X204819Y140000D02*
G75*
D01*
G03X204819Y140000I1181J0*
G01*
D02*
G37*
G36*
X209163Y141424D02*
X209163Y141424D01*
X207739Y140000D01*
X209163Y138576D01*
G75*
D01*
G03X209163Y141424I-3163J1424*
G01*
D02*
G37*
G36*
X202837Y141424D02*
G75*
D01*
G03X202837Y138576I3163J-1424*
G01*
X202837Y138576D01*
X204261Y140000D01*
X202837Y141424D01*
D02*
G37*
G36*
X207424Y136837D02*
X207424Y136837D01*
X206000Y138261D01*
X204576Y136837D01*
G75*
D01*
G03X207424Y136837I1424J3163*
G01*
D02*
G37*
G36*
X143450Y92957D02*
X143450Y92957D01*
X136550Y92957D01*
G75*
D01*
G03X135043Y91450I0J-1507*
G01*
X135043Y91450D01*
X135043Y84550D01*
G75*
D01*
G03X136550Y83043I1507J0*
G01*
X136550Y83043D01*
X143450Y83043D01*
G75*
D01*
G03X144957Y84550I0J1507*
G01*
X144957Y84550D01*
X144957Y91450D01*
G74*
D01*
G03X143450Y92957I1507J0*
G01*
D02*
G37*
G36*
X110424Y69837D02*
X110424Y69837D01*
X109000Y71261D01*
X107576Y69837D01*
G75*
D01*
G03X110424Y69837I1424J3163*
G01*
D02*
G37*
G36*
X107576Y76163D02*
X107576Y76163D01*
X109000Y74739D01*
X110424Y76163D01*
G75*
D01*
G03X107576Y76163I-1424J-3163*
G01*
D02*
G37*
G36*
X105837Y74424D02*
G75*
D01*
G03X105837Y71576I3163J-1424*
G01*
X105837Y71576D01*
X107261Y73000D01*
X105837Y74424D01*
D02*
G37*
G36*
X107819Y73000D02*
G75*
D01*
G03X107819Y73000I1181J0*
G01*
D02*
G37*
G36*
X112163Y74424D02*
X112163Y74424D01*
X110739Y73000D01*
X112163Y71576D01*
G75*
D01*
G03X112163Y74424I-3163J1424*
G01*
D02*
G37*
G36*
X254207Y35300D02*
X254207Y35300D01*
X254207Y40700D01*
G74*
D01*
G03X252700Y42207I1507J0*
G01*
X252700Y42207D01*
X247300Y42207D01*
G75*
D01*
G03X245793Y40700I0J-1507*
G01*
X245793Y40700D01*
X245793Y35300D01*
G75*
D01*
G03X247300Y33793I1507J0*
G01*
X247300Y33793D01*
X252700Y33793D01*
G75*
D01*
G03X254207Y35300I0J1507*
G01*
D02*
G37*
G36*
X255800Y38000D02*
G75*
D01*
G03X255800Y38000I4200J0*
G01*
D02*
G37*
G36*
X251424Y62837D02*
X251424Y62837D01*
X250000Y64261D01*
X248576Y62837D01*
G75*
D01*
G03X251424Y62837I1424J3163*
G01*
D02*
G37*
G36*
X211978Y68000D02*
G75*
D01*
G03X208022Y68000I-1978J1969*
G01*
G75*
D01*
G03X211978Y68000I1978J-1969*
G01*
D02*
G37*
G36*
X253163Y67424D02*
X253163Y67424D01*
X251739Y66000D01*
X253163Y64576D01*
G75*
D01*
G03X253163Y67424I-3163J1424*
G01*
D02*
G37*
G36*
X246837Y67424D02*
G75*
D01*
G03X246837Y64576I3163J-1424*
G01*
X246837Y64576D01*
X248261Y66000D01*
X246837Y67424D01*
D02*
G37*
G36*
X248576Y69163D02*
X248576Y69163D01*
X250000Y67739D01*
X251424Y69163D01*
G75*
D01*
G03X248576Y69163I-1424J-3163*
G01*
D02*
G37*
G36*
X248819Y66000D02*
G75*
D01*
G03X248819Y66000I1181J0*
G01*
D02*
G37*
G36*
X203837Y85424D02*
G75*
D01*
G03X203837Y82576I3163J-1424*
G01*
X203837Y82576D01*
X205261Y84000D01*
X203837Y85424D01*
D02*
G37*
G36*
X205576Y87163D02*
X205576Y87163D01*
X207000Y85739D01*
X208424Y87163D01*
G75*
D01*
G03X205576Y87163I-1424J-3163*
G01*
D02*
G37*
G36*
X210163Y85424D02*
X210163Y85424D01*
X208739Y84000D01*
X210163Y82576D01*
G75*
D01*
G03X210163Y85424I-3163J1424*
G01*
D02*
G37*
G36*
X208424Y80837D02*
X208424Y80837D01*
X207000Y82261D01*
X205576Y80837D01*
G75*
D01*
G03X208424Y80837I1424J3163*
G01*
D02*
G37*
G36*
X205819Y84000D02*
G75*
D01*
G03X205819Y84000I1181J0*
G01*
D02*
G37*
G36*
X228586Y85250D02*
G75*
D01*
G03X228586Y82403I3163J-1423*
G01*
X228586Y82403D01*
X230009Y83827D01*
X228586Y85250D01*
D02*
G37*
G36*
X230325Y86989D02*
X230325Y86989D01*
X231749Y85566D01*
X233172Y86989D01*
G75*
D01*
G03X230325Y86989I-1423J-3162*
G01*
D02*
G37*
G36*
X234912Y85250D02*
X234912Y85250D01*
X233488Y83827D01*
X234912Y82403D01*
G75*
D01*
G03X234912Y85250I-3163J1424*
G01*
D02*
G37*
G36*
X233172Y80664D02*
X233172Y80664D01*
X231749Y82087D01*
X230325Y80664D01*
G75*
D01*
G03X233172Y80664I1424J3163*
G01*
D02*
G37*
G36*
X230568Y83827D02*
G75*
D01*
G03X230568Y83827I1181J0*
G01*
D02*
G37*
G36*
X105626Y111000D02*
G75*
D01*
G03X105626Y111000I9374J0*
G01*
D02*
G37*
G36*
X141422Y110457D02*
G75*
D01*
G03X141422Y110457I3578J0*
G01*
D02*
G37*
G36*
X151837Y119424D02*
G75*
D01*
G03X151837Y116576I3163J-1424*
G01*
X151837Y116576D01*
X153261Y118000D01*
X151837Y119424D01*
D02*
G37*
G36*
X158163Y119424D02*
X158163Y119424D01*
X156739Y118000D01*
X158163Y116576D01*
G75*
D01*
G03X158163Y119424I-3163J1424*
G01*
D02*
G37*
G36*
X153819Y118000D02*
G75*
D01*
G03X153819Y118000I1181J0*
G01*
D02*
G37*
G36*
X156424Y114837D02*
X156424Y114837D01*
X155000Y116261D01*
X153576Y114837D01*
G75*
D01*
G03X156424Y114837I1424J3163*
G01*
D02*
G37*
G36*
X153576Y121163D02*
X153576Y121163D01*
X155000Y119739D01*
X156424Y121163D01*
G75*
D01*
G03X153576Y121163I-1424J-3163*
G01*
D02*
G37*
G36*
X182837Y124424D02*
G75*
D01*
G03X182837Y121576I3163J-1424*
G01*
X182837Y121576D01*
X184261Y123000D01*
X182837Y124424D01*
D02*
G37*
G36*
X187424Y119837D02*
X187424Y119837D01*
X186000Y121261D01*
X184576Y119837D01*
G75*
D01*
G03X187424Y119837I1424J3163*
G01*
D02*
G37*
G36*
X184819Y123000D02*
G75*
D01*
G03X184819Y123000I1181J0*
G01*
D02*
G37*
G36*
X158163Y131424D02*
X158163Y131424D01*
X156739Y130000D01*
X158163Y128576D01*
G75*
D01*
G03X158163Y131424I-3163J1424*
G01*
D02*
G37*
G36*
X151837Y131424D02*
G75*
D01*
G03X151837Y128576I3163J-1424*
G01*
X151837Y128576D01*
X153261Y130000D01*
X151837Y131424D01*
D02*
G37*
G36*
X153576Y133163D02*
X153576Y133163D01*
X155000Y131739D01*
X156424Y133163D01*
G75*
D01*
G03X153576Y133163I-1424J-3163*
G01*
D02*
G37*
G36*
X156424Y126837D02*
X156424Y126837D01*
X155000Y128261D01*
X153576Y126837D01*
G75*
D01*
G03X156424Y126837I1424J3163*
G01*
D02*
G37*
G36*
X153819Y130000D02*
G75*
D01*
G03X153819Y130000I1181J0*
G01*
D02*
G37*
G36*
X167173Y176010D02*
X167173Y176010D01*
X153827Y176010D01*
G75*
D01*
G03X153827Y171990I-2827J-2010*
G01*
X153827Y171990D01*
X167173Y171990D01*
G75*
D01*
G03X167173Y176010I2827J2010*
G01*
D02*
G37*
G36*
X167173Y185010D02*
X167173Y185010D01*
X153827Y185010D01*
G75*
D01*
G03X153827Y180990I-2827J-2010*
G01*
X153827Y180990D01*
X167173Y180990D01*
G75*
D01*
G03X167173Y185010I2827J2010*
G01*
D02*
G37*
G36*
X17250Y25000D02*
G75*
D01*
G03X17250Y25000I7750J0*
G01*
D02*
G37*
G36*
X286170Y39724D02*
G75*
D01*
G03X286170Y36276I3830J-1724*
G01*
X286170Y36276D01*
X287894Y38000D01*
X286170Y39724D01*
D02*
G37*
G36*
X291724Y34170D02*
X291724Y34170D01*
X290000Y35894D01*
X288276Y34170D01*
G75*
D01*
G03X291724Y34170I1724J3830*
G01*
D02*
G37*
G36*
X288000Y38000D02*
G75*
D01*
G03X288000Y38000I2000J0*
G01*
D02*
G37*
G36*
X293830Y39724D02*
X293830Y39724D01*
X292106Y38000D01*
X293830Y36276D01*
G75*
D01*
G03X293830Y39724I-3830J1724*
G01*
D02*
G37*
G36*
X288276Y41830D02*
X288276Y41830D01*
X290000Y40106D01*
X291724Y41830D01*
G75*
D01*
G03X288276Y41830I-1724J-3830*
G01*
D02*
G37*
G36*
X308424Y75837D02*
X308424Y75837D01*
X307000Y77261D01*
X305576Y75837D01*
G75*
D01*
G03X308424Y75837I1424J3163*
G01*
D02*
G37*
G36*
X305819Y79000D02*
G75*
D01*
G03X305819Y79000I1181J0*
G01*
D02*
G37*
G36*
X310163Y80424D02*
X310163Y80424D01*
X308739Y79000D01*
X310163Y77576D01*
G75*
D01*
G03X310163Y80424I-3163J1424*
G01*
D02*
G37*
G36*
X333642Y80953D02*
G74*
D01*
G03X331047Y78358I358J2953*
G01*
X331047Y78358D01*
X329281Y80124D01*
G75*
D01*
G03X329281Y75876I4719J-2124*
G01*
X329281Y75876D01*
X331047Y77642D01*
G74*
D01*
G03X333642Y75047I2953J358*
G01*
X333642Y75047D01*
X331876Y73281D01*
G75*
D01*
G03X336124Y73281I2124J4719*
G01*
X336124Y73281D01*
X334358Y75047D01*
G74*
D01*
G03X336953Y77642I358J2953*
G01*
X336953Y77642D01*
X338719Y75876D01*
G75*
D01*
G03X338719Y80124I-4719J2124*
G01*
X338719Y80124D01*
X336953Y78358D01*
G74*
D01*
G03X334358Y80953I2953J358*
G01*
X334358Y80953D01*
X336124Y82719D01*
G75*
D01*
G03X331876Y82719I-2124J-4719*
G01*
X331876Y82719D01*
X333642Y80953D01*
D02*
G37*
G36*
X353642Y80953D02*
G74*
D01*
G03X351047Y78358I358J2953*
G01*
X351047Y78358D01*
X349281Y80124D01*
G75*
D01*
G03X349281Y75876I4719J-2124*
G01*
X349281Y75876D01*
X351047Y77642D01*
G74*
D01*
G03X353642Y75047I2953J358*
G01*
X353642Y75047D01*
X351876Y73281D01*
G75*
D01*
G03X356124Y73281I2124J4719*
G01*
X356124Y73281D01*
X354358Y75047D01*
G74*
D01*
G03X356953Y77642I358J2953*
G01*
X356953Y77642D01*
X358719Y75876D01*
G75*
D01*
G03X358719Y80124I-4719J2124*
G01*
X358719Y80124D01*
X356953Y78358D01*
G74*
D01*
G03X354358Y80953I2953J358*
G01*
X354358Y80953D01*
X356124Y82719D01*
G75*
D01*
G03X351876Y82719I-2124J-4719*
G01*
X351876Y82719D01*
X353642Y80953D01*
D02*
G37*
G36*
X307954Y81693D02*
G75*
D01*
G03X310424Y81837I1046J3307*
G01*
X310424Y81837D01*
X309000Y83261D01*
X308046Y82307D01*
G75*
D01*
G03X305576Y82163I-1046J-3307*
G01*
X305576Y82163D01*
X307000Y80739D01*
X307954Y81693D01*
D02*
G37*
G36*
X305837Y86424D02*
G75*
D01*
G03X305837Y83576I3163J-1424*
G01*
X305837Y83576D01*
X307261Y85000D01*
X305837Y86424D01*
D02*
G37*
G36*
X312163Y86424D02*
X312163Y86424D01*
X310739Y85000D01*
X312163Y83576D01*
G75*
D01*
G03X312163Y86424I-3163J1424*
G01*
D02*
G37*
G36*
X307819Y85000D02*
G75*
D01*
G03X307819Y85000I1181J0*
G01*
D02*
G37*
G36*
X307576Y88163D02*
X307576Y88163D01*
X309000Y86739D01*
X310424Y88163D01*
G75*
D01*
G03X307576Y88163I-1424J-3163*
G01*
D02*
G37*
G36*
X74819Y247000D02*
G75*
D01*
G03X74819Y247000I1181J0*
G01*
D02*
G37*
G36*
X59424Y211837D02*
X59424Y211837D01*
X58000Y213261D01*
X56576Y211837D01*
G75*
D01*
G03X59424Y211837I1424J3163*
G01*
D02*
G37*
G36*
X69424Y211837D02*
X69424Y211837D01*
X68000Y213261D01*
X66576Y211837D01*
G75*
D01*
G03X69424Y211837I1424J3163*
G01*
D02*
G37*
G36*
X42837Y221424D02*
G75*
D01*
G03X42837Y218576I3163J-1424*
G01*
X42837Y218576D01*
X44261Y220000D01*
X42837Y221424D01*
D02*
G37*
G36*
X47424Y216837D02*
X47424Y216837D01*
X46000Y218261D01*
X44576Y216837D01*
G75*
D01*
G03X47424Y216837I1424J3163*
G01*
D02*
G37*
G36*
X44819Y220000D02*
G75*
D01*
G03X44819Y220000I1181J0*
G01*
D02*
G37*
G36*
X54837Y216424D02*
G75*
D01*
G03X54837Y213576I3163J-1424*
G01*
X54837Y213576D01*
X56261Y215000D01*
X54837Y216424D01*
D02*
G37*
G36*
X49163Y221424D02*
X49163Y221424D01*
X47739Y220000D01*
X49163Y218576D01*
G75*
D01*
G03X49163Y221424I-3163J1424*
G01*
D02*
G37*
G36*
X56576Y218163D02*
X56576Y218163D01*
X58000Y216739D01*
X59424Y218163D01*
G75*
D01*
G03X56576Y218163I-1424J-3163*
G01*
D02*
G37*
G36*
X61163Y216424D02*
X61163Y216424D01*
X59739Y215000D01*
X61163Y213576D01*
G75*
D01*
G03X61163Y216424I-3163J1424*
G01*
D02*
G37*
G36*
X56819Y215000D02*
G75*
D01*
G03X56819Y215000I1181J0*
G01*
D02*
G37*
G36*
X71163Y216424D02*
X71163Y216424D01*
X69739Y215000D01*
X71163Y213576D01*
G75*
D01*
G03X71163Y216424I-3163J1424*
G01*
D02*
G37*
G36*
X64837Y216424D02*
G75*
D01*
G03X64837Y213576I3163J-1424*
G01*
X64837Y213576D01*
X66261Y215000D01*
X64837Y216424D01*
D02*
G37*
G36*
X66576Y218163D02*
X66576Y218163D01*
X68000Y216739D01*
X69424Y218163D01*
G75*
D01*
G03X66576Y218163I-1424J-3163*
G01*
D02*
G37*
G36*
X66819Y215000D02*
G75*
D01*
G03X66819Y215000I1181J0*
G01*
D02*
G37*
G36*
X44576Y223163D02*
X44576Y223163D01*
X46000Y221739D01*
X47424Y223163D01*
G75*
D01*
G03X44576Y223163I-1424J-3163*
G01*
D02*
G37*
G36*
X36576Y236163D02*
X36576Y236163D01*
X38000Y234739D01*
X39424Y236163D01*
G75*
D01*
G03X36576Y236163I-1424J-3163*
G01*
D02*
G37*
G36*
X39424Y229837D02*
X39424Y229837D01*
X38000Y231261D01*
X36576Y229837D01*
G75*
D01*
G03X39424Y229837I1424J3163*
G01*
D02*
G37*
G36*
X34837Y234424D02*
G75*
D01*
G03X34837Y231576I3163J-1424*
G01*
X34837Y231576D01*
X36261Y233000D01*
X34837Y234424D01*
D02*
G37*
G36*
X36819Y233000D02*
G75*
D01*
G03X36819Y233000I1181J0*
G01*
D02*
G37*
G36*
X41163Y234424D02*
X41163Y234424D01*
X39739Y233000D01*
X41163Y231576D01*
G75*
D01*
G03X41163Y234424I-3163J1424*
G01*
D02*
G37*
G36*
X77424Y243837D02*
X77424Y243837D01*
X76000Y245261D01*
X74576Y243837D01*
G75*
D01*
G03X77424Y243837I1424J3163*
G01*
D02*
G37*
G36*
X38837Y249424D02*
G75*
D01*
G03X38837Y246576I3163J-1424*
G01*
X38837Y246576D01*
X40261Y248000D01*
X38837Y249424D01*
D02*
G37*
G36*
X40576Y251163D02*
X40576Y251163D01*
X42000Y249739D01*
X43424Y251163D01*
G75*
D01*
G03X40576Y251163I-1424J-3163*
G01*
D02*
G37*
G36*
X45163Y249424D02*
X45163Y249424D01*
X43739Y248000D01*
X45163Y246576D01*
G75*
D01*
G03X45163Y249424I-3163J1424*
G01*
D02*
G37*
G36*
X43424Y244837D02*
X43424Y244837D01*
X42000Y246261D01*
X40576Y244837D01*
G75*
D01*
G03X43424Y244837I1424J3163*
G01*
D02*
G37*
G36*
X40819Y248000D02*
G75*
D01*
G03X40819Y248000I1181J0*
G01*
D02*
G37*
G36*
X79163Y248424D02*
X79163Y248424D01*
X77739Y247000D01*
X79163Y245576D01*
G75*
D01*
G03X79163Y248424I-3163J1424*
G01*
D02*
G37*
G36*
X72837Y248424D02*
G75*
D01*
G03X72837Y245576I3163J-1424*
G01*
X72837Y245576D01*
X74261Y247000D01*
X72837Y248424D01*
D02*
G37*
G36*
X74576Y250163D02*
X74576Y250163D01*
X76000Y248739D01*
X77424Y250163D01*
G75*
D01*
G03X74576Y250163I-1424J-3163*
G01*
D02*
G37*
G36*
X85819Y179000D02*
G75*
D01*
G03X85819Y179000I1181J0*
G01*
D02*
G37*
G36*
X22917Y122000D02*
G75*
D01*
G03X22917Y122000I5083J0*
G01*
D02*
G37*
G36*
X62917Y122000D02*
G75*
D01*
G03X62917Y122000I5083J0*
G01*
D02*
G37*
G36*
X45576Y174163D02*
X45576Y174163D01*
X47000Y172739D01*
X48424Y174163D01*
G75*
D01*
G03X45576Y174163I-1424J-3163*
G01*
D02*
G37*
G36*
X48424Y167837D02*
X48424Y167837D01*
X47000Y169261D01*
X45576Y167837D01*
G75*
D01*
G03X48424Y167837I1424J3163*
G01*
D02*
G37*
G36*
X45819Y171000D02*
G75*
D01*
G03X45819Y171000I1181J0*
G01*
D02*
G37*
G36*
X43837Y172424D02*
G75*
D01*
G03X43837Y169576I3163J-1424*
G01*
X43837Y169576D01*
X45261Y171000D01*
X43837Y172424D01*
D02*
G37*
G36*
X50163Y172424D02*
X50163Y172424D01*
X48739Y171000D01*
X50163Y169576D01*
G75*
D01*
G03X50163Y172424I-3163J1424*
G01*
D02*
G37*
G36*
X78173Y176010D02*
X78173Y176010D01*
X67827Y176010D01*
G75*
D01*
G03X67827Y171990I-2827J-2010*
G01*
X67827Y171990D01*
X78173Y171990D01*
G75*
D01*
G03X78173Y176010I2827J2010*
G01*
D02*
G37*
G36*
X88424Y175837D02*
X88424Y175837D01*
X87000Y177261D01*
X85576Y175837D01*
G75*
D01*
G03X88424Y175837I1424J3163*
G01*
D02*
G37*
G36*
X83837Y180424D02*
G75*
D01*
G03X83837Y177576I3163J-1424*
G01*
X83837Y177576D01*
X85261Y179000D01*
X83837Y180424D01*
D02*
G37*
G36*
X284163Y205424D02*
X284163Y205424D01*
X282739Y204000D01*
X284163Y202576D01*
G75*
D01*
G03X284163Y205424I-3163J1424*
G01*
D02*
G37*
G36*
X311837Y215424D02*
G75*
D01*
G03X311837Y212576I3163J-1424*
G01*
X311837Y212576D01*
X313261Y214000D01*
X311837Y215424D01*
D02*
G37*
G36*
X316424Y210837D02*
X316424Y210837D01*
X315000Y212261D01*
X313576Y210837D01*
G75*
D01*
G03X316424Y210837I1424J3163*
G01*
D02*
G37*
G36*
X318163Y215424D02*
X318163Y215424D01*
X316739Y214000D01*
X318163Y212576D01*
G75*
D01*
G03X318163Y215424I-3163J1424*
G01*
D02*
G37*
G36*
X313576Y217163D02*
X313576Y217163D01*
X315000Y215739D01*
X316424Y217163D01*
G75*
D01*
G03X313576Y217163I-1424J-3163*
G01*
D02*
G37*
G36*
X313819Y214000D02*
G75*
D01*
G03X313819Y214000I1181J0*
G01*
D02*
G37*
G36*
X291837Y230424D02*
G75*
D01*
G03X291837Y227576I3163J-1424*
G01*
X291837Y227576D01*
X293261Y229000D01*
X291837Y230424D01*
D02*
G37*
G36*
X298163Y230424D02*
X298163Y230424D01*
X296739Y229000D01*
X298163Y227576D01*
G75*
D01*
G03X298163Y230424I-3163J1424*
G01*
D02*
G37*
G36*
X293819Y229000D02*
G75*
D01*
G03X293819Y229000I1181J0*
G01*
D02*
G37*
G36*
X296424Y225837D02*
X296424Y225837D01*
X295000Y227261D01*
X293576Y225837D01*
G75*
D01*
G03X296424Y225837I1424J3163*
G01*
D02*
G37*
G36*
X293576Y232163D02*
X293576Y232163D01*
X295000Y230739D01*
X296424Y232163D01*
G75*
D01*
G03X293576Y232163I-1424J-3163*
G01*
D02*
G37*
G36*
X354957Y230550D02*
X354957Y230550D01*
X354957Y237450D01*
G74*
D01*
G03X353450Y238957I1507J0*
G01*
X353450Y238957D01*
X346550Y238957D01*
G75*
D01*
G03X345043Y237450I0J-1507*
G01*
X345043Y237450D01*
X345043Y230550D01*
G75*
D01*
G03X346550Y229043I1507J0*
G01*
X346550Y229043D01*
X353450Y229043D01*
G75*
D01*
G03X354957Y230550I0J1507*
G01*
D02*
G37*
G36*
X322837Y261424D02*
G75*
D01*
G03X322837Y258576I3163J-1424*
G01*
X322837Y258576D01*
X324261Y260000D01*
X322837Y261424D01*
D02*
G37*
G36*
X329163Y261424D02*
X329163Y261424D01*
X327739Y260000D01*
X329163Y258576D01*
G75*
D01*
G03X329163Y261424I-3163J1424*
G01*
D02*
G37*
G36*
X324819Y260000D02*
G75*
D01*
G03X324819Y260000I1181J0*
G01*
D02*
G37*
G36*
X327424Y256837D02*
X327424Y256837D01*
X326000Y258261D01*
X324576Y256837D01*
G75*
D01*
G03X327424Y256837I1424J3163*
G01*
D02*
G37*
G36*
X324576Y263163D02*
X324576Y263163D01*
X326000Y261739D01*
X327424Y263163D01*
G75*
D01*
G03X324576Y263163I-1424J-3163*
G01*
D02*
G37*
G36*
X205307Y205793D02*
G75*
D01*
G03X205307Y202946I3163J-1423*
G01*
X205307Y202946D01*
X206730Y204370D01*
X205307Y205793D01*
D02*
G37*
G36*
X211633Y205793D02*
X211633Y205793D01*
X210209Y204370D01*
X211633Y202946D01*
G75*
D01*
G03X211633Y205793I-3163J1424*
G01*
D02*
G37*
G36*
X207289Y204370D02*
G75*
D01*
G03X207289Y204370I1181J0*
G01*
D02*
G37*
G36*
X209893Y201207D02*
X209893Y201207D01*
X208470Y202630D01*
X207046Y201207D01*
G75*
D01*
G03X209893Y201207I1424J3163*
G01*
D02*
G37*
G36*
X277837Y205424D02*
G75*
D01*
G03X277837Y202576I3163J-1424*
G01*
X277837Y202576D01*
X279261Y204000D01*
X277837Y205424D01*
D02*
G37*
G36*
X207046Y207533D02*
X207046Y207533D01*
X208470Y206109D01*
X209893Y207533D01*
G75*
D01*
G03X207046Y207533I-1423J-3163*
G01*
D02*
G37*
G36*
X190893Y227207D02*
X190893Y227207D01*
X189470Y228630D01*
X188046Y227207D01*
G75*
D01*
G03X190893Y227207I1424J3163*
G01*
D02*
G37*
G36*
X188046Y233533D02*
X188046Y233533D01*
X189470Y232109D01*
X190893Y233533D01*
G75*
D01*
G03X188046Y233533I-1423J-3163*
G01*
D02*
G37*
G36*
X188289Y230370D02*
G75*
D01*
G03X188289Y230370I1181J0*
G01*
D02*
G37*
G36*
X192633Y231793D02*
X192633Y231793D01*
X191209Y230370D01*
X192633Y228946D01*
G75*
D01*
G03X192633Y231793I-3163J1424*
G01*
D02*
G37*
G36*
X265576Y236163D02*
X265576Y236163D01*
X267000Y234739D01*
X268424Y236163D01*
G75*
D01*
G03X265576Y236163I-1424J-3163*
G01*
D02*
G37*
G36*
X268424Y229837D02*
X268424Y229837D01*
X267000Y231261D01*
X265576Y229837D01*
G75*
D01*
G03X268424Y229837I1424J3163*
G01*
D02*
G37*
G36*
X265819Y233000D02*
G75*
D01*
G03X265819Y233000I1181J0*
G01*
D02*
G37*
G36*
X263837Y234424D02*
G75*
D01*
G03X263837Y231576I3163J-1424*
G01*
X263837Y231576D01*
X265261Y233000D01*
X263837Y234424D01*
D02*
G37*
G36*
X270163Y234424D02*
X270163Y234424D01*
X268739Y233000D01*
X270163Y231576D01*
G75*
D01*
G03X270163Y234424I-3163J1424*
G01*
D02*
G37*
G36*
X357576Y187163D02*
X357576Y187163D01*
X359000Y185739D01*
X360424Y187163D01*
G75*
D01*
G03X357576Y187163I-1424J-3163*
G01*
D02*
G37*
G36*
X355837Y185424D02*
G75*
D01*
G03X355837Y182576I3163J-1424*
G01*
X355837Y182576D01*
X357261Y184000D01*
X355837Y185424D01*
D02*
G37*
G36*
X362163Y185424D02*
X362163Y185424D01*
X360739Y184000D01*
X362163Y182576D01*
G75*
D01*
G03X362163Y185424I-3163J1424*
G01*
D02*
G37*
G36*
X360424Y180837D02*
X360424Y180837D01*
X359000Y182261D01*
X357576Y180837D01*
G75*
D01*
G03X360424Y180837I1424J3163*
G01*
D02*
G37*
G36*
X350042Y170000D02*
G75*
D01*
G03X350042Y170000I1958J0*
G01*
D02*
G37*
G36*
X349910Y165645D02*
G75*
D01*
G03X350959Y165483I1049J3314*
G01*
X350959Y165483D01*
X353042Y165483D01*
G74*
D01*
G03X354090Y165645I0J3476*
G01*
X354090Y165645D01*
X352000Y167735D01*
X349910Y165645D01*
D02*
G37*
G36*
X347645Y172090D02*
G74*
D01*
G03X347483Y171042I3314J1048*
G01*
X347483Y171042D01*
X347483Y168959D01*
G75*
D01*
G03X347645Y167910I3476J0*
G01*
X347645Y167910D01*
X349735Y170000D01*
X347645Y172090D01*
D02*
G37*
G36*
X354090Y174355D02*
G74*
D01*
G03X353042Y174517I1048J3313*
G01*
X353042Y174517D01*
X350959Y174517D01*
G75*
D01*
G03X349910Y174355I0J-3475*
G01*
X349910Y174355D01*
X352000Y172265D01*
X354090Y174355D01*
D02*
G37*
G36*
X356355Y172090D02*
X356355Y172090D01*
X354265Y170000D01*
X356355Y167910D01*
G75*
D01*
G03X356517Y168959I-3313J1049*
G01*
X356517Y168959D01*
X356517Y171042D01*
G74*
D01*
G03X356355Y172090I3475J0*
G01*
D02*
G37*
G36*
X304827Y152990D02*
X304827Y152990D01*
X307000Y152990D01*
G74*
D01*
G03X308423Y153581I0J2010*
G01*
X308423Y153581D01*
X320443Y165601D01*
G75*
D01*
G03X317601Y168443I1557J4399*
G01*
X317601Y168443D01*
X306168Y157010D01*
X304827Y157010D01*
G75*
D01*
G03X304827Y152990I-2827J-2010*
G01*
D02*
G37*
G36*
X307788Y172010D02*
X307788Y172010D01*
X307000Y172010D01*
G75*
D01*
G03X306612Y171972I0J-2010*
G01*
G74*
D01*
G03X305579Y171421I388J1972*
G01*
X305579Y171421D01*
X296578Y162420D01*
G75*
D01*
G03X299420Y159578I-578J-3420*
G01*
X299420Y159578D01*
X307802Y167960D01*
G75*
D01*
G03X307788Y172010I4198J2040*
G01*
D02*
G37*
G36*
X319576Y153163D02*
X319576Y153163D01*
X321000Y151739D01*
X322424Y153163D01*
G75*
D01*
G03X319576Y153163I-1424J-3163*
G01*
D02*
G37*
G36*
X337333Y170000D02*
G75*
D01*
G03X337333Y170000I4667J0*
G01*
D02*
G37*
G36*
X327333Y170000D02*
G75*
D01*
G03X327333Y170000I4667J0*
G01*
D02*
G37*
G36*
X359576Y143163D02*
X359576Y143163D01*
X361000Y141739D01*
X362424Y143163D01*
G75*
D01*
G03X359576Y143163I-1424J-3163*
G01*
D02*
G37*
G36*
X322424Y146837D02*
X322424Y146837D01*
X321000Y148261D01*
X319576Y146837D01*
G75*
D01*
G03X322424Y146837I1424J3163*
G01*
D02*
G37*
G36*
X319819Y150000D02*
G75*
D01*
G03X319819Y150000I1181J0*
G01*
D02*
G37*
G36*
X324163Y151424D02*
X324163Y151424D01*
X322739Y150000D01*
X324163Y148576D01*
G75*
D01*
G03X324163Y151424I-3163J1424*
G01*
D02*
G37*
G36*
X317837Y151424D02*
G75*
D01*
G03X317837Y148576I3163J-1424*
G01*
X317837Y148576D01*
X319261Y150000D01*
X317837Y151424D01*
D02*
G37*
G36*
X364163Y141424D02*
X364163Y141424D01*
X362739Y140000D01*
X364163Y138576D01*
G75*
D01*
G03X364163Y141424I-3163J1424*
G01*
D02*
G37*
G36*
X359819Y140000D02*
G75*
D01*
G03X359819Y140000I1181J0*
G01*
D02*
G37*
G36*
X357837Y141424D02*
G75*
D01*
G03X357837Y138576I3163J-1424*
G01*
X357837Y138576D01*
X359261Y140000D01*
X357837Y141424D01*
D02*
G37*
G36*
X362424Y136837D02*
X362424Y136837D01*
X361000Y138261D01*
X359576Y136837D01*
G75*
D01*
G03X362424Y136837I1424J3163*
G01*
D02*
G37*
G36*
X306576Y130163D02*
X306576Y130163D01*
X308000Y128739D01*
X309424Y130163D01*
G75*
D01*
G03X306576Y130163I-1424J-3163*
G01*
D02*
G37*
G36*
X356163Y121424D02*
X356163Y121424D01*
X354739Y120000D01*
X356163Y118576D01*
G75*
D01*
G03X356163Y121424I-3163J1424*
G01*
D02*
G37*
G36*
X351819Y120000D02*
G75*
D01*
G03X351819Y120000I1181J0*
G01*
D02*
G37*
G36*
X349837Y121424D02*
G75*
D01*
G03X349837Y118576I3163J-1424*
G01*
X349837Y118576D01*
X351261Y120000D01*
X349837Y121424D01*
D02*
G37*
G36*
X351576Y123163D02*
X351576Y123163D01*
X353000Y121739D01*
X354424Y123163D01*
G75*
D01*
G03X351576Y123163I-1424J-3163*
G01*
D02*
G37*
G36*
X311163Y128424D02*
X311163Y128424D01*
X309739Y127000D01*
X311163Y125576D01*
G75*
D01*
G03X311163Y128424I-3163J1424*
G01*
D02*
G37*
G36*
X306819Y127000D02*
G75*
D01*
G03X306819Y127000I1181J0*
G01*
D02*
G37*
G36*
X309424Y123837D02*
X309424Y123837D01*
X308000Y125261D01*
X306576Y123837D01*
G75*
D01*
G03X309424Y123837I1424J3163*
G01*
D02*
G37*
G36*
X304837Y128424D02*
G75*
D01*
G03X304837Y125576I3163J-1424*
G01*
X304837Y125576D01*
X306261Y127000D01*
X304837Y128424D01*
D02*
G37*
G36*
X354424Y116837D02*
X354424Y116837D01*
X353000Y118261D01*
X351576Y116837D01*
G75*
D01*
G03X354424Y116837I1424J3163*
G01*
D02*
G37*
G36*
X363036Y110858D02*
G75*
D01*
G03X363036Y110858I4169J0*
G01*
D02*
G37*
G36*
X307576Y98163D02*
X307576Y98163D01*
X309000Y96739D01*
X310424Y98163D01*
G75*
D01*
G03X307576Y98163I-1424J-3163*
G01*
D02*
G37*
G36*
X307819Y95000D02*
G75*
D01*
G03X307819Y95000I1181J0*
G01*
D02*
G37*
G36*
X312163Y96424D02*
X312163Y96424D01*
X310739Y95000D01*
X312163Y93576D01*
G75*
D01*
G03X312163Y96424I-3163J1424*
G01*
D02*
G37*
G36*
X305837Y96424D02*
G75*
D01*
G03X305837Y93576I3163J-1424*
G01*
X305837Y93576D01*
X307261Y95000D01*
X305837Y96424D01*
D02*
G37*
G36*
X357819Y184000D02*
G75*
D01*
G03X357819Y184000I1181J0*
G01*
D02*
G37*
G36*
X121576Y271163D02*
X121576Y271163D01*
X123000Y269739D01*
X124424Y271163D01*
G75*
D01*
G03X121576Y271163I-1424J-3163*
G01*
D02*
G37*
G36*
X106626Y223000D02*
G75*
D01*
G03X106626Y223000I9374J0*
G01*
D02*
G37*
G36*
X141335Y217543D02*
G75*
D01*
G03X141335Y217543I4071J0*
G01*
D02*
G37*
G36*
X150827Y265010D02*
G75*
D01*
G03X150827Y260990I-2827J-2010*
G01*
X150827Y260990D01*
X155990Y260990D01*
X155990Y239318D01*
G75*
D01*
G03X160010Y237724I1010J-3318*
G01*
X160010Y237724D01*
X160010Y263000D01*
G74*
D01*
G03X158000Y265010I2010J0*
G01*
X158000Y265010D01*
X150827Y265010D01*
D02*
G37*
G36*
X119837Y245424D02*
G75*
D01*
G03X119837Y242576I3163J-1424*
G01*
X119837Y242576D01*
X121261Y244000D01*
X119837Y245424D01*
D02*
G37*
G36*
X126163Y245424D02*
X126163Y245424D01*
X124739Y244000D01*
X126163Y242576D01*
G75*
D01*
G03X126163Y245424I-3163J1424*
G01*
D02*
G37*
G36*
X121819Y244000D02*
G75*
D01*
G03X121819Y244000I1181J0*
G01*
D02*
G37*
G36*
X124424Y240837D02*
X124424Y240837D01*
X123000Y242261D01*
X121576Y240837D01*
G75*
D01*
G03X124424Y240837I1424J3163*
G01*
D02*
G37*
G36*
X172424Y242837D02*
X172424Y242837D01*
X171000Y244261D01*
X169576Y242837D01*
G75*
D01*
G03X172424Y242837I1424J3163*
G01*
D02*
G37*
G36*
X121576Y247163D02*
X121576Y247163D01*
X123000Y245739D01*
X124424Y247163D01*
G75*
D01*
G03X121576Y247163I-1424J-3163*
G01*
D02*
G37*
G36*
X174163Y247424D02*
X174163Y247424D01*
X172739Y246000D01*
X174163Y244576D01*
G75*
D01*
G03X174163Y247424I-3163J1424*
G01*
D02*
G37*
G36*
X167837Y247424D02*
G75*
D01*
G03X167837Y244576I3163J-1424*
G01*
X167837Y244576D01*
X169261Y246000D01*
X167837Y247424D01*
D02*
G37*
G36*
X169576Y249163D02*
X169576Y249163D01*
X171000Y247739D01*
X172424Y249163D01*
G75*
D01*
G03X169576Y249163I-1424J-3163*
G01*
D02*
G37*
G36*
X169819Y246000D02*
G75*
D01*
G03X169819Y246000I1181J0*
G01*
D02*
G37*
G36*
X126163Y257424D02*
X126163Y257424D01*
X124739Y256000D01*
X126163Y254576D01*
G75*
D01*
G03X126163Y257424I-3163J1424*
G01*
D02*
G37*
G36*
X119837Y257424D02*
G75*
D01*
G03X119837Y254576I3163J-1424*
G01*
X119837Y254576D01*
X121261Y256000D01*
X119837Y257424D01*
D02*
G37*
G36*
X121576Y259163D02*
X121576Y259163D01*
X123000Y257739D01*
X124424Y259163D01*
G75*
D01*
G03X121576Y259163I-1424J-3163*
G01*
D02*
G37*
G36*
X124424Y252837D02*
X124424Y252837D01*
X123000Y254261D01*
X121576Y252837D01*
G75*
D01*
G03X124424Y252837I1424J3163*
G01*
D02*
G37*
G36*
X121819Y256000D02*
G75*
D01*
G03X121819Y256000I1181J0*
G01*
D02*
G37*
G36*
X119837Y269424D02*
G75*
D01*
G03X119837Y266576I3163J-1424*
G01*
X119837Y266576D01*
X121261Y268000D01*
X119837Y269424D01*
D02*
G37*
G36*
X126163Y269424D02*
X126163Y269424D01*
X124739Y268000D01*
X126163Y266576D01*
G75*
D01*
G03X126163Y269424I-3163J1424*
G01*
D02*
G37*
G36*
X121819Y268000D02*
G75*
D01*
G03X121819Y268000I1181J0*
G01*
D02*
G37*
G36*
X124424Y264837D02*
X124424Y264837D01*
X123000Y266261D01*
X121576Y264837D01*
G75*
D01*
G03X124424Y264837I1424J3163*
G01*
D02*
G37*
%LPD*%
G36*
X273580Y172578D02*
X273580Y172578D01*
X266578Y179580D01*
G75*
D01*
G02X265420Y179580I-578J3420*
G01*
G74*
D01*
G02X265446Y179396I3420J580*
G01*
X265446Y179396D01*
X273620Y171222D01*
G75*
D01*
G02X273580Y172578I3380J778*
G01*
D02*
G37*
G36*
X236534Y138864D02*
X236534Y138864D01*
X234010Y136339D01*
X234010Y133852D01*
X235579Y135421D01*
G75*
D01*
G02X237003Y136010I1421J-1421*
G01*
X237003Y136010D01*
X237173Y136010D01*
G74*
D01*
G02X237596Y136500I2827J2010*
G01*
G74*
D01*
G02X236534Y138864I2404J2500*
G01*
D02*
G37*
G36*
X67417Y185488D02*
X67417Y185488D01*
X68608Y185488D01*
G74*
D01*
G03X69243Y185010I2392J2512*
G01*
X69243Y185010D01*
X67827Y185010D01*
G74*
D01*
G03X67417Y185488I2827J2010*
G01*
D02*
G37*
G54D11*
X67417Y185488D02*
X68608Y185488D01*
G74*
D01*
G03X69243Y185010I2392J2512*
G01*
X67827Y185010D01*
G74*
D01*
G03X67417Y185488I2827J2010*
G01*
X273000Y28990D02*
G74*
D01*
G03X274423Y29581I0J2010*
G01*
X278813Y33971D01*
G75*
D01*
G03X282010Y41688I1187J4029*
G01*
X282010Y82173D01*
G75*
D01*
G03X277990Y82173I-2010J2827*
G01*
X277990Y41688D01*
G75*
D01*
G03X275971Y36813I2010J-3688*
G01*
X272168Y33010D01*
X64010Y33010D01*
X64010Y34173D01*
G75*
D01*
G03X59990Y34173I-2010J2827*
G01*
X59990Y31000D01*
G75*
D01*
G03X62000Y28990I2010J0*
G01*
X273000Y28990D01*
X42392Y190512D02*
G75*
D01*
G03X42392Y185488I-2392J-2512*
G01*
X62583Y185488D01*
G75*
D01*
G03X67827Y180990I2417J-2488*
G01*
X86749Y180990D01*
X87000Y180739D01*
X87206Y180945D01*
G74*
D01*
G03X89335Y179596I2794J2055*
G01*
X88739Y179000D01*
X90163Y177576D01*
G75*
D01*
G03X90423Y179557I-3163J1424*
G01*
G75*
D01*
G03X87173Y185010I-423J3443*
G01*
X72757Y185010D01*
G75*
D01*
G03X73841Y189990I-1757J2990*
G01*
X86173Y189990D01*
G75*
D01*
G03X86173Y194010I2827J2010*
G01*
X73841Y194010D01*
G75*
D01*
G03X73008Y198828I-2841J1990*
G01*
G74*
D01*
G03X72881Y198918I1508J2009*
G01*
G74*
D01*
G03X72597Y199079I1381J2099*
G01*
G75*
D01*
G03X68996Y198831I-1597J-3079*
G01*
X42004Y198831D01*
G75*
D01*
G03X42687Y193807I-2004J-2831*
G01*
X63039Y193807D01*
G75*
D01*
G03X62867Y190512I2961J-1807*
G01*
X42392Y190512D01*
X306085Y53467D02*
X304512Y55041D01*
X304512Y78252D01*
X305261Y79000D01*
X304512Y79748D01*
X304512Y98608D01*
G75*
D01*
G03X299488Y98608I-2512J2392*
G01*
X299488Y54004D01*
G75*
D01*
G03X300224Y52224I2512J-4*
G01*
X302533Y49915D01*
G75*
D01*
G03X306085Y53467I3467J85*
G01*
X310424Y91837D02*
X309280Y92981D01*
X309280Y92981D01*
X309000Y93261D01*
X308720Y92981D01*
X308720Y92981D01*
X307576Y91837D01*
G75*
D01*
G03X310424Y91837I1424J3163*
G01*
X331876Y93281D02*
G75*
D01*
G03X336124Y93281I2124J4719*
G01*
X334358Y95047D01*
G74*
D01*
G03X336953Y97642I358J2953*
G01*
X338719Y95876D01*
G75*
D01*
G03X338719Y100124I-4719J2124*
G01*
X336953Y98358D01*
G74*
D01*
G03X334358Y100953I2953J358*
G01*
X336124Y102719D01*
G75*
D01*
G03X331876Y102719I-2124J-4719*
G01*
X333642Y100953D01*
G74*
D01*
G03X331047Y98358I358J2953*
G01*
X329281Y100124D01*
G75*
D01*
G03X329281Y95876I4719J-2124*
G01*
X331047Y97642D01*
G74*
D01*
G03X333642Y95047I2953J358*
G01*
X331876Y93281D01*
X345402Y92981D02*
G75*
D01*
G03X345402Y92981I-1402J-4981*
G01*
X351876Y93281D02*
G75*
D01*
G03X356124Y93281I2124J4719*
G01*
X354358Y95047D01*
G74*
D01*
G03X356953Y97642I358J2953*
G01*
X358719Y95876D01*
G75*
D01*
G03X358719Y100124I-4719J2124*
G01*
X356953Y98358D01*
G74*
D01*
G03X354358Y100953I2953J358*
G01*
X356124Y102719D01*
G75*
D01*
G03X351876Y102719I-2124J-4719*
G01*
X353642Y100953D01*
G74*
D01*
G03X351047Y98358I358J2953*
G01*
X349281Y100124D01*
G75*
D01*
G03X349281Y95876I4719J-2124*
G01*
X351047Y97642D01*
G74*
D01*
G03X353642Y95047I2953J358*
G01*
X351876Y93281D01*
X371370Y92981D02*
G75*
D01*
G03X371370Y92981I-4165J161*
G01*
X281580Y143578D02*
G75*
D01*
G03X288380Y143778I3420J-578*
G01*
X290806Y141352D01*
G75*
D01*
G03X294396Y143446I3194J-1352*
G01*
X291010Y146832D01*
X291010Y174168D01*
X304311Y187469D01*
X305419Y188577D01*
G75*
D01*
G03X306010Y190000I-1419J1423*
G01*
X306010Y203173D01*
G75*
D01*
G03X303422Y209420I-2010J2827*
G01*
X303010Y209832D01*
X303010Y234173D01*
G75*
D01*
G03X298990Y234173I-2010J2827*
G01*
X298990Y209003D01*
G75*
D01*
G03X299579Y207579I2010J-3*
G01*
X300580Y206578D01*
G75*
D01*
G03X301990Y203173I3420J-578*
G01*
X301990Y190832D01*
X298627Y187469D01*
X298627Y187469D01*
X287579Y176421D01*
G75*
D01*
G03X286990Y174996I1421J-1421*
G01*
X286990Y146003D01*
G75*
D01*
G03X286997Y145836I2010J-3*
G01*
G75*
D01*
G03X284422Y146420I-1997J-2836*
G01*
X281957Y148885D01*
X281957Y148885D01*
X279423Y151419D01*
G74*
D01*
G03X278184Y152001I1423J1419*
G01*
G75*
D01*
G03X277999Y152010I-184J-2001*
G01*
X239173Y152010D01*
G75*
D01*
G03X237751Y151421I-1J-2010*
G01*
X218318Y131988D01*
G75*
D01*
G03X213276Y136010I-3318J1012*
G01*
X175832Y136010D01*
X172423Y139419D01*
G74*
D01*
G03X171595Y139920I1423J1419*
G01*
G75*
D01*
G03X173420Y143578I-1595J3080*
G01*
X184832Y154990D01*
X210173Y154990D01*
G75*
D01*
G03X210173Y159010I2827J2010*
G01*
X184000Y159010D01*
G75*
D01*
G03X183361Y158905I0J-2010*
G01*
G74*
D01*
G03X182579Y158421I639J1905*
G01*
X170578Y146420D01*
G75*
D01*
G03X168243Y140010I-578J-3420*
G01*
X158832Y140010D01*
X158420Y140422D01*
G75*
D01*
G03X155578Y137580I-3420J578*
G01*
X156579Y136579D01*
G74*
D01*
G03X157594Y136032I1421J1421*
G01*
G75*
D01*
G03X158000Y135990I406J1968*
G01*
X167159Y135990D01*
G75*
D01*
G03X168259Y131000I2841J-1990*
G01*
G75*
D01*
G03X171724Y124990I1741J-3000*
G01*
X185749Y124990D01*
X186000Y124739D01*
X186251Y124990D01*
X201168Y124990D01*
X201806Y124352D01*
G75*
D01*
G03X208456Y122702I3194J-1352*
G01*
X218580Y112578D01*
G75*
D01*
G03X221422Y115420I3420J-578*
G01*
X204923Y131919D01*
G74*
D01*
G03X204848Y131990I1423J1419*
G01*
X211682Y131990D01*
G74*
D01*
G03X213259Y130000I3318J1010*
G01*
G75*
D01*
G03X218417Y126403I1741J-3000*
G01*
X227990Y135977D01*
X227990Y122832D01*
X226578Y121420D01*
G75*
D01*
G03X229420Y118578I-578J-3420*
G01*
X229990Y119148D01*
X229990Y113832D01*
X226604Y110446D01*
G75*
D01*
G03X230194Y108352I396J-3446*
G01*
X231990Y110148D01*
X231990Y109827D01*
G75*
D01*
G03X236010Y109827I2010J-2827*
G01*
X236010Y130168D01*
X237470Y131628D01*
G75*
D01*
G03X242404Y136500I2530J2372*
G01*
G74*
D01*
G03X242827Y136990I2404J2500*
G01*
X248168Y136990D01*
X253990Y131168D01*
X253990Y123827D01*
G75*
D01*
G03X258010Y123827I2010J-2827*
G01*
X258010Y132000D01*
G74*
D01*
G03X257419Y133423I2010J0*
G01*
X250423Y140419D01*
G74*
D01*
G03X249000Y141010I1423J1419*
G01*
X244757Y141010D01*
G75*
D01*
G03X245841Y145990I-1757J2990*
G01*
X267168Y145990D01*
X268580Y144578D01*
G75*
D01*
G03X271422Y147420I3420J-578*
G01*
X270852Y147990D01*
X277168Y147990D01*
X281580Y143578D01*
X279000Y96010D02*
G75*
D01*
G03X278865Y96005I0J-2010*
G01*
G74*
D01*
G03X277579Y95421I135J2005*
G01*
X275139Y92981D01*
X275139Y92981D01*
X270578Y88420D01*
G75*
D01*
G03X267990Y82173I-578J-3420*
G01*
X267990Y41688D01*
G75*
D01*
G03X272010Y41688I2010J-3688*
G01*
X272010Y82173D01*
G75*
D01*
G03X273420Y85578I-2010J2827*
G01*
X279832Y91990D01*
X290000Y91990D01*
G74*
D01*
G03X291423Y92581I0J2010*
G01*
X291823Y92981D01*
X291823Y92981D01*
X294422Y95580D01*
G75*
D01*
G03X291580Y98422I578J3420*
G01*
X289168Y96010D01*
X279000Y96010D01*
X376445Y32614D02*
G75*
D01*
G03X376445Y32614I-1445J-7614*
G01*
X88716Y201985D02*
X94751Y201985D01*
X97985Y198751D01*
X97985Y91015D01*
X91170Y91015D01*
G75*
D01*
G03X91170Y84985I-3926J-3015*
G01*
X97985Y84985D01*
X97985Y69824D01*
G75*
D01*
G03X103354Y66117I2015J-2824*
G01*
G75*
D01*
G03X104015Y68000I-2354J1883*
G01*
X104015Y200000D01*
G74*
D01*
G03X103129Y202134I3015J0*
G01*
X98134Y207129D01*
G74*
D01*
G03X96000Y208015I2134J2129*
G01*
X88716Y208015D01*
G75*
D01*
G03X88716Y201985I-1716J-3015*
G01*
X376446Y310614D02*
G75*
D01*
G03X376446Y310614I-1446J-7614*
G01*
X394757Y92981D02*
G75*
D01*
G03X394757Y92981I-1962J161*
G01*
X396597Y94853D02*
X394886Y93142D01*
X395047Y92981D01*
X395047Y92981D01*
X396597Y91431D01*
G75*
D01*
G03X396597Y94853I-3802J1711*
G01*
X388994Y94853D02*
G75*
D01*
G03X388994Y91431I3801J-1711*
G01*
X390544Y92981D01*
X390544Y92981D01*
X390705Y93142D01*
X388994Y94853D01*
X348785Y281957D02*
G75*
D01*
G03X348785Y281957I1215J4799*
G01*
X178000Y92990D02*
X213173Y92990D01*
G75*
D01*
G03X213173Y97010I2827J2010*
G01*
X178832Y97010D01*
X173420Y102422D01*
G75*
D01*
G03X170578Y99580I-3420J578*
G01*
X176579Y93579D01*
G75*
D01*
G03X178000Y92990I1421J1421*
G01*
X187929Y206623D02*
G75*
D01*
G03X183910Y206623I-2009J2827*
G01*
X183910Y173085D01*
G75*
D01*
G03X184499Y171659I2010J-5*
G01*
X187469Y168689D01*
X187469Y168689D01*
X188554Y167604D01*
G75*
D01*
G03X190648Y171194I3446J396*
G01*
X187929Y173913D01*
X187929Y206623D01*
X167173Y192010D02*
X154468Y192010D01*
G75*
D01*
G03X151578Y188580I-3468J-10*
G01*
X151579Y188579D01*
G75*
D01*
G03X153003Y187990I1421J1421*
G01*
X167173Y187990D01*
G75*
D01*
G03X167173Y192010I2827J2010*
G01*
X281957Y204692D02*
G75*
D01*
G03X281957Y204692I-957J-692*
G01*
X279576Y207163D02*
X281000Y205739D01*
X282424Y207163D01*
G75*
D01*
G03X279576Y207163I-1424J-3163*
G01*
X276423Y276419D02*
G74*
D01*
G03X275000Y277010I1423J1419*
G01*
X233827Y277010D01*
G75*
D01*
G03X233827Y272990I-2827J-2010*
G01*
X274168Y272990D01*
X281957Y265201D01*
X285580Y261578D01*
G75*
D01*
G03X288422Y264420I3420J-578*
G01*
X281957Y270885D01*
X276423Y276419D01*
X279576Y200837D02*
G75*
D01*
G03X282424Y200837I1424J3163*
G01*
X281000Y202261D01*
X279576Y200837D01*
X186307Y231793D02*
G75*
D01*
G03X186307Y228946I3163J-1423*
G01*
X187730Y230370D01*
X186307Y231793D01*
X394506Y89340D02*
X392795Y91051D01*
X391084Y89340D01*
G75*
D01*
G03X394506Y89340I1711J3802*
G01*
X388576Y143163D02*
X390000Y141739D01*
X391424Y143163D01*
G75*
D01*
G03X388576Y143163I-1424J-3163*
G01*
X391084Y96943D02*
X392795Y95232D01*
X394506Y96943D01*
G75*
D01*
G03X391084Y96943I-1711J-3801*
G01*
X388994Y112569D02*
G75*
D01*
G03X388994Y109147I3801J-1711*
G01*
X390705Y110858D01*
X388994Y112569D01*
X394506Y107057D02*
X392795Y108768D01*
X391084Y107057D01*
G75*
D01*
G03X394506Y107057I1711J3801*
G01*
X390827Y110858D02*
G75*
D01*
G03X390827Y110858I1968J0*
G01*
X396597Y112569D02*
X394886Y110858D01*
X396597Y109147D01*
G75*
D01*
G03X396597Y112569I-3802J1711*
G01*
X391084Y114660D02*
X392795Y112949D01*
X394506Y114660D01*
G75*
D01*
G03X391084Y114660I-1711J-3802*
G01*
X386837Y141424D02*
G75*
D01*
G03X386837Y138576I3163J-1424*
G01*
X388261Y140000D01*
X386837Y141424D01*
X393163Y141424D02*
X391739Y140000D01*
X393163Y138576D01*
G75*
D01*
G03X393163Y141424I-3163J1424*
G01*
X391424Y136837D02*
X390000Y138261D01*
X388576Y136837D01*
G75*
D01*
G03X391424Y136837I1424J3163*
G01*
X388819Y140000D02*
G75*
D01*
G03X388819Y140000I1181J0*
G01*
X17250Y303000D02*
G75*
D01*
G03X17250Y303000I7750J0*
G01*
X70199Y301711D02*
G75*
D01*
G03X70199Y298289I3801J-1711*
G01*
X71910Y300000D01*
X70199Y301711D01*
X77801Y301711D02*
X76090Y300000D01*
X77801Y298289D01*
G75*
D01*
G03X77801Y301711I-3801J1711*
G01*
X72031Y300000D02*
G75*
D01*
G03X72031Y300000I1969J0*
G01*
X75711Y296199D02*
X74000Y297910D01*
X72289Y296199D01*
G75*
D01*
G03X75711Y296199I1711J3801*
G01*
X45711Y306199D02*
X44000Y307910D01*
X42289Y306199D01*
G75*
D01*
G03X45711Y306199I1711J3801*
G01*
X72289Y303801D02*
X74000Y302090D01*
X75711Y303801D01*
G75*
D01*
G03X72289Y303801I-1711J-3801*
G01*
X47801Y311711D02*
X46090Y310000D01*
X47801Y308289D01*
G75*
D01*
G03X47801Y311711I-3801J1711*
G01*
X40199Y311711D02*
G75*
D01*
G03X40199Y308289I3801J-1711*
G01*
X41910Y310000D01*
X40199Y311711D01*
X42289Y313801D02*
X44000Y312090D01*
X45711Y313801D01*
G75*
D01*
G03X42289Y313801I-1711J-3801*
G01*
X42031Y310000D02*
G75*
D01*
G03X42031Y310000I1969J0*
G01*
X70199Y321711D02*
G75*
D01*
G03X70199Y318289I3801J-1711*
G01*
X71910Y320000D01*
X70199Y321711D01*
X72289Y323801D02*
X74000Y322090D01*
X75711Y323801D01*
G75*
D01*
G03X72289Y323801I-1711J-3801*
G01*
X77801Y321711D02*
X76090Y320000D01*
X77801Y318289D01*
G75*
D01*
G03X77801Y321711I-3801J1711*
G01*
X75711Y316199D02*
X74000Y317910D01*
X72289Y316199D01*
G75*
D01*
G03X75711Y316199I1711J3801*
G01*
X72031Y320000D02*
G75*
D01*
G03X72031Y320000I1969J0*
G01*
X288831Y310000D02*
G75*
D01*
G03X288831Y310000I4169J0*
G01*
X258831Y300000D02*
G75*
D01*
G03X258831Y300000I4169J0*
G01*
X258831Y320000D02*
G75*
D01*
G03X258831Y320000I4169J0*
G01*
X189163Y124424D02*
X187739Y123000D01*
X189163Y121576D01*
G75*
D01*
G03X189163Y124424I-3163J1424*
G01*
X204819Y105000D02*
G75*
D01*
G03X204819Y105000I1181J0*
G01*
X209163Y106424D02*
X207739Y105000D01*
X209163Y103576D01*
G75*
D01*
G03X209163Y106424I-3163J1424*
G01*
X202837Y106424D02*
G75*
D01*
G03X202837Y103576I3163J-1424*
G01*
X204261Y105000D01*
X202837Y106424D01*
X204576Y108163D02*
X206000Y106739D01*
X207424Y108163D01*
G75*
D01*
G03X204576Y108163I-1424J-3163*
G01*
X207424Y101837D02*
X206000Y103261D01*
X204576Y101837D01*
G75*
D01*
G03X207424Y101837I1424J3163*
G01*
X274010Y160827D02*
X274010Y162000D01*
G74*
D01*
G03X273419Y163423I2010J0*
G01*
X261446Y175396D01*
G74*
D01*
G03X261420Y175580I3446J396*
G01*
G75*
D01*
G03X263352Y175806I580J3420*
G01*
X273580Y165578D01*
G75*
D01*
G03X276422Y168420I3420J-578*
G01*
X276222Y168620D01*
G75*
D01*
G03X276422Y175420I778J3380*
G01*
X269420Y182422D01*
G75*
D01*
G03X262580Y182420I-3420J578*
G01*
G75*
D01*
G03X258580Y178420I-580J-3420*
G01*
G75*
D01*
G03X259352Y171806I-580J-3420*
G01*
X269990Y161168D01*
X269990Y160827D01*
G75*
D01*
G03X274010Y160827I2010J-2827*
G01*
X248576Y159163D02*
X250000Y157739D01*
X251424Y159163D01*
G75*
D01*
G03X248576Y159163I-1424J-3163*
G01*
X248819Y156000D02*
G75*
D01*
G03X248819Y156000I1181J0*
G01*
X251424Y152837D02*
X250000Y154261D01*
X248576Y152837D01*
G75*
D01*
G03X251424Y152837I1424J3163*
G01*
X246837Y157424D02*
G75*
D01*
G03X246837Y154576I3163J-1424*
G01*
X248261Y156000D01*
X246837Y157424D01*
X253163Y157424D02*
X251739Y156000D01*
X253163Y154576D01*
G75*
D01*
G03X253163Y157424I-3163J1424*
G01*
X204576Y143163D02*
X206000Y141739D01*
X207424Y143163D01*
G75*
D01*
G03X204576Y143163I-1424J-3163*
G01*
X204819Y140000D02*
G75*
D01*
G03X204819Y140000I1181J0*
G01*
X209163Y141424D02*
X207739Y140000D01*
X209163Y138576D01*
G75*
D01*
G03X209163Y141424I-3163J1424*
G01*
X202837Y141424D02*
G75*
D01*
G03X202837Y138576I3163J-1424*
G01*
X204261Y140000D01*
X202837Y141424D01*
X207424Y136837D02*
X206000Y138261D01*
X204576Y136837D01*
G75*
D01*
G03X207424Y136837I1424J3163*
G01*
X143450Y92957D02*
X136550Y92957D01*
G75*
D01*
G03X135043Y91450I0J-1507*
G01*
X135043Y84550D01*
G75*
D01*
G03X136550Y83043I1507J0*
G01*
X143450Y83043D01*
G75*
D01*
G03X144957Y84550I0J1507*
G01*
X144957Y91450D01*
G74*
D01*
G03X143450Y92957I1507J0*
G01*
X110424Y69837D02*
X109000Y71261D01*
X107576Y69837D01*
G75*
D01*
G03X110424Y69837I1424J3163*
G01*
X107576Y76163D02*
X109000Y74739D01*
X110424Y76163D01*
G75*
D01*
G03X107576Y76163I-1424J-3163*
G01*
X105837Y74424D02*
G75*
D01*
G03X105837Y71576I3163J-1424*
G01*
X107261Y73000D01*
X105837Y74424D01*
X107819Y73000D02*
G75*
D01*
G03X107819Y73000I1181J0*
G01*
X112163Y74424D02*
X110739Y73000D01*
X112163Y71576D01*
G75*
D01*
G03X112163Y74424I-3163J1424*
G01*
X254207Y35300D02*
X254207Y40700D01*
G74*
D01*
G03X252700Y42207I1507J0*
G01*
X247300Y42207D01*
G75*
D01*
G03X245793Y40700I0J-1507*
G01*
X245793Y35300D01*
G75*
D01*
G03X247300Y33793I1507J0*
G01*
X252700Y33793D01*
G75*
D01*
G03X254207Y35300I0J1507*
G01*
X255800Y38000D02*
G75*
D01*
G03X255800Y38000I4200J0*
G01*
X251424Y62837D02*
X250000Y64261D01*
X248576Y62837D01*
G75*
D01*
G03X251424Y62837I1424J3163*
G01*
X211978Y68000D02*
G75*
D01*
G03X208022Y68000I-1978J1969*
G01*
G75*
D01*
G03X211978Y68000I1978J-1969*
G01*
X253163Y67424D02*
X251739Y66000D01*
X253163Y64576D01*
G75*
D01*
G03X253163Y67424I-3163J1424*
G01*
X246837Y67424D02*
G75*
D01*
G03X246837Y64576I3163J-1424*
G01*
X248261Y66000D01*
X246837Y67424D01*
X248576Y69163D02*
X250000Y67739D01*
X251424Y69163D01*
G75*
D01*
G03X248576Y69163I-1424J-3163*
G01*
X248819Y66000D02*
G75*
D01*
G03X248819Y66000I1181J0*
G01*
X203837Y85424D02*
G75*
D01*
G03X203837Y82576I3163J-1424*
G01*
X205261Y84000D01*
X203837Y85424D01*
X205576Y87163D02*
X207000Y85739D01*
X208424Y87163D01*
G75*
D01*
G03X205576Y87163I-1424J-3163*
G01*
X210163Y85424D02*
X208739Y84000D01*
X210163Y82576D01*
G75*
D01*
G03X210163Y85424I-3163J1424*
G01*
X208424Y80837D02*
X207000Y82261D01*
X205576Y80837D01*
G75*
D01*
G03X208424Y80837I1424J3163*
G01*
X205819Y84000D02*
G75*
D01*
G03X205819Y84000I1181J0*
G01*
X228586Y85250D02*
G75*
D01*
G03X228586Y82403I3163J-1423*
G01*
X230009Y83827D01*
X228586Y85250D01*
X230325Y86989D02*
X231749Y85566D01*
X233172Y86989D01*
G75*
D01*
G03X230325Y86989I-1423J-3162*
G01*
X234912Y85250D02*
X233488Y83827D01*
X234912Y82403D01*
G75*
D01*
G03X234912Y85250I-3163J1424*
G01*
X233172Y80664D02*
X231749Y82087D01*
X230325Y80664D01*
G75*
D01*
G03X233172Y80664I1424J3163*
G01*
X230568Y83827D02*
G75*
D01*
G03X230568Y83827I1181J0*
G01*
X105626Y111000D02*
G75*
D01*
G03X105626Y111000I9374J0*
G01*
X141422Y110457D02*
G75*
D01*
G03X141422Y110457I3578J0*
G01*
X151837Y119424D02*
G75*
D01*
G03X151837Y116576I3163J-1424*
G01*
X153261Y118000D01*
X151837Y119424D01*
X158163Y119424D02*
X156739Y118000D01*
X158163Y116576D01*
G75*
D01*
G03X158163Y119424I-3163J1424*
G01*
X153819Y118000D02*
G75*
D01*
G03X153819Y118000I1181J0*
G01*
X156424Y114837D02*
X155000Y116261D01*
X153576Y114837D01*
G75*
D01*
G03X156424Y114837I1424J3163*
G01*
X153576Y121163D02*
X155000Y119739D01*
X156424Y121163D01*
G75*
D01*
G03X153576Y121163I-1424J-3163*
G01*
X182837Y124424D02*
G75*
D01*
G03X182837Y121576I3163J-1424*
G01*
X184261Y123000D01*
X182837Y124424D01*
X187424Y119837D02*
X186000Y121261D01*
X184576Y119837D01*
G75*
D01*
G03X187424Y119837I1424J3163*
G01*
X184819Y123000D02*
G75*
D01*
G03X184819Y123000I1181J0*
G01*
X158163Y131424D02*
X156739Y130000D01*
X158163Y128576D01*
G75*
D01*
G03X158163Y131424I-3163J1424*
G01*
X151837Y131424D02*
G75*
D01*
G03X151837Y128576I3163J-1424*
G01*
X153261Y130000D01*
X151837Y131424D01*
X153576Y133163D02*
X155000Y131739D01*
X156424Y133163D01*
G75*
D01*
G03X153576Y133163I-1424J-3163*
G01*
X156424Y126837D02*
X155000Y128261D01*
X153576Y126837D01*
G75*
D01*
G03X156424Y126837I1424J3163*
G01*
X153819Y130000D02*
G75*
D01*
G03X153819Y130000I1181J0*
G01*
X167173Y176010D02*
X153827Y176010D01*
G75*
D01*
G03X153827Y171990I-2827J-2010*
G01*
X167173Y171990D01*
G75*
D01*
G03X167173Y176010I2827J2010*
G01*
X167173Y185010D02*
X153827Y185010D01*
G75*
D01*
G03X153827Y180990I-2827J-2010*
G01*
X167173Y180990D01*
G75*
D01*
G03X167173Y185010I2827J2010*
G01*
X17250Y25000D02*
G75*
D01*
G03X17250Y25000I7750J0*
G01*
X286170Y39724D02*
G75*
D01*
G03X286170Y36276I3830J-1724*
G01*
X287894Y38000D01*
X286170Y39724D01*
X291724Y34170D02*
X290000Y35894D01*
X288276Y34170D01*
G75*
D01*
G03X291724Y34170I1724J3830*
G01*
X288000Y38000D02*
G75*
D01*
G03X288000Y38000I2000J0*
G01*
X293830Y39724D02*
X292106Y38000D01*
X293830Y36276D01*
G75*
D01*
G03X293830Y39724I-3830J1724*
G01*
X288276Y41830D02*
X290000Y40106D01*
X291724Y41830D01*
G75*
D01*
G03X288276Y41830I-1724J-3830*
G01*
X308424Y75837D02*
X307000Y77261D01*
X305576Y75837D01*
G75*
D01*
G03X308424Y75837I1424J3163*
G01*
X305819Y79000D02*
G75*
D01*
G03X305819Y79000I1181J0*
G01*
X310163Y80424D02*
X308739Y79000D01*
X310163Y77576D01*
G75*
D01*
G03X310163Y80424I-3163J1424*
G01*
X333642Y80953D02*
G74*
D01*
G03X331047Y78358I358J2953*
G01*
X329281Y80124D01*
G75*
D01*
G03X329281Y75876I4719J-2124*
G01*
X331047Y77642D01*
G74*
D01*
G03X333642Y75047I2953J358*
G01*
X331876Y73281D01*
G75*
D01*
G03X336124Y73281I2124J4719*
G01*
X334358Y75047D01*
G74*
D01*
G03X336953Y77642I358J2953*
G01*
X338719Y75876D01*
G75*
D01*
G03X338719Y80124I-4719J2124*
G01*
X336953Y78358D01*
G74*
D01*
G03X334358Y80953I2953J358*
G01*
X336124Y82719D01*
G75*
D01*
G03X331876Y82719I-2124J-4719*
G01*
X333642Y80953D01*
X353642Y80953D02*
G74*
D01*
G03X351047Y78358I358J2953*
G01*
X349281Y80124D01*
G75*
D01*
G03X349281Y75876I4719J-2124*
G01*
X351047Y77642D01*
G74*
D01*
G03X353642Y75047I2953J358*
G01*
X351876Y73281D01*
G75*
D01*
G03X356124Y73281I2124J4719*
G01*
X354358Y75047D01*
G74*
D01*
G03X356953Y77642I358J2953*
G01*
X358719Y75876D01*
G75*
D01*
G03X358719Y80124I-4719J2124*
G01*
X356953Y78358D01*
G74*
D01*
G03X354358Y80953I2953J358*
G01*
X356124Y82719D01*
G75*
D01*
G03X351876Y82719I-2124J-4719*
G01*
X353642Y80953D01*
X307954Y81693D02*
G75*
D01*
G03X310424Y81837I1046J3307*
G01*
X309000Y83261D01*
X308046Y82307D01*
G75*
D01*
G03X305576Y82163I-1046J-3307*
G01*
X307000Y80739D01*
X307954Y81693D01*
X305837Y86424D02*
G75*
D01*
G03X305837Y83576I3163J-1424*
G01*
X307261Y85000D01*
X305837Y86424D01*
X312163Y86424D02*
X310739Y85000D01*
X312163Y83576D01*
G75*
D01*
G03X312163Y86424I-3163J1424*
G01*
X307819Y85000D02*
G75*
D01*
G03X307819Y85000I1181J0*
G01*
X307576Y88163D02*
X309000Y86739D01*
X310424Y88163D01*
G75*
D01*
G03X307576Y88163I-1424J-3163*
G01*
X74819Y247000D02*
G75*
D01*
G03X74819Y247000I1181J0*
G01*
X59424Y211837D02*
X58000Y213261D01*
X56576Y211837D01*
G75*
D01*
G03X59424Y211837I1424J3163*
G01*
X69424Y211837D02*
X68000Y213261D01*
X66576Y211837D01*
G75*
D01*
G03X69424Y211837I1424J3163*
G01*
X42837Y221424D02*
G75*
D01*
G03X42837Y218576I3163J-1424*
G01*
X44261Y220000D01*
X42837Y221424D01*
X47424Y216837D02*
X46000Y218261D01*
X44576Y216837D01*
G75*
D01*
G03X47424Y216837I1424J3163*
G01*
X44819Y220000D02*
G75*
D01*
G03X44819Y220000I1181J0*
G01*
X54837Y216424D02*
G75*
D01*
G03X54837Y213576I3163J-1424*
G01*
X56261Y215000D01*
X54837Y216424D01*
X49163Y221424D02*
X47739Y220000D01*
X49163Y218576D01*
G75*
D01*
G03X49163Y221424I-3163J1424*
G01*
X56576Y218163D02*
X58000Y216739D01*
X59424Y218163D01*
G75*
D01*
G03X56576Y218163I-1424J-3163*
G01*
X61163Y216424D02*
X59739Y215000D01*
X61163Y213576D01*
G75*
D01*
G03X61163Y216424I-3163J1424*
G01*
X56819Y215000D02*
G75*
D01*
G03X56819Y215000I1181J0*
G01*
X71163Y216424D02*
X69739Y215000D01*
X71163Y213576D01*
G75*
D01*
G03X71163Y216424I-3163J1424*
G01*
X64837Y216424D02*
G75*
D01*
G03X64837Y213576I3163J-1424*
G01*
X66261Y215000D01*
X64837Y216424D01*
X66576Y218163D02*
X68000Y216739D01*
X69424Y218163D01*
G75*
D01*
G03X66576Y218163I-1424J-3163*
G01*
X66819Y215000D02*
G75*
D01*
G03X66819Y215000I1181J0*
G01*
X44576Y223163D02*
X46000Y221739D01*
X47424Y223163D01*
G75*
D01*
G03X44576Y223163I-1424J-3163*
G01*
X36576Y236163D02*
X38000Y234739D01*
X39424Y236163D01*
G75*
D01*
G03X36576Y236163I-1424J-3163*
G01*
X39424Y229837D02*
X38000Y231261D01*
X36576Y229837D01*
G75*
D01*
G03X39424Y229837I1424J3163*
G01*
X34837Y234424D02*
G75*
D01*
G03X34837Y231576I3163J-1424*
G01*
X36261Y233000D01*
X34837Y234424D01*
X36819Y233000D02*
G75*
D01*
G03X36819Y233000I1181J0*
G01*
X41163Y234424D02*
X39739Y233000D01*
X41163Y231576D01*
G75*
D01*
G03X41163Y234424I-3163J1424*
G01*
X77424Y243837D02*
X76000Y245261D01*
X74576Y243837D01*
G75*
D01*
G03X77424Y243837I1424J3163*
G01*
X38837Y249424D02*
G75*
D01*
G03X38837Y246576I3163J-1424*
G01*
X40261Y248000D01*
X38837Y249424D01*
X40576Y251163D02*
X42000Y249739D01*
X43424Y251163D01*
G75*
D01*
G03X40576Y251163I-1424J-3163*
G01*
X45163Y249424D02*
X43739Y248000D01*
X45163Y246576D01*
G75*
D01*
G03X45163Y249424I-3163J1424*
G01*
X43424Y244837D02*
X42000Y246261D01*
X40576Y244837D01*
G75*
D01*
G03X43424Y244837I1424J3163*
G01*
X40819Y248000D02*
G75*
D01*
G03X40819Y248000I1181J0*
G01*
X79163Y248424D02*
X77739Y247000D01*
X79163Y245576D01*
G75*
D01*
G03X79163Y248424I-3163J1424*
G01*
X72837Y248424D02*
G75*
D01*
G03X72837Y245576I3163J-1424*
G01*
X74261Y247000D01*
X72837Y248424D01*
X74576Y250163D02*
X76000Y248739D01*
X77424Y250163D01*
G75*
D01*
G03X74576Y250163I-1424J-3163*
G01*
X85819Y179000D02*
G75*
D01*
G03X85819Y179000I1181J0*
G01*
X22917Y122000D02*
G75*
D01*
G03X22917Y122000I5083J0*
G01*
X62917Y122000D02*
G75*
D01*
G03X62917Y122000I5083J0*
G01*
X45576Y174163D02*
X47000Y172739D01*
X48424Y174163D01*
G75*
D01*
G03X45576Y174163I-1424J-3163*
G01*
X48424Y167837D02*
X47000Y169261D01*
X45576Y167837D01*
G75*
D01*
G03X48424Y167837I1424J3163*
G01*
X45819Y171000D02*
G75*
D01*
G03X45819Y171000I1181J0*
G01*
X43837Y172424D02*
G75*
D01*
G03X43837Y169576I3163J-1424*
G01*
X45261Y171000D01*
X43837Y172424D01*
X50163Y172424D02*
X48739Y171000D01*
X50163Y169576D01*
G75*
D01*
G03X50163Y172424I-3163J1424*
G01*
X78173Y176010D02*
X67827Y176010D01*
G75*
D01*
G03X67827Y171990I-2827J-2010*
G01*
X78173Y171990D01*
G75*
D01*
G03X78173Y176010I2827J2010*
G01*
X88424Y175837D02*
X87000Y177261D01*
X85576Y175837D01*
G75*
D01*
G03X88424Y175837I1424J3163*
G01*
X83837Y180424D02*
G75*
D01*
G03X83837Y177576I3163J-1424*
G01*
X85261Y179000D01*
X83837Y180424D01*
X284163Y205424D02*
X282739Y204000D01*
X284163Y202576D01*
G75*
D01*
G03X284163Y205424I-3163J1424*
G01*
X311837Y215424D02*
G75*
D01*
G03X311837Y212576I3163J-1424*
G01*
X313261Y214000D01*
X311837Y215424D01*
X316424Y210837D02*
X315000Y212261D01*
X313576Y210837D01*
G75*
D01*
G03X316424Y210837I1424J3163*
G01*
X318163Y215424D02*
X316739Y214000D01*
X318163Y212576D01*
G75*
D01*
G03X318163Y215424I-3163J1424*
G01*
X313576Y217163D02*
X315000Y215739D01*
X316424Y217163D01*
G75*
D01*
G03X313576Y217163I-1424J-3163*
G01*
X313819Y214000D02*
G75*
D01*
G03X313819Y214000I1181J0*
G01*
X291837Y230424D02*
G75*
D01*
G03X291837Y227576I3163J-1424*
G01*
X293261Y229000D01*
X291837Y230424D01*
X298163Y230424D02*
X296739Y229000D01*
X298163Y227576D01*
G75*
D01*
G03X298163Y230424I-3163J1424*
G01*
X293819Y229000D02*
G75*
D01*
G03X293819Y229000I1181J0*
G01*
X296424Y225837D02*
X295000Y227261D01*
X293576Y225837D01*
G75*
D01*
G03X296424Y225837I1424J3163*
G01*
X293576Y232163D02*
X295000Y230739D01*
X296424Y232163D01*
G75*
D01*
G03X293576Y232163I-1424J-3163*
G01*
X354957Y230550D02*
X354957Y237450D01*
G74*
D01*
G03X353450Y238957I1507J0*
G01*
X346550Y238957D01*
G75*
D01*
G03X345043Y237450I0J-1507*
G01*
X345043Y230550D01*
G75*
D01*
G03X346550Y229043I1507J0*
G01*
X353450Y229043D01*
G75*
D01*
G03X354957Y230550I0J1507*
G01*
X322837Y261424D02*
G75*
D01*
G03X322837Y258576I3163J-1424*
G01*
X324261Y260000D01*
X322837Y261424D01*
X329163Y261424D02*
X327739Y260000D01*
X329163Y258576D01*
G75*
D01*
G03X329163Y261424I-3163J1424*
G01*
X324819Y260000D02*
G75*
D01*
G03X324819Y260000I1181J0*
G01*
X327424Y256837D02*
X326000Y258261D01*
X324576Y256837D01*
G75*
D01*
G03X327424Y256837I1424J3163*
G01*
X324576Y263163D02*
X326000Y261739D01*
X327424Y263163D01*
G75*
D01*
G03X324576Y263163I-1424J-3163*
G01*
X205307Y205793D02*
G75*
D01*
G03X205307Y202946I3163J-1423*
G01*
X206730Y204370D01*
X205307Y205793D01*
X211633Y205793D02*
X210209Y204370D01*
X211633Y202946D01*
G75*
D01*
G03X211633Y205793I-3163J1424*
G01*
X207289Y204370D02*
G75*
D01*
G03X207289Y204370I1181J0*
G01*
X209893Y201207D02*
X208470Y202630D01*
X207046Y201207D01*
G75*
D01*
G03X209893Y201207I1424J3163*
G01*
X277837Y205424D02*
G75*
D01*
G03X277837Y202576I3163J-1424*
G01*
X279261Y204000D01*
X277837Y205424D01*
X207046Y207533D02*
X208470Y206109D01*
X209893Y207533D01*
G75*
D01*
G03X207046Y207533I-1423J-3163*
G01*
X190893Y227207D02*
X189470Y228630D01*
X188046Y227207D01*
G75*
D01*
G03X190893Y227207I1424J3163*
G01*
X188046Y233533D02*
X189470Y232109D01*
X190893Y233533D01*
G75*
D01*
G03X188046Y233533I-1423J-3163*
G01*
X188289Y230370D02*
G75*
D01*
G03X188289Y230370I1181J0*
G01*
X192633Y231793D02*
X191209Y230370D01*
X192633Y228946D01*
G75*
D01*
G03X192633Y231793I-3163J1424*
G01*
X265576Y236163D02*
X267000Y234739D01*
X268424Y236163D01*
G75*
D01*
G03X265576Y236163I-1424J-3163*
G01*
X268424Y229837D02*
X267000Y231261D01*
X265576Y229837D01*
G75*
D01*
G03X268424Y229837I1424J3163*
G01*
X265819Y233000D02*
G75*
D01*
G03X265819Y233000I1181J0*
G01*
X263837Y234424D02*
G75*
D01*
G03X263837Y231576I3163J-1424*
G01*
X265261Y233000D01*
X263837Y234424D01*
X270163Y234424D02*
X268739Y233000D01*
X270163Y231576D01*
G75*
D01*
G03X270163Y234424I-3163J1424*
G01*
X357576Y187163D02*
X359000Y185739D01*
X360424Y187163D01*
G75*
D01*
G03X357576Y187163I-1424J-3163*
G01*
X355837Y185424D02*
G75*
D01*
G03X355837Y182576I3163J-1424*
G01*
X357261Y184000D01*
X355837Y185424D01*
X362163Y185424D02*
X360739Y184000D01*
X362163Y182576D01*
G75*
D01*
G03X362163Y185424I-3163J1424*
G01*
X360424Y180837D02*
X359000Y182261D01*
X357576Y180837D01*
G75*
D01*
G03X360424Y180837I1424J3163*
G01*
X350042Y170000D02*
G75*
D01*
G03X350042Y170000I1958J0*
G01*
X349910Y165645D02*
G75*
D01*
G03X350959Y165483I1049J3314*
G01*
X353042Y165483D01*
G74*
D01*
G03X354090Y165645I0J3476*
G01*
X352000Y167735D01*
X349910Y165645D01*
X347645Y172090D02*
G74*
D01*
G03X347483Y171042I3314J1048*
G01*
X347483Y168959D01*
G75*
D01*
G03X347645Y167910I3476J0*
G01*
X349735Y170000D01*
X347645Y172090D01*
X354090Y174355D02*
G74*
D01*
G03X353042Y174517I1048J3313*
G01*
X350959Y174517D01*
G75*
D01*
G03X349910Y174355I0J-3475*
G01*
X352000Y172265D01*
X354090Y174355D01*
X356355Y172090D02*
X354265Y170000D01*
X356355Y167910D01*
G75*
D01*
G03X356517Y168959I-3313J1049*
G01*
X356517Y171042D01*
G74*
D01*
G03X356355Y172090I3475J0*
G01*
X304827Y152990D02*
X307000Y152990D01*
G74*
D01*
G03X308423Y153581I0J2010*
G01*
X320443Y165601D01*
G75*
D01*
G03X317601Y168443I1557J4399*
G01*
X306168Y157010D01*
X304827Y157010D01*
G75*
D01*
G03X304827Y152990I-2827J-2010*
G01*
X307788Y172010D02*
X307000Y172010D01*
G75*
D01*
G03X306612Y171972I0J-2010*
G01*
G74*
D01*
G03X305579Y171421I388J1972*
G01*
X296578Y162420D01*
G75*
D01*
G03X299420Y159578I-578J-3420*
G01*
X307802Y167960D01*
G75*
D01*
G03X307788Y172010I4198J2040*
G01*
X319576Y153163D02*
X321000Y151739D01*
X322424Y153163D01*
G75*
D01*
G03X319576Y153163I-1424J-3163*
G01*
X337333Y170000D02*
G75*
D01*
G03X337333Y170000I4667J0*
G01*
X327333Y170000D02*
G75*
D01*
G03X327333Y170000I4667J0*
G01*
X359576Y143163D02*
X361000Y141739D01*
X362424Y143163D01*
G75*
D01*
G03X359576Y143163I-1424J-3163*
G01*
X322424Y146837D02*
X321000Y148261D01*
X319576Y146837D01*
G75*
D01*
G03X322424Y146837I1424J3163*
G01*
X319819Y150000D02*
G75*
D01*
G03X319819Y150000I1181J0*
G01*
X324163Y151424D02*
X322739Y150000D01*
X324163Y148576D01*
G75*
D01*
G03X324163Y151424I-3163J1424*
G01*
X317837Y151424D02*
G75*
D01*
G03X317837Y148576I3163J-1424*
G01*
X319261Y150000D01*
X317837Y151424D01*
X364163Y141424D02*
X362739Y140000D01*
X364163Y138576D01*
G75*
D01*
G03X364163Y141424I-3163J1424*
G01*
X359819Y140000D02*
G75*
D01*
G03X359819Y140000I1181J0*
G01*
X357837Y141424D02*
G75*
D01*
G03X357837Y138576I3163J-1424*
G01*
X359261Y140000D01*
X357837Y141424D01*
X362424Y136837D02*
X361000Y138261D01*
X359576Y136837D01*
G75*
D01*
G03X362424Y136837I1424J3163*
G01*
X306576Y130163D02*
X308000Y128739D01*
X309424Y130163D01*
G75*
D01*
G03X306576Y130163I-1424J-3163*
G01*
X356163Y121424D02*
X354739Y120000D01*
X356163Y118576D01*
G75*
D01*
G03X356163Y121424I-3163J1424*
G01*
X351819Y120000D02*
G75*
D01*
G03X351819Y120000I1181J0*
G01*
X349837Y121424D02*
G75*
D01*
G03X349837Y118576I3163J-1424*
G01*
X351261Y120000D01*
X349837Y121424D01*
X351576Y123163D02*
X353000Y121739D01*
X354424Y123163D01*
G75*
D01*
G03X351576Y123163I-1424J-3163*
G01*
X311163Y128424D02*
X309739Y127000D01*
X311163Y125576D01*
G75*
D01*
G03X311163Y128424I-3163J1424*
G01*
X306819Y127000D02*
G75*
D01*
G03X306819Y127000I1181J0*
G01*
X309424Y123837D02*
X308000Y125261D01*
X306576Y123837D01*
G75*
D01*
G03X309424Y123837I1424J3163*
G01*
X304837Y128424D02*
G75*
D01*
G03X304837Y125576I3163J-1424*
G01*
X306261Y127000D01*
X304837Y128424D01*
X354424Y116837D02*
X353000Y118261D01*
X351576Y116837D01*
G75*
D01*
G03X354424Y116837I1424J3163*
G01*
X363036Y110858D02*
G75*
D01*
G03X363036Y110858I4169J0*
G01*
X307576Y98163D02*
X309000Y96739D01*
X310424Y98163D01*
G75*
D01*
G03X307576Y98163I-1424J-3163*
G01*
X307819Y95000D02*
G75*
D01*
G03X307819Y95000I1181J0*
G01*
X312163Y96424D02*
X310739Y95000D01*
X312163Y93576D01*
G75*
D01*
G03X312163Y96424I-3163J1424*
G01*
X305837Y96424D02*
G75*
D01*
G03X305837Y93576I3163J-1424*
G01*
X307261Y95000D01*
X305837Y96424D01*
X357819Y184000D02*
G75*
D01*
G03X357819Y184000I1181J0*
G01*
X121576Y271163D02*
X123000Y269739D01*
X124424Y271163D01*
G75*
D01*
G03X121576Y271163I-1424J-3163*
G01*
X106626Y223000D02*
G75*
D01*
G03X106626Y223000I9374J0*
G01*
X141335Y217543D02*
G75*
D01*
G03X141335Y217543I4071J0*
G01*
X150827Y265010D02*
G75*
D01*
G03X150827Y260990I-2827J-2010*
G01*
X155990Y260990D01*
X155990Y239318D01*
G75*
D01*
G03X160010Y237724I1010J-3318*
G01*
X160010Y263000D01*
G74*
D01*
G03X158000Y265010I2010J0*
G01*
X150827Y265010D01*
X119837Y245424D02*
G75*
D01*
G03X119837Y242576I3163J-1424*
G01*
X121261Y244000D01*
X119837Y245424D01*
X126163Y245424D02*
X124739Y244000D01*
X126163Y242576D01*
G75*
D01*
G03X126163Y245424I-3163J1424*
G01*
X121819Y244000D02*
G75*
D01*
G03X121819Y244000I1181J0*
G01*
X124424Y240837D02*
X123000Y242261D01*
X121576Y240837D01*
G75*
D01*
G03X124424Y240837I1424J3163*
G01*
X172424Y242837D02*
X171000Y244261D01*
X169576Y242837D01*
G75*
D01*
G03X172424Y242837I1424J3163*
G01*
X121576Y247163D02*
X123000Y245739D01*
X124424Y247163D01*
G75*
D01*
G03X121576Y247163I-1424J-3163*
G01*
X174163Y247424D02*
X172739Y246000D01*
X174163Y244576D01*
G75*
D01*
G03X174163Y247424I-3163J1424*
G01*
X167837Y247424D02*
G75*
D01*
G03X167837Y244576I3163J-1424*
G01*
X169261Y246000D01*
X167837Y247424D01*
X169576Y249163D02*
X171000Y247739D01*
X172424Y249163D01*
G75*
D01*
G03X169576Y249163I-1424J-3163*
G01*
X169819Y246000D02*
G75*
D01*
G03X169819Y246000I1181J0*
G01*
X126163Y257424D02*
X124739Y256000D01*
X126163Y254576D01*
G75*
D01*
G03X126163Y257424I-3163J1424*
G01*
X119837Y257424D02*
G75*
D01*
G03X119837Y254576I3163J-1424*
G01*
X121261Y256000D01*
X119837Y257424D01*
X121576Y259163D02*
X123000Y257739D01*
X124424Y259163D01*
G75*
D01*
G03X121576Y259163I-1424J-3163*
G01*
X124424Y252837D02*
X123000Y254261D01*
X121576Y252837D01*
G75*
D01*
G03X124424Y252837I1424J3163*
G01*
X121819Y256000D02*
G75*
D01*
G03X121819Y256000I1181J0*
G01*
X119837Y269424D02*
G75*
D01*
G03X119837Y266576I3163J-1424*
G01*
X121261Y268000D01*
X119837Y269424D01*
X126163Y269424D02*
X124739Y268000D01*
X126163Y266576D01*
G75*
D01*
G03X126163Y269424I-3163J1424*
G01*
X121819Y268000D02*
G75*
D01*
G03X121819Y268000I1181J0*
G01*
X124424Y264837D02*
X123000Y266261D01*
X121576Y264837D01*
G75*
D01*
G03X124424Y264837I1424J3163*
G01*
X398493Y324876D02*
X398493Y1507D01*
X1507Y1507D01*
X1507Y326493D01*
X396876Y326493D01*
G74*
D01*
G03X398493Y324876I3124J1507*
G01*
X273580Y172578D02*
X266578Y179580D01*
G75*
D01*
G02X265420Y179580I-578J3420*
G01*
G74*
D01*
G02X265446Y179396I3420J580*
G01*
X273620Y171222D01*
G75*
D01*
G02X273580Y172578I3380J778*
G01*
X236534Y138864D02*
X234010Y136339D01*
X234010Y133852D01*
X235579Y135421D01*
G75*
D01*
G02X237003Y136010I1421J-1421*
G01*
X237173Y136010D01*
G74*
D01*
G02X237596Y136500I2827J2010*
G01*
G74*
D01*
G02X236534Y138864I2404J2500*
G01*
X80630Y179043D02*
X86957Y179043D01*
X65000Y183000D02*
X90000Y183000D01*
X151000Y183000D02*
X170000Y183000D01*
X151000Y192000D02*
X153000Y190000D01*
X170000Y190000D01*
X65000Y174000D02*
X81000Y174000D01*
X151000Y174000D02*
X170000Y174000D01*
X185920Y209450D02*
X185920Y173080D01*
X271000Y158000D02*
X272000Y158000D01*
X277000Y172000D02*
X266000Y183000D01*
X277000Y165000D02*
X263000Y179000D01*
X262000Y179000D01*
X272000Y158000D02*
X272000Y162000D01*
X259000Y175000D01*
X185920Y173080D02*
X191000Y168000D01*
X192000Y168000D01*
X66000Y192000D02*
X89000Y192000D01*
X285000Y143000D02*
X278000Y150000D01*
X268000Y148000D02*
X272000Y144000D01*
X240000Y139000D02*
X249000Y139000D01*
X256000Y132000D01*
X256000Y121000D01*
X232000Y113000D02*
X227000Y108000D01*
X230000Y122000D02*
X226000Y118000D01*
X202000Y127000D02*
X205000Y124000D01*
X205000Y123000D01*
X202000Y127000D02*
X170000Y127000D01*
X234000Y108000D02*
X234000Y131000D01*
X237000Y134000D02*
X240000Y134000D01*
X234000Y131000D02*
X237000Y134000D01*
X216172Y127000D02*
X239172Y150000D01*
X232000Y137172D02*
X232000Y113000D01*
X238828Y144000D02*
X232000Y137172D01*
X243000Y144000D02*
X238828Y144000D01*
X240000Y148000D02*
X268000Y148000D01*
X230000Y138000D02*
X230000Y122000D01*
X230000Y138000D02*
X240000Y148000D01*
X215000Y127000D02*
X216172Y127000D01*
X278000Y150000D02*
X239172Y150000D01*
X270000Y38000D02*
X270000Y85000D01*
X280000Y38000D02*
X280000Y85000D01*
X87000Y172000D02*
X87000Y179000D01*
X62000Y31000D02*
X273000Y31000D01*
X280000Y38000D01*
X62000Y37000D02*
X62000Y31000D01*
X275000Y275000D02*
X289000Y261000D01*
X170000Y128000D02*
X170000Y127000D01*
X170000Y103000D02*
X178000Y95000D01*
X216000Y95000D01*
X158000Y237000D02*
X157000Y236000D01*
X158000Y263000D02*
X158000Y237000D01*
X148000Y263000D02*
X158000Y263000D01*
X173500Y130500D02*
X203500Y130500D01*
X173500Y130500D02*
X170000Y134000D01*
X171000Y138000D02*
X158000Y138000D01*
X203500Y130500D02*
X222000Y112000D01*
X213000Y157000D02*
X184000Y157000D01*
X175000Y134000D02*
X214000Y134000D01*
X184000Y157000D02*
X170000Y143000D01*
X214000Y134000D02*
X215000Y133000D01*
X158000Y138000D02*
X155000Y141000D01*
X171000Y138000D02*
X175000Y134000D01*
X301000Y209000D02*
X304000Y206000D01*
X301000Y237000D02*
X301000Y209000D01*
X279000Y94000D02*
X270000Y85000D01*
X290000Y94000D02*
X279000Y94000D01*
X231000Y275000D02*
X275000Y275000D01*
X289000Y146000D02*
X294000Y141000D01*
X304000Y190000D02*
X289000Y175000D01*
X289000Y146000D01*
X304000Y206000D02*
X304000Y190000D01*
X307000Y170000D02*
X296000Y159000D01*
X312000Y170000D02*
X307000Y170000D01*
X307000Y155000D02*
X322000Y170000D01*
X302000Y155000D02*
X307000Y155000D01*
X290000Y94000D02*
X295000Y99000D01*
X294000Y140000D02*
X294000Y139000D01*
X84000Y169000D02*
X87000Y172000D01*
X47000Y171000D02*
X49000Y169000D01*
G54D12*
X302000Y101000D02*
X302000Y54000D01*
X306000Y50000D01*
X40000Y188000D02*
X71000Y188000D01*
X71500Y196819D02*
X71189Y196819D01*
X40319Y196319D02*
X40000Y196000D01*
X40319Y196319D02*
X71000Y196319D01*
X71500Y196819D02*
X71000Y196319D01*
G54D13*
X87000Y205000D02*
X96000Y205000D01*
X101000Y200000D01*
X101000Y68000D02*
X101000Y200000D01*
X101000Y68000D02*
X100000Y67000D01*
X101000Y88000D02*
X87244Y88000D01*
G54D14*
X0Y0D02*
X0Y32800D01*
X0Y0D02*
X40000Y0D01*
X400000Y0D02*
X360000Y0D01*
X400000Y0D02*
X400000Y32800D01*
X400000Y328000D02*
X400000Y295200D01*
X400000Y328000D02*
X360000Y328000D01*
X0Y328000D02*
X40000Y328000D01*
X0Y328000D02*
X0Y295200D01*
X-19685Y0D02*
X-59055Y0D01*
X-39370Y-19685D02*
X-39370Y19685D01*
X-54134Y0D02*
G75*
D01*
G02X-54134Y0I14764J0*
G01*
X419685Y0D02*
X459055Y0D01*
X439370Y-19685D02*
X439370Y19685D01*
X424606Y0D02*
G75*
D01*
G02X424606Y0I14764J0*
G01*
X434449Y0D02*
G75*
D01*
G02X434449Y0I4921J0*
G01*
X-19685Y328000D02*
X-59055Y328000D01*
X-39370Y308315D02*
X-39370Y347685D01*
X-54134Y328000D02*
G75*
D01*
G02X-54134Y328000I14764J0*
G01*
X-49213Y328000D02*
G75*
D01*
G02X-49213Y328000I9843J0*
G01*
X-44291Y328000D02*
G75*
D01*
G02X-44291Y328000I4921J0*
G01*
X0Y0D02*
X0Y32800D01*
X0Y0D02*
X40000Y0D01*
X400000Y0D02*
X360000Y0D01*
X400000Y0D02*
X400000Y32800D01*
X400000Y328000D02*
X400000Y295200D01*
X400000Y328000D02*
X360000Y328000D01*
X0Y328000D02*
X40000Y328000D01*
X0Y328000D02*
X0Y295200D01*
X-19685Y0D02*
X-59055Y0D01*
X-39370Y-19685D02*
X-39370Y19685D01*
X-54134Y0D02*
G75*
D01*
G02X-54134Y0I14764J0*
G01*
X419685Y0D02*
X459055Y0D01*
X439370Y-19685D02*
X439370Y19685D01*
X424606Y0D02*
G75*
D01*
G02X424606Y0I14764J0*
G01*
X434449Y0D02*
G75*
D01*
G02X434449Y0I4921J0*
G01*
X-19685Y328000D02*
X-59055Y328000D01*
X-39370Y308315D02*
X-39370Y347685D01*
X-54134Y328000D02*
G75*
D01*
G02X-54134Y328000I14764J0*
G01*
X-49213Y328000D02*
G75*
D01*
G02X-49213Y328000I9843J0*
G01*
X-44291Y328000D02*
G75*
D01*
G02X-44291Y328000I4921J0*
G01*
G54D15*
X0Y0D02*
X400000Y0D01*
X400000Y328000D01*
X0Y328000D01*
X0Y0D01*
G54D16*
X42000Y248000D03*
X206000Y105000D03*
X309000Y85000D03*
X309000Y95000D03*
X353000Y120000D03*
X361000Y140000D03*
X390000Y140000D03*
X359000Y184000D03*
X206000Y140000D03*
X307000Y79000D03*
X87000Y179000D03*
X46000Y220000D03*
X58000Y215000D03*
X68000Y215000D03*
X208470Y204370D03*
X189470Y230370D03*
X250000Y156000D03*
X321000Y150000D03*
X171000Y246000D03*
X231749Y83827D03*
X186000Y123000D03*
X123000Y244000D03*
X123000Y256000D03*
X123000Y268000D03*
X400000Y328000D03*
X213000Y157000D03*
X155000Y130000D03*
X155000Y118000D03*
X207000Y84000D03*
X81000Y174000D03*
X205000Y123000D03*
X170000Y128000D03*
X222000Y112000D03*
X256000Y121000D03*
X240000Y139000D03*
X192000Y168000D03*
X185920Y209450D03*
X306000Y50000D03*
X302000Y101000D03*
X227000Y107000D03*
X243000Y144000D03*
X302000Y155000D03*
X66000Y192000D03*
X89000Y192000D03*
X151000Y192000D03*
X170000Y190000D03*
X262000Y179000D03*
X277000Y165000D03*
X215000Y127000D03*
X285000Y143000D03*
X226000Y118000D03*
X272000Y144000D03*
X65000Y183000D03*
X90000Y183000D03*
X151000Y183000D03*
X170000Y183000D03*
X258000Y175000D03*
X272000Y158000D03*
X71000Y196000D03*
X40000Y196000D03*
X71000Y188000D03*
X40000Y188000D03*
X301000Y237000D03*
X304000Y206000D03*
X294000Y140000D03*
X295000Y99000D03*
X270000Y85000D03*
X65000Y174000D03*
X151000Y174000D03*
X170000Y174000D03*
X296000Y159000D03*
X266000Y183000D03*
X277000Y172000D03*
X170000Y143000D03*
X155000Y141000D03*
X215000Y133000D03*
X157000Y236000D03*
X148000Y263000D03*
X170000Y134000D03*
X62000Y37000D03*
X280000Y85000D03*
X234000Y107000D03*
X240000Y134000D03*
X216000Y95000D03*
X170000Y103000D03*
X231000Y275000D03*
X289000Y261000D03*
X87000Y205000D03*
X100000Y67000D03*
X315000Y214000D03*
X109000Y73000D03*
X38000Y233000D03*
X47000Y171000D03*
X76000Y247000D03*
X267000Y233000D03*
X281000Y204000D03*
X295000Y229000D03*
X250000Y66000D03*
X326000Y260000D03*
X308000Y127000D03*
G54D17*
X263000Y320000D03*
X263000Y300000D03*
X293000Y310000D03*
X74000Y300000D03*
X74000Y320000D03*
X44000Y310000D03*
X392795Y93142D03*
X392795Y110858D03*
X367205Y93142D03*
X367205Y110858D03*
G54D18*
X344000Y88000D03*
X334000Y98000D03*
X354000Y98000D03*
X334000Y78000D03*
X354000Y78000D03*
G54D19*
X290000Y38000D03*
X280000Y38000D03*
X270000Y38000D03*
X260000Y38000D03*
G54D20*
X250000Y38000D03*
G54D21*
X68000Y122000D03*
X28000Y122000D03*
G54D22*
X342000Y170000D03*
X332000Y170000D03*
X312000Y170000D03*
X322000Y170000D03*
G54D23*
X352000Y170000D03*
G54D24*
X350959Y168959D02*
X353041Y168959D01*
X353041Y171041D01*
X350959Y171041D01*
X350959Y168959D01*D02*
G54D25*
X350000Y234000D03*
X140000Y88000D03*
G54D26*
X350000Y286756D03*
X87244Y88000D03*
G54D27*
X145406Y217543D03*
G54D28*
X145000Y110457D03*
G54D29*
X210000Y69969D03*
X210000Y66031D03*

M02*
