M48
INCH,TZ
VER,1
FMAT,2
DETECT,ON
ATC,ON
T1C0.02362
T2C0.03937
T3C0.05949
T4C0.04000
T5C0.03500
T6C0.12500
T7C0.15748
T8C0.03917
T9C0.05500
T10C0.03740
T11C0.02756
T12C0.01181
%
T1
X42000Y248000
X206000Y105000
X309000Y85000
Y95000
X353000Y120000
X361000Y140000
X390000
X359000Y184000
X206000Y140000
X307000Y79000
X87000Y179000
X46000Y220000
X58000Y215000
X68000
X208470Y204370
X189470Y230370
X250000Y156000
X321000Y150000
X171000Y246000
X231749Y83827
X186000Y123000
X123000Y244000
Y256000
Y268000
X400000Y328000
X213000Y157000
X155000Y130000
Y118000
X207000Y84000
X81000Y174000
X205000Y123000
X170000Y128000
X222000Y112000
X256000Y121000
X240000Y139000
X192000Y168000
X185920Y209450
X306000Y50000
X302000Y101000
X227000Y107000
X243000Y144000
X302000Y155000
X66000Y192000
X89000
X151000
X170000Y190000
X262000Y179000
X277000Y165000
X215000Y127000
X285000Y143000
X226000Y118000
X272000Y144000
X65000Y183000
X90000
X151000
X170000
X258000Y175000
X272000Y158000
X71000Y196000
X40000
X71000Y188000
X40000
X301000Y237000
X304000Y206000
X294000Y140000
X295000Y99000
X270000Y85000
X65000Y174000
X151000
X170000
X296000Y159000
X266000Y183000
X277000Y172000
X170000Y143000
X155000Y141000
X215000Y133000
X157000Y236000
X148000Y263000
X170000Y134000
X62000Y37000
X280000Y85000
X234000Y107000
X240000Y134000
X216000Y95000
X170000Y103000
X231000Y275000
X289000Y261000
X87000Y205000
X100000Y67000
X315000Y214000
X109000Y73000
X38000Y233000
X47000Y171000
X76000Y247000
X267000Y233000
X281000Y204000
X295000Y229000
X250000Y66000
X326000Y260000
X308000Y127000
T2
X263000Y320000
Y300000
X293000Y310000
X74000Y300000
Y320000
X44000Y310000
X392795Y93142
Y110858
X367205Y93142
Y110858
T3
X344000Y88000
X334000Y98000
X354000
X334000Y78000
X354000
T4
X290000Y38000
X280000
X270000
X260000
X250000
T5
X68000Y122000
X28000
X342000Y170000
X332000
X312000
X322000
T6
X25000Y303000
X375000
X25000Y25000
X375000
T7
X116000Y223000
X115000Y111000
T8
X352000Y170000
T9
X350000Y234000
Y286756
X140000Y88000
X87244
T10
X145406Y217543
T11
X145000Y110457
T12
X210000Y69969
Y66031
M30
