G04 Generated by Ultiboard 14.1 *
%FSLAX25Y25*%
%MOIN*%

%ADD10C,0.00001*%
%ADD11C,0.02000*%
%ADD12C,0.01500*%
%ADD13C,0.01000*%
%ADD14C,0.03000*%
%ADD15C,0.00004*%
%ADD16C,0.00500*%
%ADD17C,0.03937*%
%ADD18R,0.03543X0.02205*%
%ADD19C,0.05337*%
%ADD20R,0.01084X0.04168*%
%ADD21C,0.01666*%
%ADD22R,0.04168X0.01084*%
%ADD23C,0.07349*%
%ADD24R,0.11811X0.06299*%
%ADD25R,0.21654X0.03937*%
%ADD26R,0.07677X0.12598*%
%ADD27R,0.07677X0.03543*%
%ADD28C,0.05400*%
%ADD29R,0.05400X0.05400*%
%ADD30R,0.03937X0.01063*%
%ADD31R,0.06168X0.03084*%
%ADD32R,0.01378X0.02362*%
%ADD33R,0.03543X0.03150*%
%ADD34R,0.21260X0.11417*%
%ADD35R,0.02756X0.03937*%
%ADD36R,0.05906X0.02362*%
%ADD37C,0.07166*%
%ADD38R,0.03543X0.02362*%
%ADD39R,0.11417X0.21260*%
%ADD40R,0.03937X0.06693*%
%ADD41R,0.12992X0.06693*%
%ADD42R,0.06299X0.11811*%
%ADD43R,0.03937X0.21654*%
%ADD44R,0.07874X0.07874*%
%ADD45R,0.03189X0.03189*%
%ADD46C,0.06334*%
%ADD47R,0.02083X0.02083*%
%ADD48C,0.03917*%
%ADD49R,0.06900X0.06900*%
%ADD50C,0.06900*%
%ADD51C,0.05140*%
%ADD52C,0.04156*%
%ADD53R,0.09724X0.08465*%
%ADD54R,0.05118X0.01181*%
%ADD55C,0.02581*%
%ADD56R,0.05906X0.11811*%


G04 ColorRGB 00FF00 for the following layer *
%LNCopper Top*%
%LPD*%
G54D10*
G36*
X87000Y325990D02*
X87000Y325990D01*
X262000Y325990D01*
X262000Y283000D01*
X87000Y283000D01*
X87000Y325990D01*
D02*
G37*
G54D11*
X87000Y325990D02*
X262000Y325990D01*
X262000Y283000D01*
X87000Y283000D01*
X87000Y325990D01*
X42000Y254250D02*
X42000Y248000D01*
X61750Y272000D02*
X61750Y252215D01*
X61276Y251740D01*
X42000Y267000D02*
X42000Y261750D01*
X47000Y272000D02*
X42000Y267000D01*
X54250Y272000D02*
X47000Y272000D01*
X53368Y271118D02*
X54250Y272000D01*
X206000Y110250D02*
X206000Y105000D01*
X195750Y108000D02*
X195750Y118000D01*
X206000Y117750D02*
X196000Y117750D01*
X195750Y138000D02*
X195750Y128000D01*
X206000Y128250D02*
X196000Y128250D01*
X206000Y140000D02*
X206000Y135750D01*
X361000Y140000D02*
X390000Y140000D01*
X371736Y144500D02*
X375173Y147937D01*
X359000Y184000D02*
X374984Y184000D01*
X314250Y58000D02*
X318000Y54250D01*
X305500Y104500D02*
X302000Y101000D01*
X250307Y66307D02*
X257943Y66307D01*
X353750Y138000D02*
X359000Y138000D01*
X361000Y140000D01*
X22827Y195937D02*
X39937Y195937D01*
X22827Y188063D02*
X39937Y188063D01*
X78250Y248000D02*
X82000Y244250D01*
X72625Y248000D02*
X78250Y248000D01*
X193210Y214039D02*
X193210Y204880D01*
X201220Y204370D02*
X208470Y204370D01*
X185730Y214039D02*
X185730Y209640D01*
X193210Y214039D02*
X230627Y214039D01*
X193997Y223488D02*
X193210Y222701D01*
X70724Y236974D02*
X69750Y236000D01*
X54250Y240750D02*
X54250Y250000D01*
X59000Y236000D02*
X54250Y240750D01*
X70724Y244260D02*
X70724Y236974D01*
X62250Y236000D02*
X59000Y236000D01*
X58000Y211750D02*
X58000Y215000D01*
X68000Y211750D02*
X68000Y215000D01*
X46000Y215000D02*
X46000Y220000D01*
X58663Y197663D02*
X59370Y196957D01*
X306000Y38250D02*
X290250Y38250D01*
X180513Y80327D02*
X177732Y83107D01*
X168923Y83107D01*
X250000Y40000D02*
X250000Y38000D01*
X221470Y257858D02*
X235470Y257858D01*
X201982Y238370D02*
X221470Y257858D01*
X194583Y238370D02*
X201982Y238370D01*
X189470Y222701D02*
X189470Y230370D01*
X193210Y222701D02*
X193210Y223598D01*
X194583Y238370D02*
X193997Y237784D01*
X193997Y223488D01*
X305500Y104500D02*
X313693Y104500D01*
X372118Y144882D02*
X314075Y144882D01*
X313693Y144500D01*
X123000Y244000D02*
X128250Y244000D01*
X123000Y256000D02*
X128250Y256000D01*
X123000Y268000D02*
X128250Y268000D01*
X135750Y244000D02*
X144250Y244000D01*
X135750Y268000D02*
X144250Y268000D01*
X135750Y256000D02*
X144250Y256000D01*
X275000Y232378D02*
X269740Y227118D01*
X320000Y115750D02*
X320000Y132000D01*
X313693Y134500D02*
X317500Y134500D01*
X320000Y132000D01*
X313693Y119500D02*
X313693Y114500D01*
X318750Y114500D01*
X323750Y119750D02*
X320000Y116000D01*
X320000Y115750D02*
X319125Y114875D01*
X330000Y119750D02*
X323750Y119750D01*
X61750Y272000D02*
X96654Y272000D01*
X107055Y261598D01*
X70724Y251740D02*
X88240Y251740D01*
X299488Y260000D02*
X312250Y260000D01*
X375173Y132000D02*
X348000Y132000D01*
X320000Y132000D02*
X348000Y132000D01*
X348000Y136250D01*
X348000Y136250D02*
X346250Y138000D01*
G54D12*
X56276Y248000D02*
X61276Y248000D01*
X54250Y250026D02*
X56276Y248000D01*
X306000Y38250D02*
X330000Y38250D01*
X306000Y54250D02*
X306000Y45750D01*
X318000Y54250D02*
X318000Y45750D01*
X330000Y54250D02*
X330000Y45750D01*
G54D13*
X64000Y244000D02*
X61535Y244000D01*
X61276Y244260D01*
X70724Y248000D02*
X72625Y248000D01*
X46000Y191750D02*
X46000Y195000D01*
X47957Y196957D01*
X59370Y196957D01*
X80630Y179043D02*
X86957Y179043D01*
X185730Y222701D02*
X185730Y221640D01*
X184942Y238370D02*
X166370Y238370D01*
X183279Y220250D02*
X185730Y222701D01*
X170000Y227750D02*
X170750Y227750D01*
X173370Y230370D01*
X189470Y230370D01*
X59370Y189280D02*
X62720Y189280D01*
X65000Y187000D01*
X65000Y183000D01*
X206000Y128250D02*
X213750Y128250D01*
X59370Y181602D02*
X55602Y181602D01*
X54000Y180000D02*
X54000Y175000D01*
X55000Y174000D01*
X65000Y174000D01*
X282000Y146000D02*
X280000Y144000D01*
X272000Y144000D01*
X287000Y145000D02*
X285000Y143000D01*
X206000Y117750D02*
X226750Y117750D01*
X215000Y127000D02*
X213750Y128250D01*
X65000Y251654D02*
X65000Y245000D01*
X64000Y244000D01*
X293000Y172000D02*
X307000Y158000D01*
X277000Y172000D02*
X293000Y172000D01*
X166370Y238370D02*
X156500Y228500D01*
X59370Y191839D02*
X65839Y191839D01*
X147000Y187000D02*
X151000Y183000D01*
X81000Y174000D02*
X91000Y174000D01*
X151000Y196657D02*
X151000Y192000D01*
X147000Y197828D02*
X147000Y187000D01*
X130500Y217157D02*
X151000Y196657D01*
X128500Y216328D02*
X147000Y197828D01*
X130500Y235207D02*
X130500Y217157D01*
X128500Y234036D02*
X128500Y216328D01*
X126500Y233207D02*
X126500Y215500D01*
X145000Y197000D02*
X145000Y180000D01*
X126500Y215500D02*
X145000Y197000D01*
X145000Y180000D02*
X151000Y174000D01*
X93500Y196500D02*
X93500Y234864D01*
X91000Y174000D02*
X97500Y180500D01*
X97500Y233207D01*
X90000Y183000D02*
X95500Y188500D01*
X95500Y234036D01*
X93500Y196500D02*
X89000Y192000D01*
X100793Y236500D02*
X123207Y236500D01*
X125207Y240500D02*
X130500Y235207D01*
X99136Y240500D02*
X125207Y240500D01*
X99136Y240500D02*
X93500Y234864D01*
X99964Y238500D02*
X124036Y238500D01*
X99964Y238500D02*
X95500Y234036D01*
X124036Y238500D02*
X128500Y234036D01*
X123207Y236500D02*
X126500Y233207D01*
X100793Y236500D02*
X97500Y233207D01*
X155000Y196000D02*
X132500Y218500D01*
X178000Y56107D02*
X161423Y56107D01*
X188250Y56000D02*
X178000Y56107D01*
X180513Y65327D02*
X180513Y56373D01*
X180806Y56078D01*
X201000Y56000D02*
X195750Y56000D01*
X200985Y65327D02*
X201000Y56000D01*
X168923Y63857D02*
X175393Y70327D01*
X168923Y63107D02*
X168923Y63857D01*
X287000Y91000D02*
X280000Y98000D01*
X262000Y98000D01*
X256000Y104000D01*
X256000Y121000D01*
X243000Y144000D02*
X247000Y140000D01*
X192000Y168000D02*
X210000Y168000D01*
X239000Y139000D01*
X234000Y107000D02*
X229000Y102000D01*
X214000Y102000D01*
X175393Y70327D02*
X182327Y70327D01*
X200985Y80327D02*
X205673Y80327D01*
X206000Y80000D01*
X225000Y105000D02*
X227000Y107000D01*
X213000Y105000D02*
X225000Y105000D01*
X195750Y158000D02*
X207021Y158000D01*
X240521Y124500D01*
X195750Y148000D02*
X214192Y148000D01*
X242692Y119500D01*
X215000Y133000D02*
X223536Y133000D01*
X247036Y109500D01*
X230707Y123000D02*
X205000Y123000D01*
X188250Y128000D02*
X188250Y118000D01*
X186000Y123000D02*
X188250Y123000D01*
X155000Y171000D02*
X155000Y196000D01*
X155000Y171000D02*
X149500Y165500D01*
X149793Y135457D02*
X149500Y135750D01*
X149500Y165500D02*
X149500Y135750D01*
X161423Y56107D02*
X161423Y102577D01*
X149625Y114375D01*
X149625Y135625D01*
X260000Y44000D02*
X282000Y66000D01*
X277000Y67000D02*
X250000Y40000D01*
X260000Y44000D02*
X260000Y38000D01*
X287000Y54000D02*
X299000Y42000D01*
X326250Y42000D01*
X330000Y45750D01*
X292000Y66000D02*
X300000Y58000D01*
X314250Y58000D01*
X280000Y85000D02*
X276000Y81000D01*
X171000Y189000D02*
X252000Y189000D01*
X171000Y189000D02*
X170000Y190000D01*
X262000Y179000D02*
X252000Y189000D01*
X250000Y183000D02*
X170000Y183000D01*
X258000Y175000D02*
X250000Y183000D01*
X173000Y177000D02*
X245000Y177000D01*
X257000Y165000D01*
X173000Y177000D02*
X170000Y174000D01*
X291339Y198937D02*
X262000Y169598D01*
X375173Y198937D02*
X291339Y198937D01*
X265000Y81000D02*
X262000Y78000D01*
X276000Y81000D02*
X265000Y81000D01*
X255393Y90000D02*
X265000Y90000D01*
X270000Y85000D01*
X183327Y75327D02*
X213000Y105000D01*
X180513Y75327D02*
X183327Y75327D01*
X214000Y102000D02*
X182327Y70327D01*
X231749Y83827D02*
X231749Y93999D01*
X32654Y174000D02*
X32654Y179654D01*
X37250Y184250D01*
X59281Y184250D01*
X39346Y177740D02*
X51740Y177740D01*
X55602Y181602D01*
X39346Y170260D02*
X46260Y170260D01*
X47000Y171000D01*
X318000Y61750D02*
X318000Y64000D01*
X325000Y71000D01*
X361000Y71000D01*
X375000Y85000D01*
X375000Y132016D01*
X367205Y93142D02*
X367205Y110858D01*
X345392Y110858D01*
X344000Y112250D01*
X330000Y112250D01*
X324750Y112250D01*
X344000Y119750D02*
X352750Y119750D01*
X353000Y120000D01*
X22827Y245937D02*
X35063Y245937D01*
X40000Y241000D01*
X52250Y241000D01*
X54250Y243000D01*
X22827Y238063D02*
X32937Y238063D01*
X38000Y233000D01*
X257000Y165000D02*
X257000Y149598D01*
X250000Y156000D02*
X250000Y149807D01*
X250307Y149500D01*
X250307Y144500D01*
X247000Y140000D02*
X249807Y140000D01*
X250307Y139500D01*
X240000Y134000D02*
X249807Y134000D01*
X250307Y134500D01*
X240510Y124510D02*
X250297Y124510D01*
X242692Y119500D02*
X250307Y119500D01*
X247036Y109500D02*
X250307Y109500D01*
X230707Y123000D02*
X249207Y104500D01*
X250307Y104500D01*
X250307Y94500D02*
X250893Y94500D01*
X255393Y90000D01*
X231749Y83827D02*
X241075Y74500D01*
X250307Y74500D01*
X262000Y78000D02*
X262000Y74402D01*
X267000Y74402D02*
X267000Y67250D01*
X277000Y74402D02*
X277000Y67000D01*
X282000Y74402D02*
X282000Y66000D01*
X287000Y54000D02*
X287000Y91000D01*
X292000Y74402D02*
X292000Y66000D01*
X307000Y74402D02*
X307000Y79000D01*
X313693Y74500D02*
X307098Y74500D01*
X313693Y84500D02*
X309500Y84500D01*
X309000Y85000D01*
X313693Y89500D02*
X342500Y89500D01*
X313693Y94500D02*
X309500Y94500D01*
X309000Y95000D01*
X313693Y109500D02*
X322000Y109500D01*
X324750Y112250D02*
X322250Y109750D01*
X308000Y127000D02*
X310000Y125000D01*
X314000Y125000D01*
X321000Y150000D02*
X314193Y150000D01*
X282000Y146000D02*
X282000Y149598D01*
X287000Y145000D02*
X287000Y149598D01*
X262000Y169598D02*
X262000Y149598D01*
X277000Y165000D02*
X277000Y149598D01*
X307000Y158000D02*
X307000Y149598D01*
X313693Y129500D02*
X313693Y124500D01*
X151750Y271750D02*
X155000Y275000D01*
X132500Y218500D02*
X132500Y272500D01*
X135000Y275000D02*
X132500Y272500D01*
X151750Y244000D02*
X151750Y271750D01*
X53000Y80000D02*
X52000Y79000D01*
X61811Y69055D02*
X66695Y69055D01*
X72000Y63750D01*
X67116Y56250D02*
X61811Y50945D01*
X67116Y56250D02*
X88766Y56250D01*
X92189Y52827D01*
X72000Y63750D02*
X72000Y67000D01*
X77000Y72000D01*
X108000Y72000D01*
X108000Y52890D01*
X109000Y73000D02*
X108000Y72000D01*
X147063Y51953D02*
X149291Y54181D01*
X62000Y37000D02*
X62000Y51000D01*
X286000Y223750D02*
X286000Y258000D01*
X289000Y261000D01*
X275000Y206750D02*
X275750Y206000D01*
X296000Y216250D02*
X286000Y216250D01*
X276000Y206250D02*
X275750Y206000D01*
X216000Y95000D02*
X217000Y94000D01*
X224000Y94000D01*
X170000Y103000D02*
X161000Y103000D01*
X157228Y115772D02*
X155000Y118000D01*
X160858Y119709D02*
X156709Y119709D01*
X160858Y125614D02*
X168614Y125614D01*
X156709Y119709D02*
X155000Y118000D01*
X160858Y115772D02*
X157228Y115772D01*
X160858Y129551D02*
X155449Y129551D01*
X155000Y130000D01*
X168614Y125614D02*
X170000Y127000D01*
X163583Y127583D02*
X170000Y134000D01*
X165486Y149236D02*
X174250Y158000D01*
X160858Y198449D02*
X155380Y198449D01*
X156240Y200417D02*
X160858Y200417D01*
X152500Y204157D02*
X156240Y200417D01*
X174250Y158000D02*
X188250Y158000D01*
X160858Y206323D02*
X156970Y206323D01*
X266000Y184000D02*
X266000Y183000D01*
X154500Y204985D02*
X157099Y202386D01*
X160858Y149236D02*
X165486Y149236D01*
X255488Y194512D02*
X266000Y184000D01*
X187518Y147268D02*
X188250Y148000D01*
X156500Y206793D02*
X156970Y206323D01*
X160858Y143331D02*
X170331Y143331D01*
X160858Y147268D02*
X187518Y147268D01*
X160858Y194512D02*
X255488Y194512D01*
X160858Y212228D02*
X160858Y216858D01*
X175394Y139394D02*
X160858Y139394D01*
X160858Y216858D02*
X164250Y220250D01*
X180000Y138000D02*
X178000Y136000D01*
X164250Y220250D02*
X183279Y220250D01*
X160858Y117740D02*
X155260Y117740D01*
X175646Y123646D02*
X160858Y123646D01*
X180000Y138000D02*
X189000Y138000D01*
X178000Y126000D02*
X175646Y123646D01*
X179500Y143500D02*
X175394Y139394D01*
X178000Y136000D02*
X178000Y126000D01*
X239000Y129000D02*
X249807Y129000D01*
X247500Y99500D02*
X250307Y99500D01*
X139000Y238750D02*
X144250Y244000D01*
X144250Y256000D02*
X148000Y252250D01*
X250125Y114682D02*
X250307Y114500D01*
X249807Y129000D02*
X250307Y129500D01*
X244682Y114682D02*
X250125Y114682D01*
X170000Y128000D02*
X170000Y127000D01*
X139000Y214828D02*
X139000Y238750D01*
X155380Y198449D02*
X139000Y214828D01*
X157000Y236000D02*
X155000Y234000D01*
X148000Y263000D02*
X144000Y267000D01*
X148000Y252250D02*
X148000Y238172D01*
X152500Y233672D01*
X178000Y108000D02*
X188250Y108000D01*
X215864Y143500D02*
X179500Y143500D01*
X213000Y155000D02*
X213000Y157000D01*
X154500Y234500D02*
X154500Y204985D01*
X157099Y202386D02*
X160858Y202386D01*
X152500Y233672D02*
X152500Y204157D01*
X222000Y112000D02*
X235000Y112000D01*
X213000Y155000D02*
X239000Y129000D01*
X160858Y121677D02*
X164323Y121677D01*
X155362Y141362D02*
X160858Y141362D01*
X160858Y135457D02*
X149793Y135457D01*
X164323Y121677D02*
X178000Y108000D01*
X235000Y112000D02*
X247500Y99500D01*
X244864Y114500D02*
X215864Y143500D01*
X80630Y194398D02*
X72602Y194398D01*
X71000Y196000D01*
X74839Y191839D02*
X71000Y188000D01*
X80630Y191839D02*
X74839Y191839D01*
X80630Y184161D02*
X77747Y184161D01*
X193720Y204370D02*
X193720Y213529D01*
X193210Y214039D01*
X206000Y80000D02*
X206000Y83000D01*
X207000Y84000D01*
X180513Y75327D02*
X171143Y75327D01*
X168923Y73107D01*
X301000Y237000D02*
X310000Y237000D01*
X304000Y206000D02*
X310250Y206000D01*
X267000Y233000D02*
X266000Y232000D01*
X295000Y229000D02*
X295000Y225000D01*
X266000Y227118D02*
X266000Y232000D01*
X281000Y204000D02*
X278000Y204000D01*
X276000Y206000D01*
X269740Y216882D02*
X285368Y216882D01*
X286000Y216250D01*
X326000Y260000D02*
X320000Y260000D01*
X65000Y251654D02*
X74945Y261598D01*
X88945Y261598D01*
X135000Y275000D02*
X231000Y275000D01*
X283000Y183000D02*
X272000Y172000D01*
X272000Y149598D02*
X272000Y172000D01*
X297000Y149598D02*
X297000Y150000D01*
X302000Y155000D01*
X292000Y149598D02*
X292000Y155000D01*
X296000Y159000D01*
X267000Y170598D02*
X267000Y149598D01*
X375173Y191063D02*
X287465Y191063D01*
X267000Y170598D01*
X283000Y183000D02*
X329000Y183000D01*
X342000Y170000D01*
X307000Y158000D02*
X320000Y158000D01*
X332000Y170000D01*
X295000Y139000D02*
X295000Y100000D01*
X295000Y139000D02*
X294000Y140000D01*
X295000Y100000D02*
X294000Y99000D01*
X75478Y186720D02*
X80630Y186720D01*
X70000Y164000D02*
X70000Y181243D01*
X73161Y179576D02*
X73161Y127161D01*
X70000Y181243D02*
X75478Y186720D01*
X73161Y179576D02*
X77747Y184161D01*
X28000Y122000D02*
X70000Y164000D01*
X73161Y127161D02*
X68000Y122000D01*
X180513Y75327D02*
X180513Y76000D01*
X54250Y250000D02*
X53000Y250000D01*
X52000Y251000D01*
X52000Y258000D01*
X50000Y260000D01*
X43750Y260000D01*
X42000Y261750D01*
X262000Y227118D02*
X262000Y258000D01*
X262260Y227118D02*
X262000Y227118D01*
X262000Y258000D02*
X260512Y258000D01*
X160858Y204354D02*
X158969Y204354D01*
X157000Y206323D01*
X156500Y210293D02*
X156500Y228500D01*
X156500Y206793D02*
X156500Y213213D01*
X156484Y213229D02*
X156485Y209692D01*
X156500Y208000D02*
X160567Y208000D01*
X160858Y208291D01*
X156500Y210000D02*
X160598Y210000D01*
X231749Y83827D02*
X229922Y82000D01*
X223750Y82000D01*
X200985Y70327D02*
X203673Y70327D01*
X207969Y66031D01*
X210000Y66031D01*
X200985Y75327D02*
X204673Y75327D01*
X210000Y70000D01*
X210000Y75750D01*
X216250Y82000D01*
X160858Y135457D02*
X160858Y131520D01*
X188250Y56000D02*
X188250Y52250D01*
X188000Y52000D02*
X188000Y34000D01*
X188250Y52250D02*
X188000Y52000D01*
X188000Y34000D02*
X190000Y32000D01*
X334000Y32000D01*
X336000Y34000D01*
X336000Y58000D01*
X334000Y60000D01*
X331750Y60000D01*
X330000Y61750D01*
X326250Y61750D01*
X326000Y62000D02*
X322000Y62000D01*
X326250Y61750D02*
X326000Y62000D01*
X291000Y261000D02*
X292000Y260000D01*
X289000Y261000D02*
X291000Y261000D01*
X321750Y61750D02*
X318000Y61750D01*
X322000Y62000D02*
X321750Y61750D01*
X292000Y260000D02*
X299488Y260000D01*
X318000Y61750D02*
X314250Y61750D01*
X299488Y258000D02*
X299488Y260000D01*
X299488Y258000D01*
X299488Y260000D01*
X314250Y61750D02*
X314000Y62000D01*
X310000Y62000D01*
X309750Y61750D02*
X306000Y61750D01*
X310000Y62000D02*
X309750Y61750D01*
X375173Y132189D02*
X384189Y132189D01*
X375173Y132189D02*
X375173Y132000D01*
X384189Y132189D02*
X386000Y134000D01*
X392000Y134000D01*
X392000Y134000D02*
X394000Y136000D01*
X394000Y136000D02*
X394000Y172000D01*
X392000Y174000D01*
X386000Y174000D01*
X383685Y176315D01*
X375173Y176315D01*
X140063Y61937D02*
X140063Y52827D01*
X140000Y52827D01*
G54D14*
X46750Y204250D02*
X46000Y205000D01*
X58000Y204250D02*
X58000Y198327D01*
X58000Y198327D02*
X58663Y197663D01*
X46750Y204250D02*
X76007Y204250D01*
X171000Y246000D02*
X177750Y246000D01*
X88500Y216743D02*
X76007Y204250D01*
X81879Y210121D02*
X87000Y205000D01*
X263000Y300000D02*
X283000Y300000D01*
X293000Y310000D01*
X327291Y310000D01*
X371173Y266118D02*
X371173Y245937D01*
X375173Y241937D01*
X269000Y300000D02*
X269000Y282000D01*
X275000Y276000D01*
X275000Y232378D01*
X100063Y52827D02*
X100063Y35063D01*
X147063Y35063D01*
X147063Y51953D01*
X100000Y67000D02*
X100000Y54000D01*
X38189Y60000D02*
X61811Y60000D01*
X52000Y79000D02*
X52000Y60000D01*
X226000Y218512D02*
X226000Y231000D01*
X244000Y249000D01*
X244000Y285000D01*
X226000Y218512D02*
X260630Y218512D01*
X262260Y211990D02*
X268250Y206000D01*
X262260Y216882D02*
X262260Y211990D01*
X260630Y218512D02*
X262260Y216882D01*
X317750Y211384D02*
X308987Y220146D01*
X317750Y206000D02*
X317750Y211384D01*
X52000Y79000D02*
X113890Y79000D01*
X112890Y80000D02*
X113890Y79000D01*
X140063Y52827D02*
X114445Y78445D01*
X327000Y310000D02*
X350000Y287000D01*
X371173Y266118D02*
X350535Y286756D01*
X375173Y234063D02*
X350063Y234063D01*
X344000Y228000D01*
X310189Y228000D02*
X344000Y228000D01*
X88500Y216743D02*
X88500Y252098D01*
X98000Y261598D01*
X140000Y52827D02*
X140000Y88000D01*
G54D15*
G36*
X268220Y125780D02*
X268220Y125780D01*
X268220Y133654D01*
X263130Y133654D01*
X260346Y130870D01*
X260346Y125780D01*
X268220Y125780D01*
D02*
G37*
X268220Y133654D01*
X263130Y133654D01*
X260346Y130870D01*
X260346Y125780D01*
X268220Y125780D01*
X0Y0D02*
X400000Y0D01*
X400000Y328000D01*
X0Y328000D01*
X0Y0D01*
G54D16*
X0Y0D02*
X0Y32800D01*
X0Y0D02*
X40000Y0D01*
X400000Y0D02*
X360000Y0D01*
X400000Y0D02*
X400000Y32800D01*
X400000Y328000D02*
X400000Y295200D01*
X400000Y328000D02*
X360000Y328000D01*
X0Y328000D02*
X40000Y328000D01*
X0Y328000D02*
X0Y295200D01*
X-19685Y0D02*
X-59055Y0D01*
X-39370Y-19685D02*
X-39370Y19685D01*
X-54134Y0D02*
G75*
D01*
G02X-54134Y0I14764J0*
G01*
X419685Y0D02*
X459055Y0D01*
X439370Y-19685D02*
X439370Y19685D01*
X424606Y0D02*
G75*
D01*
G02X424606Y0I14764J0*
G01*
X434449Y0D02*
G75*
D01*
G02X434449Y0I4921J0*
G01*
X-19685Y328000D02*
X-59055Y328000D01*
X-39370Y308315D02*
X-39370Y347685D01*
X-54134Y328000D02*
G75*
D01*
G02X-54134Y328000I14764J0*
G01*
X-49213Y328000D02*
G75*
D01*
G02X-49213Y328000I9843J0*
G01*
X-44291Y328000D02*
G75*
D01*
G02X-44291Y328000I4921J0*
G01*
X0Y0D02*
X0Y32800D01*
X0Y0D02*
X40000Y0D01*
X400000Y0D02*
X360000Y0D01*
X400000Y0D02*
X400000Y32800D01*
X400000Y328000D02*
X400000Y295200D01*
X400000Y328000D02*
X360000Y328000D01*
X0Y328000D02*
X40000Y328000D01*
X0Y328000D02*
X0Y295200D01*
X-19685Y0D02*
X-59055Y0D01*
X-39370Y-19685D02*
X-39370Y19685D01*
X-54134Y0D02*
G75*
D01*
G02X-54134Y0I14764J0*
G01*
X419685Y0D02*
X459055Y0D01*
X439370Y-19685D02*
X439370Y19685D01*
X424606Y0D02*
G75*
D01*
G02X424606Y0I14764J0*
G01*
X434449Y0D02*
G75*
D01*
G02X434449Y0I4921J0*
G01*
X-19685Y328000D02*
X-59055Y328000D01*
X-39370Y308315D02*
X-39370Y347685D01*
X-54134Y328000D02*
G75*
D01*
G02X-54134Y328000I14764J0*
G01*
X-49213Y328000D02*
G75*
D01*
G02X-49213Y328000I9843J0*
G01*
X-44291Y328000D02*
G75*
D01*
G02X-44291Y328000I4921J0*
G01*
G54D17*
X42000Y248000D03*
X206000Y105000D03*
X309000Y85000D03*
X309000Y95000D03*
X353000Y120000D03*
X361000Y140000D03*
X390000Y140000D03*
X359000Y184000D03*
X206000Y140000D03*
X307000Y79000D03*
X87000Y179000D03*
X46000Y220000D03*
X58000Y215000D03*
X68000Y215000D03*
X208470Y204370D03*
X189470Y230370D03*
X250000Y156000D03*
X321000Y150000D03*
X171000Y246000D03*
X231749Y83827D03*
X186000Y123000D03*
X123000Y244000D03*
X123000Y256000D03*
X123000Y268000D03*
X400000Y328000D03*
X213000Y157000D03*
X155000Y130000D03*
X155000Y118000D03*
X207000Y84000D03*
X81000Y174000D03*
X205000Y123000D03*
X170000Y128000D03*
X222000Y112000D03*
X256000Y121000D03*
X240000Y139000D03*
X192000Y168000D03*
X185920Y209450D03*
X306000Y50000D03*
X302000Y101000D03*
X227000Y107000D03*
X243000Y144000D03*
X302000Y155000D03*
X66000Y192000D03*
X89000Y192000D03*
X151000Y192000D03*
X170000Y190000D03*
X262000Y179000D03*
X277000Y165000D03*
X215000Y127000D03*
X285000Y143000D03*
X226000Y118000D03*
X272000Y144000D03*
X65000Y183000D03*
X90000Y183000D03*
X151000Y183000D03*
X170000Y183000D03*
X258000Y175000D03*
X272000Y158000D03*
X71000Y196000D03*
X40000Y196000D03*
X71000Y188000D03*
X40000Y188000D03*
X301000Y237000D03*
X304000Y206000D03*
X294000Y140000D03*
X295000Y99000D03*
X270000Y85000D03*
X65000Y174000D03*
X151000Y174000D03*
X170000Y174000D03*
X296000Y159000D03*
X266000Y183000D03*
X277000Y172000D03*
X170000Y143000D03*
X155000Y141000D03*
X215000Y133000D03*
X157000Y236000D03*
X148000Y263000D03*
X170000Y134000D03*
X62000Y37000D03*
X280000Y85000D03*
X234000Y107000D03*
X240000Y134000D03*
X216000Y95000D03*
X170000Y103000D03*
X231000Y275000D03*
X289000Y261000D03*
X87000Y205000D03*
X100000Y67000D03*
X315000Y214000D03*
X109000Y73000D03*
X38000Y233000D03*
X47000Y171000D03*
X76000Y247000D03*
X267000Y233000D03*
X281000Y204000D03*
X295000Y229000D03*
X250000Y66000D03*
X326000Y260000D03*
X308000Y127000D03*
G54D18*
X61276Y244260D03*
X70724Y244260D03*
X61276Y251740D03*
X61276Y248000D03*
X70724Y248000D03*
X70724Y251740D03*
G54D19*
X263000Y320000D03*
X263000Y300000D03*
X293000Y310000D03*
X74000Y300000D03*
X74000Y320000D03*
X44000Y310000D03*
X392795Y93142D03*
X392795Y110858D03*
X367205Y93142D03*
X367205Y110858D03*
G54D20*
X61750Y272000D03*
X54250Y272000D03*
X195750Y138000D03*
X188250Y138000D03*
X188250Y148000D03*
X195750Y148000D03*
X195750Y158000D03*
X188250Y158000D03*
X188250Y108000D03*
X195750Y108000D03*
X195750Y118000D03*
X188250Y118000D03*
X195750Y128000D03*
X188250Y128000D03*
X353750Y138000D03*
X346250Y138000D03*
X265750Y66000D03*
X258250Y66000D03*
X62250Y236000D03*
X69750Y236000D03*
X193720Y204370D03*
X201220Y204370D03*
X135750Y244000D03*
X128250Y244000D03*
X128250Y256000D03*
X135750Y256000D03*
X135750Y268000D03*
X128250Y268000D03*
X144250Y244000D03*
X151750Y244000D03*
X151750Y256000D03*
X144250Y256000D03*
X151750Y268000D03*
X144250Y268000D03*
X195750Y56000D03*
X188250Y56000D03*
X168923Y63107D03*
X161423Y63107D03*
X168923Y73107D03*
X161423Y73107D03*
X161423Y83107D03*
X168923Y83107D03*
X231750Y94000D03*
X224250Y94000D03*
X275750Y206000D03*
X268250Y206000D03*
X319750Y260000D03*
X312250Y260000D03*
X317750Y206000D03*
X310250Y206000D03*
X223750Y82000D03*
X216250Y82000D03*
G54D21*
X61208Y269916D02*
X62292Y269916D01*
X62292Y274084D01*
X61208Y274084D01*
X61208Y269916D01*D02*
X53708Y269916D02*
X54792Y269916D01*
X54792Y274084D01*
X53708Y274084D01*
X53708Y269916D01*D02*
X203916Y135208D02*
X208084Y135208D01*
X208084Y136292D01*
X203916Y136292D01*
X203916Y135208D01*D02*
X203916Y127708D02*
X208084Y127708D01*
X208084Y128792D01*
X203916Y128792D01*
X203916Y127708D01*D02*
X195208Y135916D02*
X196292Y135916D01*
X196292Y140084D01*
X195208Y140084D01*
X195208Y135916D01*D02*
X187708Y135916D02*
X188792Y135916D01*
X188792Y140084D01*
X187708Y140084D01*
X187708Y135916D01*D02*
X187708Y145916D02*
X188792Y145916D01*
X188792Y150084D01*
X187708Y150084D01*
X187708Y145916D01*D02*
X195208Y145916D02*
X196292Y145916D01*
X196292Y150084D01*
X195208Y150084D01*
X195208Y145916D01*D02*
X195208Y155916D02*
X196292Y155916D01*
X196292Y160084D01*
X195208Y160084D01*
X195208Y155916D01*D02*
X187708Y155916D02*
X188792Y155916D01*
X188792Y160084D01*
X187708Y160084D01*
X187708Y155916D01*D02*
X187708Y105916D02*
X188792Y105916D01*
X188792Y110084D01*
X187708Y110084D01*
X187708Y105916D01*D02*
X195208Y105916D02*
X196292Y105916D01*
X196292Y110084D01*
X195208Y110084D01*
X195208Y105916D01*D02*
X195208Y115916D02*
X196292Y115916D01*
X196292Y120084D01*
X195208Y120084D01*
X195208Y115916D01*D02*
X187708Y115916D02*
X188792Y115916D01*
X188792Y120084D01*
X187708Y120084D01*
X187708Y115916D01*D02*
X195208Y125916D02*
X196292Y125916D01*
X196292Y130084D01*
X195208Y130084D01*
X195208Y125916D01*D02*
X187708Y125916D02*
X188792Y125916D01*
X188792Y130084D01*
X187708Y130084D01*
X187708Y125916D01*D02*
X315916Y45208D02*
X320084Y45208D01*
X320084Y46292D01*
X315916Y46292D01*
X315916Y45208D01*D02*
X315916Y37708D02*
X320084Y37708D01*
X320084Y38792D01*
X315916Y38792D01*
X315916Y37708D01*D02*
X315916Y61208D02*
X320084Y61208D01*
X320084Y62292D01*
X315916Y62292D01*
X315916Y61208D01*D02*
X315916Y53708D02*
X320084Y53708D01*
X320084Y54792D01*
X315916Y54792D01*
X315916Y53708D01*D02*
X327916Y45208D02*
X332084Y45208D01*
X332084Y46292D01*
X327916Y46292D01*
X327916Y45208D01*D02*
X327916Y37708D02*
X332084Y37708D01*
X332084Y38792D01*
X327916Y38792D01*
X327916Y37708D01*D02*
X327916Y61208D02*
X332084Y61208D01*
X332084Y62292D01*
X327916Y62292D01*
X327916Y61208D01*D02*
X327916Y53708D02*
X332084Y53708D01*
X332084Y54792D01*
X327916Y54792D01*
X327916Y53708D01*D02*
X341916Y111708D02*
X346084Y111708D01*
X346084Y112792D01*
X341916Y112792D01*
X341916Y111708D01*D02*
X341916Y119208D02*
X346084Y119208D01*
X346084Y120292D01*
X341916Y120292D01*
X341916Y119208D01*D02*
X327916Y119208D02*
X332084Y119208D01*
X332084Y120292D01*
X327916Y120292D01*
X327916Y119208D01*D02*
X327916Y111708D02*
X332084Y111708D01*
X332084Y112792D01*
X327916Y112792D01*
X327916Y111708D01*D02*
X353208Y135916D02*
X354292Y135916D01*
X354292Y140084D01*
X353208Y140084D01*
X353208Y135916D01*D02*
X345708Y135916D02*
X346792Y135916D01*
X346792Y140084D01*
X345708Y140084D01*
X345708Y135916D01*D02*
X39916Y253708D02*
X44084Y253708D01*
X44084Y254792D01*
X39916Y254792D01*
X39916Y253708D01*D02*
X39916Y261208D02*
X44084Y261208D01*
X44084Y262292D01*
X39916Y262292D01*
X39916Y261208D01*D02*
X203916Y117208D02*
X208084Y117208D01*
X208084Y118292D01*
X203916Y118292D01*
X203916Y117208D01*D02*
X203916Y109708D02*
X208084Y109708D01*
X208084Y110792D01*
X203916Y110792D01*
X203916Y109708D01*D02*
X265208Y63916D02*
X266292Y63916D01*
X266292Y68084D01*
X265208Y68084D01*
X265208Y63916D01*D02*
X257708Y63916D02*
X258792Y63916D01*
X258792Y68084D01*
X257708Y68084D01*
X257708Y63916D01*D02*
X303916Y37708D02*
X308084Y37708D01*
X308084Y38792D01*
X303916Y38792D01*
X303916Y37708D01*D02*
X303916Y45208D02*
X308084Y45208D01*
X308084Y46292D01*
X303916Y46292D01*
X303916Y45208D01*D02*
X303916Y61208D02*
X308084Y61208D01*
X308084Y62292D01*
X303916Y62292D01*
X303916Y61208D01*D02*
X303916Y53708D02*
X308084Y53708D01*
X308084Y54792D01*
X303916Y54792D01*
X303916Y53708D01*D02*
X79916Y243708D02*
X84084Y243708D01*
X84084Y244792D01*
X79916Y244792D01*
X79916Y243708D01*D02*
X79916Y251208D02*
X84084Y251208D01*
X84084Y252292D01*
X79916Y252292D01*
X79916Y251208D01*D02*
X43916Y191208D02*
X48084Y191208D01*
X48084Y192292D01*
X43916Y192292D01*
X43916Y191208D01*D02*
X43916Y183708D02*
X48084Y183708D01*
X48084Y184792D01*
X43916Y184792D01*
X43916Y183708D01*D02*
X55916Y203708D02*
X60084Y203708D01*
X60084Y204792D01*
X55916Y204792D01*
X55916Y203708D01*D02*
X55916Y211208D02*
X60084Y211208D01*
X60084Y212292D01*
X55916Y212292D01*
X55916Y211208D01*D02*
X61708Y233916D02*
X62792Y233916D01*
X62792Y238084D01*
X61708Y238084D01*
X61708Y233916D01*D02*
X69208Y233916D02*
X70292Y233916D01*
X70292Y238084D01*
X69208Y238084D01*
X69208Y233916D01*D02*
X65916Y211208D02*
X70084Y211208D01*
X70084Y212292D01*
X65916Y212292D01*
X65916Y211208D01*D02*
X65916Y203708D02*
X70084Y203708D01*
X70084Y204792D01*
X65916Y204792D01*
X65916Y203708D01*D02*
X42916Y203458D02*
X49084Y203458D01*
X49084Y206542D01*
X42916Y206542D01*
X42916Y203458D01*D02*
X42916Y213458D02*
X49084Y213458D01*
X49084Y216542D01*
X42916Y216542D01*
X42916Y213458D01*D02*
X193178Y202286D02*
X194262Y202286D01*
X194262Y206454D01*
X193178Y206454D01*
X193178Y202286D01*D02*
X200678Y202286D02*
X201762Y202286D01*
X201762Y206454D01*
X200678Y206454D01*
X200678Y202286D01*D02*
X175916Y237708D02*
X180084Y237708D01*
X180084Y238792D01*
X175916Y238792D01*
X175916Y237708D01*D02*
X175916Y245208D02*
X180084Y245208D01*
X180084Y246292D01*
X175916Y246292D01*
X175916Y245208D01*D02*
X167916Y227208D02*
X172084Y227208D01*
X172084Y228292D01*
X167916Y228292D01*
X167916Y227208D01*D02*
X167916Y219708D02*
X172084Y219708D01*
X172084Y220792D01*
X167916Y220792D01*
X167916Y219708D01*D02*
X135208Y241916D02*
X136292Y241916D01*
X136292Y246084D01*
X135208Y246084D01*
X135208Y241916D01*D02*
X127708Y241916D02*
X128792Y241916D01*
X128792Y246084D01*
X127708Y246084D01*
X127708Y241916D01*D02*
X127708Y253916D02*
X128792Y253916D01*
X128792Y258084D01*
X127708Y258084D01*
X127708Y253916D01*D02*
X135208Y253916D02*
X136292Y253916D01*
X136292Y258084D01*
X135208Y258084D01*
X135208Y253916D01*D02*
X135208Y265916D02*
X136292Y265916D01*
X136292Y270084D01*
X135208Y270084D01*
X135208Y265916D01*D02*
X127708Y265916D02*
X128792Y265916D01*
X128792Y270084D01*
X127708Y270084D01*
X127708Y265916D01*D02*
X143708Y241916D02*
X144792Y241916D01*
X144792Y246084D01*
X143708Y246084D01*
X143708Y241916D01*D02*
X151208Y241916D02*
X152292Y241916D01*
X152292Y246084D01*
X151208Y246084D01*
X151208Y241916D01*D02*
X151208Y253916D02*
X152292Y253916D01*
X152292Y258084D01*
X151208Y258084D01*
X151208Y253916D01*D02*
X143708Y253916D02*
X144792Y253916D01*
X144792Y258084D01*
X143708Y258084D01*
X143708Y253916D01*D02*
X151208Y265916D02*
X152292Y265916D01*
X152292Y270084D01*
X151208Y270084D01*
X151208Y265916D01*D02*
X143708Y265916D02*
X144792Y265916D01*
X144792Y270084D01*
X143708Y270084D01*
X143708Y265916D01*D02*
X195208Y53916D02*
X196292Y53916D01*
X196292Y58084D01*
X195208Y58084D01*
X195208Y53916D01*D02*
X187708Y53916D02*
X188792Y53916D01*
X188792Y58084D01*
X187708Y58084D01*
X187708Y53916D01*D02*
X168381Y61023D02*
X169465Y61023D01*
X169465Y65191D01*
X168381Y65191D01*
X168381Y61023D01*D02*
X160881Y61023D02*
X161965Y61023D01*
X161965Y65191D01*
X160881Y65191D01*
X160881Y61023D01*D02*
X168381Y71023D02*
X169465Y71023D01*
X169465Y75191D01*
X168381Y75191D01*
X168381Y71023D01*D02*
X160881Y71023D02*
X161965Y71023D01*
X161965Y75191D01*
X160881Y75191D01*
X160881Y71023D01*D02*
X160881Y81023D02*
X161965Y81023D01*
X161965Y85191D01*
X160881Y85191D01*
X160881Y81023D01*D02*
X168381Y81023D02*
X169465Y81023D01*
X169465Y85191D01*
X168381Y85191D01*
X168381Y81023D01*D02*
X231208Y91916D02*
X232292Y91916D01*
X232292Y96084D01*
X231208Y96084D01*
X231208Y91916D01*D02*
X223708Y91916D02*
X224792Y91916D01*
X224792Y96084D01*
X223708Y96084D01*
X223708Y91916D01*D02*
X69916Y63208D02*
X74084Y63208D01*
X74084Y64292D01*
X69916Y64292D01*
X69916Y63208D01*D02*
X69916Y55708D02*
X74084Y55708D01*
X74084Y56792D01*
X69916Y56792D01*
X69916Y55708D01*D02*
X275208Y203916D02*
X276292Y203916D01*
X276292Y208084D01*
X275208Y208084D01*
X275208Y203916D01*D02*
X267708Y203916D02*
X268792Y203916D01*
X268792Y208084D01*
X267708Y208084D01*
X267708Y203916D01*D02*
X293916Y223208D02*
X298084Y223208D01*
X298084Y224292D01*
X293916Y224292D01*
X293916Y223208D01*D02*
X293916Y215708D02*
X298084Y215708D01*
X298084Y216792D01*
X293916Y216792D01*
X293916Y215708D01*D02*
X283916Y215708D02*
X288084Y215708D01*
X288084Y216792D01*
X283916Y216792D01*
X283916Y215708D01*D02*
X283916Y223208D02*
X288084Y223208D01*
X288084Y224292D01*
X283916Y224292D01*
X283916Y223208D01*D02*
X319208Y257916D02*
X320292Y257916D01*
X320292Y262084D01*
X319208Y262084D01*
X319208Y257916D01*D02*
X311708Y257916D02*
X312792Y257916D01*
X312792Y262084D01*
X311708Y262084D01*
X311708Y257916D01*D02*
X317208Y203916D02*
X318292Y203916D01*
X318292Y208084D01*
X317208Y208084D01*
X317208Y203916D01*D02*
X309708Y203916D02*
X310792Y203916D01*
X310792Y208084D01*
X309708Y208084D01*
X309708Y203916D01*D02*
X223208Y79916D02*
X224292Y79916D01*
X224292Y84084D01*
X223208Y84084D01*
X223208Y79916D01*D02*
X215708Y79916D02*
X216792Y79916D01*
X216792Y84084D01*
X215708Y84084D01*
X215708Y79916D01*D02*
G54D22*
X206000Y135750D03*
X206000Y128250D03*
X318000Y45750D03*
X318000Y38250D03*
X318000Y61750D03*
X318000Y54250D03*
X330000Y45750D03*
X330000Y38250D03*
X330000Y61750D03*
X330000Y54250D03*
X344000Y112250D03*
X344000Y119750D03*
X330000Y119750D03*
X330000Y112250D03*
X42000Y254250D03*
X42000Y261750D03*
X206000Y117750D03*
X206000Y110250D03*
X306000Y38250D03*
X306000Y45750D03*
X306000Y61750D03*
X306000Y54250D03*
X82000Y244250D03*
X82000Y251750D03*
X46000Y191750D03*
X46000Y184250D03*
X58000Y204250D03*
X58000Y211750D03*
X68000Y211750D03*
X68000Y204250D03*
X178000Y238250D03*
X178000Y245750D03*
X170000Y227750D03*
X170000Y220250D03*
X72000Y63750D03*
X72000Y56250D03*
X296000Y223750D03*
X296000Y216250D03*
X286000Y216250D03*
X286000Y223750D03*
G54D23*
X344000Y88000D03*
X334000Y98000D03*
X354000Y98000D03*
X334000Y78000D03*
X354000Y78000D03*
G54D24*
X384425Y122740D03*
X384425Y157386D03*
X384425Y166866D03*
X384425Y209386D03*
X13575Y178614D03*
X13575Y205386D03*
X384425Y251386D03*
X384425Y224614D03*
X13575Y228614D03*
X13575Y255386D03*
G54D25*
X375173Y132189D03*
X375173Y140063D03*
X375173Y147937D03*
X375173Y176315D03*
X375173Y184189D03*
X375173Y192063D03*
X375173Y199937D03*
X22827Y188063D03*
X22827Y195937D03*
X375173Y241937D03*
X375173Y234063D03*
X22827Y238063D03*
X22827Y245937D03*
G54D26*
X333811Y228000D03*
X38189Y60000D03*
G54D27*
X310189Y218945D03*
X310189Y228000D03*
X310189Y237055D03*
X61811Y60000D03*
X61811Y69055D03*
X61811Y50945D03*
G54D28*
X290000Y38000D03*
X280000Y38000D03*
X270000Y38000D03*
X260000Y38000D03*
G54D29*
X250000Y38000D03*
G54D30*
X59370Y179043D03*
X80630Y179043D03*
X59370Y186720D03*
X59370Y184161D03*
X59370Y181602D03*
X80630Y186720D03*
X80630Y181602D03*
X80630Y184161D03*
X59370Y194398D03*
X59370Y191839D03*
X59370Y189280D03*
X80630Y194398D03*
X80630Y189280D03*
X80630Y191839D03*
X59370Y196957D03*
X80630Y196957D03*
G54D31*
X46000Y205000D03*
X46000Y215000D03*
G54D32*
X185730Y214039D03*
X193210Y214039D03*
X189470Y222701D03*
X185730Y222701D03*
X193210Y222701D03*
G54D33*
X184942Y238370D03*
X193997Y238370D03*
G54D34*
X226000Y257488D03*
X226000Y218512D03*
G54D35*
X262260Y216882D03*
X269740Y216882D03*
X262260Y227118D03*
X269740Y227118D03*
X266000Y227118D03*
G54D36*
X180513Y65327D03*
X200985Y65327D03*
X180513Y70327D03*
X180513Y75327D03*
X200985Y70327D03*
X200985Y75327D03*
X180513Y80327D03*
X200985Y80327D03*
G54D37*
X68000Y122000D03*
X28000Y122000D03*
G54D38*
X39346Y170260D03*
X39346Y177740D03*
X32654Y174000D03*
G54D39*
X260512Y258000D03*
X299488Y258000D03*
G54D40*
X88945Y261598D03*
X98000Y261598D03*
X107055Y261598D03*
G54D41*
X98000Y286402D03*
G54D42*
X117386Y43575D03*
X82740Y43575D03*
X157386Y43575D03*
X130614Y43575D03*
G54D43*
X107937Y52827D03*
X100063Y52827D03*
X92189Y52827D03*
X147937Y52827D03*
X140063Y52827D03*
G54D44*
X287906Y106094D03*
X276094Y106094D03*
X264283Y106094D03*
X287906Y117906D03*
X276094Y117906D03*
X264283Y117906D03*
X287906Y129717D03*
X276094Y129717D03*
G54D45*
X250307Y149500D03*
X250307Y144500D03*
X250307Y139500D03*
X250307Y134500D03*
X250307Y129500D03*
X250307Y124500D03*
X250307Y119500D03*
X250307Y114500D03*
X250307Y109500D03*
X250307Y104500D03*
X250307Y99500D03*
X250307Y94500D03*
X250307Y89500D03*
X250307Y84500D03*
X250307Y79500D03*
X250307Y74500D03*
X313693Y149500D03*
X313693Y144500D03*
X313693Y139500D03*
X313693Y134500D03*
X313693Y129500D03*
X313693Y124500D03*
X313693Y119500D03*
X313693Y114500D03*
X313693Y109500D03*
X313693Y104500D03*
X313693Y99500D03*
X313693Y94500D03*
X313693Y89500D03*
X313693Y84500D03*
X313693Y79500D03*
X313693Y74500D03*
X257000Y149598D03*
X262000Y149598D03*
X267000Y149598D03*
X272000Y149598D03*
X277000Y149598D03*
X282000Y149598D03*
X287000Y149598D03*
X292000Y149598D03*
X297000Y149598D03*
X302000Y149598D03*
X307000Y149598D03*
X257000Y74402D03*
X262000Y74402D03*
X267000Y74402D03*
X272000Y74402D03*
X277000Y74402D03*
X282000Y74402D03*
X287000Y74402D03*
X292000Y74402D03*
X297000Y74402D03*
X302000Y74402D03*
X307000Y74402D03*
G54D46*
X342000Y170000D03*
X332000Y170000D03*
X312000Y170000D03*
X322000Y170000D03*
G54D47*
X352000Y170000D03*
G54D48*
X350959Y168959D02*
X353041Y168959D01*
X353041Y171041D01*
X350959Y171041D01*
X350959Y168959D01*D02*
G54D49*
X350000Y234000D03*
X140000Y88000D03*
G54D50*
X350000Y286756D03*
X87244Y88000D03*
G54D51*
X145406Y217543D03*
G54D52*
X145000Y110457D03*
G54D53*
X145406Y101303D03*
X145406Y226697D03*
G54D54*
X160858Y115772D03*
X160858Y123646D03*
X160858Y121677D03*
X160858Y119709D03*
X160858Y117740D03*
X160858Y131520D03*
X160858Y129551D03*
X160858Y127583D03*
X160858Y125614D03*
X160858Y139394D03*
X160858Y137425D03*
X160858Y135457D03*
X160858Y133488D03*
X160858Y147268D03*
X160858Y145299D03*
X160858Y143331D03*
X160858Y141362D03*
X160858Y155142D03*
X160858Y153173D03*
X160858Y151205D03*
X160858Y149236D03*
X160858Y163016D03*
X160858Y161047D03*
X160858Y159079D03*
X160858Y157110D03*
X160858Y170890D03*
X160858Y168921D03*
X160858Y166953D03*
X160858Y164984D03*
X160858Y178764D03*
X160858Y176795D03*
X160858Y174827D03*
X160858Y172858D03*
X160858Y186638D03*
X160858Y184669D03*
X160858Y182701D03*
X160858Y180732D03*
X160858Y194512D03*
X160858Y192543D03*
X160858Y190575D03*
X160858Y188606D03*
X160858Y202386D03*
X160858Y200417D03*
X160858Y198449D03*
X160858Y196480D03*
X160858Y210260D03*
X160858Y208291D03*
X160858Y206323D03*
X160858Y204354D03*
X160858Y212228D03*
G54D55*
X210000Y69969D03*
X210000Y66031D03*
G54D56*
X234000Y68000D03*

M02*
